<svg xmlns="http://www.w3.org/2000/svg" width="16" height="16"><path fill="#222" d="M7.969 1C4.117 1 1 4.117 1 7.969s3.117 6.968 6.969 6.968 6.968-3.117 6.968-6.968S11.82 1 7.97 1zm-3 3.969H6c.254.011.512.129.688.312l1.28 1.282L9.282 5.28c.266-.23.446-.304.688-.312h1v1c0 .285-.035.55-.25.75L9.438 8l1.25 1.25c.187.188.28.453.28.719v1h-1c-.265 0-.53-.094-.718-.281L7.969 9.405l-1.282 1.281a1.016 1.016 0 0 1-.718.282h-1v-1c0-.266.093-.531.281-.719L6.531 8 5.25 6.719a.904.904 0 0 1-.281-.75zm0 0"/></svg>