<svg xmlns="http://www.w3.org/2000/svg" width="16" height="16"><g fill="#222"><path d="M6.008 1v2.984H3.43l.695.692a.493.493 0 0 1 .363-.176h.008c.277 0 .5.223.5.5a.49.49 0 0 1-.176.375l.61.61H15C13.844 3.984 10 1 6.008 1zM1 6.984v1L2.5 8c.293 0 .488.195.488.5l.012 2a.499.499 0 1 0 1 0v-2c0-.66 1-.66 1 0v3a.499.499 0 1 0 1 0v-1c0-.676 1-.672 1 0 .004 1.684.016 3.652.016 3.941a.493.493 0 1 0 .984 0l.008-3.25-4.203-4.207zm5.43 0 1.59 1.59v-.09c0-.246.226-.5.5-.5h.98c.258 0 .5.25.5.5v1c0 .278.223.5.5.5s.5-.222.5-.5v-1c0-.265.223-.5.5-.5.266 0 .5.23.5.5 0 .278.223.5.5.5s.5-.222.5-.5c.016-.261.266-.492.5-.5H15v-1zm0 0"/><path d="M1.531.469.47 1.53l14 14 1.062-1.062zm0 0"/></g></svg>