<svg xmlns="http://www.w3.org/2000/svg" width="16" height="16"><path fill="#222" d="M8 1C6.355 1 5 2.355 5 4v4.34A3.519 3.519 0 0 0 3.5 8C1.578 8 0 9.578 0 11.5S1.578 15 3.5 15A3.516 3.516 0 0 0 7 11.516V4c0-.563.438-1 1-1h4c.563 0 1 .438 1 1v4.34A3.519 3.519 0 0 0 11.5 8C9.578 8 8 9.578 8 11.5S9.578 15 11.5 15s3.5-1.578 3.5-3.5V4c0-1.645-1.355-3-3-3zm-4.5 9c.84 0 1.5.66 1.5 1.5v.016A1.485 1.485 0 0 1 3.5 13c-.84 0-1.5-.66-1.5-1.5S2.66 10 3.5 10zm8 0c.84 0 1.5.66 1.5 1.5s-.66 1.5-1.5 1.5-1.5-.66-1.5-1.5.66-1.5 1.5-1.5zm0 0"/></svg>