<svg xmlns="http://www.w3.org/2000/svg" width="16" height="16"><path fill="#222" d="M3.5 1A3.514 3.514 0 0 0 0 4.5c0 1.348.875 2.363 2 2.95V13c0 1.09.91 2 2 2h8c1.09 0 2-.91 2-2V7.45c1.125-.587 2-1.602 2-2.95C16 2.578 14.422 1 12.5 1H6zm0 2h7c.848 0 1.5.652 1.5 1.5a1.48 1.48 0 0 1-1.2 1.469c-.464.097-.8.508-.8.98V13H4V6.95c0-.473-.336-.884-.8-.981A1.48 1.48 0 0 1 2 4.5C2 3.652 2.652 3 3.5 3zm4.969 3a.447.447 0 0 0-.125.027l-3 1a.499.499 0 1 0 .312.95l3-1A.502.502 0 0 0 8.47 6zm0 2a.447.447 0 0 0-.125.027l-3 1a.499.499 0 1 0 .312.95l3-1A.502.502 0 0 0 8.47 8zm0 2a.447.447 0 0 0-.125.027l-3 1a.499.499 0 1 0 .312.95l3-1A.502.502 0 0 0 8.47 10zm0 0"/></svg>