<svg xmlns="http://www.w3.org/2000/svg" width="16" height="16"><path fill="#222" d="m6.008 4.832.527-.879-4.004 2.16.032-.02C-.04 7.384 1.215 11.29 4.19 10.649l-.023.004 3.031-.582-1.191-.984v2.281l.504-.867-1.586.906-.016.012c-1.887 1.187-1.043 3.559 1.184 3.559l4.82.007c2.188 0 2.832-2.379 1.23-3.53l-.015-.013-.05-.03-1.59-.915.5.871V9.086l-1.196.98 2.973.602-.059-.012c2.867.77 4.543-2.898 1.766-4.504l-.008-.004-3.992-2.191.52.879v-2.04c0-3.769-4.981-3.737-4.981 0zm2-2.035c0-1.059.98-1.156.98 0v2.629l4.504 2.472-.02-.011c.966.558.145.941-.25.836l-.027-.008-4.207-.848v4.078l2.067 1.184-.059-.035.008.004-.031-.024a.352.352 0 0 1 .039.035.086.086 0 0 0 .015.02.03.03 0 0 1 .004.016c.004 0 .004.003.004.003v-.003l.094-.192s-.004.004-.012.004l-.054.016c-.036.004-.086.011-.149.011l-4.82-.007a.751.751 0 0 1-.176-.016.312.312 0 0 1-.086-.02c-.016-.007-.027-.011-.031-.015l-.008-.004.008.008.05.285.004-.004a.38.38 0 0 1 .117-.098l-.034.02 2.07-1.188v-4.07l-4.23.816H3.77c-.852.184-.688-.625-.32-.804l.015-.008 4.543-2.45zm0 0"/></svg>