<svg xmlns="http://www.w3.org/2000/svg" width="16" height="16"><path fill="#222" d="M8 1c-.09 0-.18.008-.27.027-3 .157-5.628 2.22-6.453 5.13-.761 3.015.57 6.23 3.243 7.827a7.14 7.14 0 0 0 8.402-1.105 7.14 7.14 0 0 0 1.105-8.402c1.504 2.726 1.032 6.164-1.136 8.37-2.227 2.15-5.653 2.579-8.329 1.067C1.946 12.336.648 9.18 1.382 6.242c-.71 2.946.622 6.07 3.22 7.602 2.656 1.469 6.027 1.004 8.175-1.11 2.094-2.168 2.512-5.53 1.036-8.132 1.453 2.617.992 5.953-1.094 8.074-2.137 2.066-5.465 2.48-8.035 1.023C2.168 12.191.91 9.13 1.62 6.305c-.687 2.828.606 5.86 3.102 7.324 2.547 1.418 5.82.965 7.879-1.07 2.015-2.079 2.421-5.34 1-7.836 1.398 2.511.949 5.75-1.059 7.777-2.047 1.988-5.273 2.39-7.734.988-2.418-1.445-3.641-4.418-2.95-7.125-.664 2.715.59 5.657 2.989 7.055 2.437 1.363 5.613.922 7.582-1.031 1.933-1.989 2.328-5.153.957-7.543 1.347 2.402.91 5.543-1.016 7.484-1.957 1.906-5.09 2.297-7.441.945-2.32-1.378-3.5-4.257-2.832-6.847-.641 2.597.574 5.445 2.87 6.777 2.333 1.309 5.407.883 7.286-.992 1.855-1.898 2.238-4.965.922-7.242 1.293 2.293.867 5.336-.98 7.183-1.868 1.828-4.9 2.207-7.145.91-2.219-1.312-3.36-4.101-2.719-6.574-.613 2.48.563 5.235 2.762 6.504 2.222 1.254 5.199.84 6.988-.953 1.773-1.809 2.14-4.777.879-6.95 1.238 2.188.828 5.134-.938 6.891-1.777 1.747-4.71 2.114-6.847.868-2.12-1.246-3.222-3.942-2.605-6.298-.593 2.363.547 5.027 2.645 6.226 2.117 1.203 4.996.801 6.691-.914 1.696-1.718 2.051-4.586.844-6.648 1.184 2.078.79 4.922-.902 6.59-1.688 1.668-4.52 2.02-6.551.832-2.02-1.18-3.082-3.79-2.488-6.028-.57 2.246.53 4.82 2.53 5.957 2.009 1.149 4.786.758 6.395-.875 1.618-1.628 1.957-4.398.801-6.355 1.133 1.973.75 4.719-.86 6.297-1.597 1.586-4.331 1.926-6.253.789-1.922-1.113-2.95-3.629-2.375-5.75-.547 2.129.516 4.613 2.414 5.68 1.902 1.093 4.582.718 6.098-.836 1.539-1.536 1.867-4.207.765-6.055 1.078 1.863.707 4.508-.824 5.996-1.504 1.512-4.14 1.836-5.957.754-1.82-1.05-2.809-3.473-2.258-5.477-.523 2.012.5 4.403 2.3 5.407 1.794 1.039 4.372.675 5.802-.797 1.457-1.45 1.77-4.02.722-5.762 1.024 1.758.668 4.305-.78 5.703-1.419 1.43-3.954 1.742-5.661.711-1.723-.98-2.672-3.312-2.145-5.203-.5 1.895.485 4.2 2.184 5.133 1.688.988 4.168.64 5.504-.758 1.379-1.355 1.68-3.828.687-5.461.97 1.648.625 4.094-.746 5.402-1.324 1.352-3.761 1.649-5.363.676-1.621-.918-2.531-3.156-2.027-4.93-.48 1.782.468 3.989 2.07 4.86 1.574.933 3.961.598 5.207-.719 1.297-1.27 1.586-3.64.645-5.168.918 1.543.586 3.89-.704 5.11-1.238 1.269-3.574 1.554-5.066.632-1.523-.847-2.394-3-1.914-4.652-.457 1.66.453 3.777 1.953 4.582 1.469.879 3.754.555 4.91-.68 1.215-1.175 1.492-3.449.606-4.867.875 1.426.578 3.684-.637 4.836-1.148 1.215-3.41 1.512-4.836.637-1.469-.797-2.34-2.906-1.867-4.508.39-1.625 2.2-3.012 3.871-2.969v-.004A1.474 1.474 0 0 0 8 1zm0 0"/></svg>