<svg xmlns="http://www.w3.org/2000/svg" width="16" height="16"><g fill="#222"><path d="M8.594 1A7.504 7.504 0 0 1 16 8.5a7.504 7.504 0 0 1-5.559 7.242 7.505 7.505 0 0 1-8.437-3.492 1.002 1.002 0 0 1 1.734-1 5.493 5.493 0 0 0 6.188 2.562C12.332 13.168 14 10.996 14 8.5s-1.668-4.668-4.074-5.313A5.493 5.493 0 0 0 3.738 5.75a1.146 1.146 0 0 1-.203.23l.02.012.008.008H4c.55 0 1 .45 1 1v1H0V3h1c.55 0 1 .45 1 1v.687l.016.012.011.012a7.514 7.514 0 0 1 6.567-3.707zm0 0"/><path d="M6 8h5.004c.539 0 .996.55.996 1v3H5V9.016C5 8.504 5.523 8 6 8zm0 0"/><path d="M8.5 5C7.125 5 6 6.148 6 7.52v.96C6 9.852 7.125 11 8.5 11S11 9.852 11 8.48v-.96C11 6.148 9.875 5 8.5 5zm0 2c.29 0 .5.207.5.52v.96c0 .313-.21.52-.5.52S8 8.793 8 8.48v-.96c0-.313.21-.52.5-.52zm0 0"/></g></svg>