<svg xmlns="http://www.w3.org/2000/svg" width="16" height="16"><path fill="#222" d="M7.355.238a10.5 10.5 0 0 0-.699.016c-1.883.105-3.843.793-5.625 2.308a.749.749 0 0 0 .965 1.145c3.094-2.621 6.61-2.332 9.102-.953 1.25.687 2.21 1.656 2.687 2.61.48.952.508 1.812-.004 2.6-.57.88-2.347 1.5-3.828-.136-.887-.984-2.086-1.332-3.137-1.133-1.046.196-1.953.88-2.476 1.832-.524.95-.633 2.192-.09 3.399.547 1.203 1.707 2.34 3.613 3.277.371.18.82.027 1.004-.344a.747.747 0 0 0-.344-1.004c-1.687-.828-2.543-1.753-2.906-2.55-.363-.797-.273-1.493.035-2.055.313-.566.871-.973 1.446-1.082.574-.11 1.16.023 1.742.664 2.031 2.25 5.047 1.727 6.2-.05.823-1.266.737-2.794.089-4.09-.649-1.297-1.828-2.438-3.305-3.25a9.684 9.684 0 0 0-4.469-1.2zm.051 3.317a6.943 6.943 0 0 0-3.988 1.363c-1.3.969-2.273 2.418-2.527 4.16-.25 1.742.234 3.746 1.683 5.774a.749.749 0 0 0 1.047.172.745.745 0 0 0 .172-1.044c-1.27-1.78-1.605-3.367-1.418-4.687.191-1.32.922-2.414 1.938-3.172 2.035-1.512 5.09-1.633 7.039.785a.747.747 0 0 0 1.054.114.742.742 0 0 0 .114-1.051c-1.227-1.524-2.852-2.27-4.497-2.395a8.141 8.141 0 0 0-.617-.02zm.008 6.156a.768.768 0 0 0-.422.14.777.777 0 0 0-.304.489.749.749 0 0 0 .132.558c1.149 1.606 3.34 2.82 5.547 2.52a.752.752 0 0 0-.203-1.488c-1.48.203-3.32-.782-4.125-1.907a.76.76 0 0 0-.625-.312zm0 0"/></svg>