<svg xmlns="http://www.w3.org/2000/svg" width="16" height="16"><path fill="#222" d="M1.496.5.438 1.563l.957.957C1.145 2.953 1 3.46 1 4v1h2v-.875L4.875 6H2.281C1.571 6 1 6.57 1 7.281v7.438C1 15.429 1.57 16 2.281 16H6.72C7.429 16 8 15.43 8 14.719V9.125L9.875 11H9v2h2.875l2.563 2.563L15.5 14.5zM4.06 1l2 2H12c.555 0 1 .445 1 1v5.938l1.578 1.578C14.84 11.07 15 10.555 15 10V4c0-1.66-1.34-3-3-3zM2.41 7H3c0 .555.445 1 1 1h1a.99.99 0 0 0 .98-.895L7 8.125v5.45a.41.41 0 0 1-.41.41H2.41a.41.41 0 0 1-.41-.41V7.41A.41.41 0 0 1 2.41 7zM9 14.023V16h3c1 0 1-1 1-1s-.05-.844-4-.977zm0 0"/></svg>