<svg xmlns="http://www.w3.org/2000/svg" width="16" height="16"><path fill="#222" d="m4.914 2 .25 3h2.004l-.082-1h6.828l-.836 10H12v2h1c2 0 2-1 2.074-1.871L16.086 2zM4 6C0 6 0 8 0 8v1h11V8s0-2-4-2zm.602 4c-.832 0-1.293.508-1.57.758a2.52 2.52 0 0 1-.259.203c-.101-.047-.355-.145-.566-.285-.3-.207-.539-.418-.539-.418a1.001 1.001 0 0 0-1.336 1.488s.32.285.746.578c.422.293.895.676 1.723.676s1.289-.504 1.566-.754c.11-.101.184-.152.235-.187.046.035.12.086.23.187.277.25.738.754 1.57.754.828 0 1.29-.504 1.567-.754.129-.117.215-.176.261-.207.102.047.356.145.563.285.3.207.539.422.539.422a1 1 0 1 0 1.336-1.488s-.32-.29-.742-.582C9.5 10.383 9.027 10 8.199 10s-1.289.508-1.566.758a2.44 2.44 0 0 1-.235.187c-.046-.035-.12-.09-.23-.187-.277-.25-.738-.758-1.566-.758zM0 14v1c0 1 1 1 1 1h9s1 0 1-1v-1zm0 0"/></svg>