<svg xmlns="http://www.w3.org/2000/svg" width="16" height="16"><g fill="#222"><path d="M7 1v2a6.008 6.008 0 0 0-5.723 4.2 6.005 6.005 0 0 0 2.282 6.718c1.093.781 2.254-.879 1.148-1.637a3.994 3.994 0 0 1-1.523-4.48A3.995 3.995 0 0 1 7 5v2h.75a.756.756 0 0 0 .375-.117l3.75-2.25A.743.743 0 0 0 12.203 4a.743.743 0 0 0-.328-.633l-3.75-2.25A.756.756 0 0 0 7.75 1zm0 0"/><path d="M7.379 15.086c1.621 0 2.687-.7 2.687-1.77 0-.761-.511-1.336-1.308-1.492.597-.156.972-.64.972-1.32 0-1.004-.8-1.613-2.136-1.613a4.38 4.38 0 0 0-2.082.53l.34 1.118c.535-.234 1.003-.363 1.43-.363.538 0 .886.207.886.554 0 .399-.445.668-1.102.668h-.418v1.13h.418c.875 0 1.438.284 1.438.718 0 .36-.379.559-1.066.559a4.333 4.333 0 0 1-1.622-.325l-.347 1.172c.64.305 1.195.434 1.91.434zm5.761 0c1.528 0 2.56-1.246 2.56-3.133 0-1.84-1.016-3.062-2.516-3.062-1.536 0-2.57 1.25-2.57 3.125 0 1.84 1.015 3.07 2.527 3.07zm.036-1.281c-.617 0-1.016-.739-1.016-1.84 0-1.078.399-1.79.988-1.79.598 0 1.008.74 1.008 1.848 0 1.067-.398 1.782-.98 1.782zm0 0"/></g></svg>