<svg xmlns="http://www.w3.org/2000/svg" width="16" height="16"><g fill="#222"><path d="M10.875 10.063a1 1 0 0 0-.5 1.718l3 3c.957.938 2.363-.5 1.406-1.437l-3-3a.998.998 0 0 0-.906-.281zm0 0"/><path d="M6.57.063c-3.578 0-6.5 2.921-6.5 6.5s2.922 6.5 6.5 6.5 6.5-2.922 6.5-6.5-2.922-6.5-6.5-6.5zm0 2c2.5 0 4.5 2.003 4.5 4.5 0 2.5-2 4.5-4.5 4.5-2.496 0-4.5-2-4.5-4.5 0-2.497 2.004-4.5 4.5-4.5zm0 0"/><path d="M4.75 4c-.46 0-.918.184-1.242.508A1.723 1.723 0 0 0 3 5.75c.008.473.223.934.578 1.246L6.5 9.54l3-2.656c.305-.293.488-.711.5-1.133a1.694 1.694 0 0 0-.5-1.246 1.777 1.777 0 0 0-2.324-.133 1.793 1.793 0 0 0-.63.945l-.046.079-.04-.079a1.808 1.808 0 0 0-.632-.945A1.767 1.767 0 0 0 4.75 4zm0 0"/></g></svg>