<svg xmlns="http://www.w3.org/2000/svg" width="16" height="16"><g fill="#222"><path d="M8 1.059c-3.82 0-6.941 3.12-6.941 6.941S4.179 14.941 8 14.941s6.941-3.12 6.941-6.941S11.821 1.059 8 1.059zm0 1.98c2.754 0 4.96 2.207 4.96 4.961S10.755 12.96 8 12.96 3.04 10.755 3.04 8 5.245 3.04 8 3.04zm0 0"/><path fill-opacity=".349" d="m5.738 11.66 3.766-2.664.758-4.656-3.766 2.664zm2.578-2.789a.957.957 0 1 1-.736-1.766.957.957 0 0 1 .736 1.766zm0 0"/><path d="m9.492 9.004.008-.008.762-4.652L6.508 7l.656.438a.947.947 0 0 1 .41-.333.975.975 0 0 1 .735-.003.957.957 0 0 1 .441 1.402zm0 0"/></g></svg>