<svg xmlns="http://www.w3.org/2000/svg" width="16" height="16"><path fill="#222" d="M1.813 0C.808 0 0 1.012 0 2.266v.468c0 .891.406 1.657 1 2.028V10c0 2.2 1.8 4 4 4h5.184A2.998 2.998 0 0 0 13 16a3 3 0 0 0 3-3V4a3 3 0 0 0-3-3H8.48l-.68.96a2.46 2.46 0 0 1-2.019 1.052H3.988A3.23 3.23 0 0 0 4 2.734v-.468C4 1.012 3.191 0 2.187 0zM9.52 3H10v9H5c-1.117 0-2-.883-2-2V5.012h2.781a4.473 4.473 0 0 0 3.657-1.899zM7.906 5A.902.902 0 0 0 7 5.906v.188c0 .504.402.906.906.906h.188A.902.902 0 0 0 9 6.094v-.188A.902.902 0 0 0 8.094 5zm0 0"/></svg>