<svg xmlns="http://www.w3.org/2000/svg" width="16" height="16"><g fill="#222"><path d="M7.992 1c-3.851 0-7 3.145-7 7s3.149 7 7 7c3.856 0 7-3.145 7-7s-3.144-7-7-7zm0 1.992C10.766 2.992 13 5.227 13 8s-2.234 5.008-5.008 5.008c-2.773 0-5.004-2.235-5.004-5.008s2.23-5.008 5.004-5.008zm0 0"/><path fill-opacity=".349" d="M8.008 4A4.002 4.002 0 0 0 5.16 5.188c0 .082.016.164.063.242.097.168.191.332.32.465.098-.301.406-.52.777-.52.313 0 .578.156.715.383.266-.278.516-.606 1.059-.633.902-.043.992.668 1.906.855.59.122 1.125.04 1.441-.03A4.012 4.012 0 0 0 8.008 4zm-.387.422c.086-.012.164.012.203.062.055.07.008.164-.101.211-.11.047-.246.032-.297-.039-.051-.066 0-.164.11-.21a.352.352 0 0 1 .085-.024zm-.601.172a.33.33 0 0 1 .242.11c.086.112.008.273-.172.35-.184.083-.403.051-.488-.062-.086-.113-.008-.273.171-.351a.608.608 0 0 1 .145-.04c.035-.003.066-.007.102-.007zm.492.336c.062-.008.12.011.148.047.04.046 0 .117-.078.148-.078.035-.168.02-.203-.031-.035-.047-.008-.106.07-.14.02-.009.043-.02.063-.024zm.988.906c-.52-.024-.773.402-.816.785-.043.383.972.18.644.75a.847.847 0 0 1-.094.133c-.039.285-.316.508-.652.508a.71.71 0 0 1-.406-.133c-.016.07-.031.152-.04.273-.03.422.266.758.329 1.024.07-.13.129-.27.18-.43.097.399.222.652.347.906.39-.035.7-.226 1.004-.437a5.044 5.044 0 0 1-.668 1.058c.57.22 1.098.168 1.61.004-.36.301-.708.532-1.438.602.527.16 1.113.34 1.844.117-.672.39-1.38.684-2.196.66l.809-.008-1.625.07-.848-.155.032-.376c-.352.04-.746-.16-1.13-.28.344-.153.712-.274.942-.563-.402-.082-.617-.344-.887-.559-.175.215-.304.414-.523.41-.402-.011-.531-.562-.48-.886.05-.32.69-.16.683-.407a.859.859 0 0 0 .195.157c.387.222.864.129 1.059-.211.2-.34.05-.793-.336-1.016-.387-.223-.863-.129-1.059.211a.651.651 0 0 0-.007.633c-.211-.184-.567-.352-.567-.352l-.375-.812A4.001 4.001 0 0 0 8.008 12 4.003 4.003 0 0 0 12 8.363c-.102-.289-.39-1.086-.7-1.265-.019-.012-.038-.016-.062-.024.024.055.032.114.008.156-.039.067-.129.063-.203-.007a.26.26 0 0 1-.086-.164c-.207.07-.36.304-.41.546-.074.368.441.954.441.954-.355 0-.863.027-1.05-.477-.16-.426.156-1.043-.176-1.36 0 0-.742-.859-1.262-.882zm2.281 1.621c.02-.004.031 0 .047 0 .07.004.149.04.223.11.144.136.203.343.133.468s-.239.113-.387-.023c-.145-.137-.203-.344-.133-.469a.171.171 0 0 1 .117-.086zM6.273 9.301a.951.951 0 0 0-.226.039c-.258.078-.426.238-.567.398.372.086.727.278 1.13.164a3.58 3.58 0 0 1-.15-.586 1.4 1.4 0 0 0-.187-.015zm.762.187c.027.047.047.09.078.133a.818.818 0 0 0 .11-.094.49.49 0 0 1-.188-.039zm.36.64c-.391 0-.707.243-.707.536 0 .29.316.524.707.524s.707-.235.707-.524c0-.293-.317-.535-.707-.535zm0 .216c.234 0 .421.144.421.32 0 .172-.187.313-.421.313s-.422-.141-.422-.313c0-.176.187-.32.422-.32zm2.558.226c.07.004.102.09.07.188-.035.094-.117.16-.191.156-.07-.008-.102-.094-.07-.187.035-.098.117-.165.191-.157zm0 0"/></g></svg>