<svg xmlns="http://www.w3.org/2000/svg" width="16" height="16"><path fill="#222" d="M3 0v5c.984-.004 2.113.02 3 0h2L6.187 3.187v-.03c.372-.731 1.254-1.282 2.375-1.282 1.723 0 2.594 1.352 2.594 3.137l.906.015c.551.008 1.028-.547.938-1.09C13 1.684 10.937 0 8.562 0c-1.539 0-2.949.7-3.75 1.812zm3.469 7C6.207 7 6 7.23 6 7.512v.976c0 .282.207.512.469.512H9.53c.262 0 .469-.23.469-.512v-.976C10 7.23 9.793 7 9.531 7zm-2.52 4c-.55-.008-1.027.547-.937 1.086 0 2.258 2.062 3.937 4.437 3.937 1.54 0 2.95-.695 3.75-1.812l1.813 1.812v-5c-.989.008-2.117-.015-3 0h-2l1.812 1.813v.031c-.37.73-1.258 1.281-2.375 1.281-1.726 0-2.594-1.351-2.594-3.136zm0 0"/></svg>