<svg xmlns="http://www.w3.org/2000/svg" width="16" height="16"><path fill="#222" d="M10.11.008a1 1 0 0 0-1.06.676l-.836 2.515c-1.715.547-3.59.957-5.211 2.051C1.242 6.441 0 8.559 0 12v2s-.016.457.23.95C.477 15.437 1.168 16 2 16h2c2.727 0 4.738-1.012 6.094-2.629 1.25-1.496 1.984-3.445 2.68-5.574l2.542-.848a1 1 0 0 0 .391-1.656l-5-5a.99.99 0 0 0-.598-.285zm.328 2.844 2.71 2.71-1.464.489a.995.995 0 0 0-.637.648c-.606 1.903-1.223 3.531-2.012 4.735a14.787 14.787 0 0 0-2.16-3.262.5.5 0 0 0-.754.656c1.313 1.512 1.973 2.89 2.227 3.5C7.355 13.406 6.12 14 4 14H2v-2c0-3.012.844-4.227 2.125-5.094 1.277-.867 3.195-1.265 5.203-1.96a.995.995 0 0 0 .621-.63zM4 10c-.55 0-1 .45-1 1s.45 1 1 1 1-.45 1-1-.45-1-1-1zm0 0"/></svg>