<svg xmlns="http://www.w3.org/2000/svg" width="16" height="16"><g fill="#222"><path d="M12 9v1c0 .266.094.531.281.719l.281.281H.938v2h11.624l-.28.281A1.016 1.016 0 0 0 12 14v1h1c.266 0 .531-.094.719-.281L16 12.438v-.876l-2.281-2.28A1.016 1.016 0 0 0 13 9zm0 0"/><path d="M3 2h5c.547 0 1 .453 1 1v3.926C9 7.516 8.516 8 7.926 8H4.008c-.59 0-1.074-.484-1.078-1.074v.035c.02-.547.488-.98 1.035-.961H10c.55 0 1-.45 1-1s-.45-1-1-1H4h.035A2.995 2.995 0 0 0 .93 6.895v.035A3.07 3.07 0 0 0 4.008 10h3.918A3.067 3.067 0 0 0 11 6.926V3c0-1.664-1.336-3-3-3H3c-.55 0-1 .45-1 1s.45 1 1 1zm0 0"/></g></svg>