<svg xmlns="http://www.w3.org/2000/svg" width="16" height="16"><path fill="#222" d="M10.785 1.082c.559.512 1.223 1.207 2.18 2.168.281.281.39.746.176 1.246a.664.664 0 0 0 .152.719c.262.254.68.254.945 0 .262-.262.793-.086.922.043l.48.48v-.004a.997.997 0 0 1 0 1.418L13.278 9.52c-.39.39-1.027.39-1.418 0l-.46-.524a.667.667 0 0 1 0-.945.667.667 0 0 0 0-.946c-.262-.253-.747-.296-1.012-.043L9.215 8.168 6.773 5.723s.84-.828 1.086-1.067c.618-.625.063-1.152-.21-1.418-.665-.66-2.04-.922-2.977-.883a.676.676 0 0 1-.66-.44.67.67 0 0 1 .234-.763C7-.008 9.7-.008 10.786 1.082zm-2.45 8.035-5.288 5.278c-.371.375-.672.625-1.02.625a2.056 2.056 0 0 1-2-2c0-.532.13-.727.504-1.098l5.297-5.274zm0 0"/></svg>