<svg xmlns="http://www.w3.org/2000/svg" width="16" height="16"><g fill="#222"><path d="M8 0a8 8 0 1 0 0 16A8 8 0 0 0 8 0zm0 2c3.313 0 6 2.688 6 6s-2.688 6-6 6-6-2.688-6-6 2.688-6 6-6zm0 0"/><path d="M7 3v.93c-1.465.261-2.32 1.132-2.32 2.433 0 1.188.726 1.985 2.043 2.215l1.777.313c.805.136 1.117.355 1.117.808 0 .496-.543.785-1.453.785-.934 0-1.707-.324-2.687-1.12l-1.11 1.44A5.807 5.807 0 0 0 7 12.06V13h2v-.922c1.605-.265 2.559-1.2 2.559-2.574 0-1.25-.82-2.043-2.38-2.297l-1.67-.277c-.684-.117-.957-.317-.957-.72 0-.437.492-.702 1.3-.702.856 0 1.63.3 2.485.957L11.383 5c-.645-.52-1.5-.89-2.383-1.055V3zm0 0"/></g></svg>