<svg xmlns="http://www.w3.org/2000/svg" width="16" height="16"><g fill="#2e3436"><path d="M6.988 5.996a1 1 0 1 1-2.001.001 1 1 0 0 1 2.001 0zm0 0"/><path d="M11.969 3C12.539 3 13 3.46 13 4.031v7.938c0 .57-.46 1.031-1.031 1.031H4.03A1.03 1.03 0 0 1 3 11.969V4.03C3 3.461 3.46 3 4.031 3zM1 4.031v7.938A3.024 3.024 0 0 0 4.031 15h7.938A3.024 3.024 0 0 0 15 11.969V4.03A3.024 3.024 0 0 0 11.969 1H4.03A3.024 3.024 0 0 0 1 4.031zm0 0"/><path d="m2.82 12.36 2.32-2.25a.454.454 0 0 1 .637.007l3.864 3.98.718-.695-3.863-3.98a1.448 1.448 0 0 0-2.055-.031l-2.316 2.25zm0 0"/><path d="m7.137 11.11 2.097-2.016a.452.452 0 0 1 .63.008l3.78 3.812.711-.703-3.78-3.813a1.449 1.449 0 0 0-2.036-.023l-2.098 2.016zm0 0"/></g></svg>