<svg xmlns="http://www.w3.org/2000/svg" width="16" height="16"><path fill="#222" d="M12.484 1a.53.53 0 0 0-.484.5V3h-.973v2c0 .918 1 1.684 1.973 1.918v5.441c0 .528-.246.621-.492.621-.25-.003-.508-.109-.508-.668v-.496c0-.004.004-.007.004-.011V9.19c0-.59-.438-1.058-1-1.152V8c0-.082-.012-.164-.031-.242l-1-4A.998.998 0 0 0 9.003 3h-6a1 1 0 0 0-.972.758l-1 4A.839.839 0 0 0 1.004 8v.04c-.566.093-1 .562-1 1.155v2.614c0 .59.434 1.058 1 1.152V14.5c0 .277.223.5.5.5h2c.273 0 .5-.223.5-.5V13h4v1.5c0 .277.5.5.5.5h2s.5-.223.5-.5v-1.54c.035-.007.066-.026.105-.034.227.64.801 1.047 1.387 1.054.75.008 1.504-.648 1.504-1.62v-5.4c.992-.187 2-.991 2-1.96V3h-1V1.5c0-.281-.277-.504-.516-.5a.506.506 0 0 0-.484.5V3h-1V1.5c0-.25-.277-.504-.516-.5zM3.781 5H8.22l.75 3H3.03zm-1.25 4.04c.832 0 1.5.67 1.5 1.5a1.5 1.5 0 1 1-1.5-1.5zm7 0c.832 0 1.5.67 1.5 1.5a1.5 1.5 0 1 1-1.5-1.5zm0 0"/></svg>