<svg xmlns="http://www.w3.org/2000/svg" width="16" height="16"><path fill="#222" d="M7.5 0c-.547 0-.895.094-1.508.406C3.961 1.437 1.97 4.277 1.27 7.125c-.403 1.645-.352 3.383.136 4.805.79 2.304 2.532 3.797 4.801 4.039.676.05 2.086.039 2.555-.043a6.781 6.781 0 0 0 2.539-.973c.476-.305 1.203-1.015 1.515-1.476a6.784 6.784 0 0 0 1.012-2.438 8.706 8.706 0 0 0-.02-3.523c-.605-2.973-2.671-6.024-4.804-7.114C8.39.094 8.043 0 7.5 0zm-.203 1.992c.035 0 .082.008.203.008.316 0 .113-.059.594.188 1.254.636 3.273 3.363 3.754 5.73a6.54 6.54 0 0 1 .02 2.738c-.927 2.348-1.95 3.692-5.458 3.32-1.512-.167-2.531-1-3.113-2.695-.34-.988-.399-2.386-.082-3.68.558-2.292 2.504-4.812 3.687-5.414.301-.152.332-.187.395-.19zm0 0"/></svg>