<svg xmlns="http://www.w3.org/2000/svg" width="16" height="16"><g fill="#222"><path d="M8.098.016c-2.203 0-4 1.796-4 4s1.797 4 4 4c2.199 0 4-1.797 4-4s-1.801-4-4-4zm0 1.972c1.12-.004 2.027.907 2.027 2.028s-.906 2.03-2.027 2.027A2.02 2.02 0 0 1 6.07 4.016a2.02 2.02 0 0 1 2.028-2.028zM12.004 7a4 4 0 0 0-3.95 3.379 4.038 4.038 0 0 0-3.972-3.363c-2.223 0-4.031 1.812-4.031 4.03s1.808 4.032 4.031 4.032a4.045 4.045 0 0 0 3.984-3.414A3.997 3.997 0 0 0 12.004 15 4 4 0 0 0 16 11a4 4 0 0 0-3.996-4zM4.082 9.004c1.129-.004 2.043.914 2.043 2.043s-.914 2.047-2.043 2.043a2.035 2.035 0 0 1-2.043-2.043 2.035 2.035 0 0 1 2.043-2.043zm0 0"/><path fill-opacity=".502" d="M6.91 11a2.813 2.813 0 1 1-5.626-.001A2.813 2.813 0 0 1 6.91 11zm0 0"/></g></svg>