<svg xmlns="http://www.w3.org/2000/svg" width="16" height="16"><path fill="#222" d="M2 0C.902 0 0 .902 0 2c0 .734.406 1.371 1 1.719v8.562c-.594.348-1 .985-1 1.719 0 1.098.902 2 2 2 .734 0 1.371-.406 1.719-1h8.562c.348.594.985 1 1.719 1 1.098 0 2-.902 2-2 0-.734-.406-1.371-1-1.719V3.72c.594-.348 1-.985 1-1.719 0-1.098-.902-2-2-2-.734 0-1.371.406-1.719 1H3.72A1.999 1.999 0 0 0 2 0zm0 1c.559 0 1 .441 1 1s-.441 1-1 1-1-.441-1-1 .441-1 1-1zm12 0c.559 0 1 .441 1 1s-.441 1-1 1-1-.441-1-1 .441-1 1-1zM3.719 3h8.562c.176.297.422.543.719.719v8.562a2.043 2.043 0 0 0-.719.719H3.72a2.043 2.043 0 0 0-.72-.719V3.72c.297-.176.543-.422.719-.719zM5 4c-.555 0-1 .445-1 1v4c0 .555.445 1 1 1h1v.46c0 .845.695 1.54 1.54 1.54h2.92c.845 0 1.54-.695 1.54-1.54V7.54C12 6.694 11.305 6 10.46 6H10V5c0-.555-.445-1-1-1zm5 3h.46c.31 0 .54.23.54.54v2.92c0 .31-.23.54-.54.54H7.54a.526.526 0 0 1-.54-.54V10h2c.555 0 1-.445 1-1zm-8 6c.559 0 1 .441 1 1s-.441 1-1 1-1-.441-1-1 .441-1 1-1zm12 0c.559 0 1 .441 1 1s-.441 1-1 1-1-.441-1-1 .441-1 1-1zm0 0"/></svg>