<svg xmlns="http://www.w3.org/2000/svg" width="16" height="16"><g fill="#222"><path d="M6 5h1a1 1 0 0 1 .555.168l3 2a1 1 0 0 1 0 1.664l-3 2A.996.996 0 0 1 7 11H6zm0 0"/><path d="M10.469 3.57a5.07 5.07 0 0 1-3.48 9.352A5.065 5.065 0 0 1 2.82 7.934a1 1 0 1 0-2 0 7.064 7.064 0 0 0 5.813 6.957 7.068 7.068 0 0 0 4.852-13.04.996.996 0 0 0-1.368.352.996.996 0 0 0 .352 1.367zm0 0"/><path d="M3.41 8.95H.602a.592.592 0 0 1-.512-.29.597.597 0 0 1-.016-.594l1.41-2.644a.551.551 0 0 1 .477-.29c.2 0 .383.106.48.282l1.48 2.664a.575.575 0 0 1-.007.582.584.584 0 0 1-.504.29zm.219-3.56-2.09-1.628a.597.597 0 0 1-.223-.547.59.59 0 0 1 .352-.473l2.375-1.047a.575.575 0 0 1 .8.59l-.312 2.727a.562.562 0 0 1-.902.379zm2.207-2.085L5.566.77a.613.613 0 0 1 .829-.641l2.66 1.008c.18.07.312.234.336.43a.524.524 0 0 1-.223.496L6.766 3.73a.595.595 0 0 1-.93-.426zm0 0"/></g></svg>