<svg xmlns="http://www.w3.org/2000/svg" width="16" height="16"><g fill="#222"><path d="M8.063 0a2.54 2.54 0 0 0-1.25.5C6.324.871 6 1.453 6 2.188c-.004.265.234.507.5.507s.504-.242.5-.507c0-.45.172-.704.438-.907S8.101.981 8.5 1s.785.152 1.063.406.468.586.468 1.125c0 2.164 1.465 3.508 3 3.469.856-.023 1.688-.477 2.25-1.313l-.562-1C14.344 4.603 13.652 4.984 13 5c-.96.023-1.969-.73-1.969-2.469 0-.793-.336-1.445-.812-1.875S9.137.027 8.53 0a3.13 3.13 0 0 0-.469 0zM15 1.969v.156l.781 1.375c.012-.04.02-.082.031-.125zm0 .375c-.008.105-.02.215-.031.312l.719 1.219c.023-.063.042-.121.062-.188zm-.063.5c-.015.09-.042.168-.062.25l.656 1.125c.028-.063.067-.125.094-.188zm-.093.437c-.024.09-.067.168-.094.25l.594 1.031c.039-.066.09-.117.125-.187zm0 0"/><path d="M5 4c-1.11 0-2 .89-2 2v2h3V4zm2 0v4h3V6c0-1.11-.89-2-2-2zM3 9v2.25C3 13.465 4.563 15 6.5 15s3.5-1.535 3.5-3.75V9zm0 0"/></g></svg>