<svg xmlns="http://www.w3.org/2000/svg" width="16" height="16"><path fill="#222" d="M3.012 1c-1.645 0-3 1.355-3 3v6c0 1.645 1.355 3 3 3h.996A.994.994 0 0 0 5 12.008v-.016A.994.994 0 0 0 4.008 11h-.996c-.57 0-1-.43-1-1V4c0-.57.43-1 1-1h8.976c.57 0 1 .43 1 1v.012c0 .547.442.988.989.988H14a.987.987 0 0 0 .988-.988V4c0-1.645-1.355-3-3-3zM9.5 4a4.501 4.501 0 0 0 0 9 4.46 4.46 0 0 0 2.39-.695l2.403 2.402a1 1 0 1 0 1.414-1.414l-2.402-2.398A4.487 4.487 0 0 0 14 8.5C14 6.016 11.984 4 9.5 4zm0 2C10.879 6 12 7.121 12 8.5S10.879 11 9.5 11 7 9.879 7 8.5 8.121 6 9.5 6zm-4.488 8c-1.106 0-2 .895-2 2h10a2 2 0 0 0-2-2zm0 0"/></svg>