<svg xmlns="http://www.w3.org/2000/svg" width="16" height="16"><g fill="#222"><path d="M4.55 1c-1.937 0-3.5 1.563-3.5 3.5S2.614 8 4.55 8h7c1.942 0 3.5-1.563 3.5-3.5S13.493 1 11.55 1zm7 1c1.387 0 2.5 1.113 2.5 2.5 0 1.383-1.113 2.5-2.5 2.5a2.497 2.497 0 0 1-2.5-2.5c0-1.387 1.118-2.5 2.5-2.5zm0 0"/><path fill-opacity=".349" d="M4.55 9c-1.937 0-3.5 1.563-3.5 3.5S2.614 16 4.55 16h7c1.942 0 3.5-1.563 3.5-3.5S13.493 9 11.55 9zm0 1c1.387 0 2.5 1.113 2.5 2.5 0 1.383-1.113 2.5-2.5 2.5a2.497 2.497 0 0 1-2.5-2.5c0-1.387 1.118-2.5 2.5-2.5zm0 0"/></g></svg>