<svg xmlns="http://www.w3.org/2000/svg" width="16" height="16"><path fill="#222" d="M8 0a1.012 1.012 0 0 0-.773.348A1.014 1.014 0 0 0 7 1.164V4h2V2.086a5.982 5.982 0 0 1 4.855 4.613 5.987 5.987 0 0 1-3.32 6.738 5.99 5.99 0 0 1-7.297-1.785 5.99 5.99 0 0 1 .168-7.507 1.002 1.002 0 0 0-1.535-1.29 8.009 8.009 0 0 0-.215 10.012 8.007 8.007 0 0 0 9.727 2.383 8.015 8.015 0 0 0 4.43-8.98A8.01 8.01 0 0 0 8 0zM4.988 3.988a1 1 0 0 0-.695 1.719L6.07 7.484A2 2 0 1 0 7.484 6.07L5.707 4.293a1.008 1.008 0 0 0-.719-.305zm0 0"/></svg>