<svg xmlns="http://www.w3.org/2000/svg" width="16" height="16"><g fill="#222"><path d="M2.715 2.172c-.371.023-.664.422-.488.808L3.25 5.285l1.469-.566.566-1.469L2.98 2.223a.541.541 0 0 0-.265-.047zm10.558.004a.505.505 0 0 0-.25.05L10.715 3.25l.566 1.469 1.473.566 1.023-2.305a.575.575 0 0 0-.504-.804zm-.523 8.539-1.469.566-.566 1.469 2.308 1.027c.477.211.965-.28.754-.757zm-9.5 0L2.227 13.02c-.215.476.277.968.753.757l2.305-1.023-.566-1.473zm0 0"/><path d="M8.004 0a.567.567 0 0 0-.535.367l-1.973 5.13L.367 7.468a.568.568 0 0 0 0 1.062l5.13 1.973 1.972 5.129a.571.571 0 0 0 1.066 0l1.973-5.13 5.125-1.972a.568.568 0 0 0 0-1.062l-5.125-1.973L8.535.367A.575.575 0 0 0 8.004 0zM8 7c.55 0 1 .45 1 1s-.45 1-1 1-1-.45-1-1 .45-1 1-1zm0 0"/></g></svg>