<svg xmlns="http://www.w3.org/2000/svg" width="16" height="16"><path fill="#222" d="M8 0 7 2a5.375 5.375 0 0 1 2 0zM2.344 2.344l.707 2.12a5.404 5.404 0 0 1 1.414-1.413zm11.312 0-2.12.707a5.404 5.404 0 0 1 1.413 1.414zM8 3C5.25 3 3 5.25 3 8c0 1.785.957 3.363 2.375 4.25a3.42 3.42 0 0 1 .531-.188c.23-1.816 1.719-3.25 3.594-3.25 1.004 0 1.84.473 2.5 1.126.176-.036.309-.126.5-.126.043 0 .082-.003.125 0C12.848 9.246 13 8.646 13 8c0-2.75-2.25-5-5-5zM2 7 0 8l2 1a5.375 5.375 0 0 1 0-2zm12 0c.137.71.113 1.371 0 2l2-1zm-4.5 3A2.502 2.502 0 0 0 7 12.5c0 .219.043.422.094.625A1.582 1.582 0 0 0 6.5 13a1.5 1.5 0 0 0 0 3h8a1.5 1.5 0 0 0 0-3 2 2 0 0 0-2-2 2 2 0 0 0-.875.219A2.473 2.473 0 0 0 9.5 10zm-6.45 1.535-.706 2.121 2.12-.707a5.404 5.404 0 0 1-1.413-1.414zm0 0"/></svg>