<svg xmlns="http://www.w3.org/2000/svg" width="16" height="16"><path fill="#222" d="M7.492.492A.499.499 0 0 0 7 1v1.531l-1.25-.715a.5.5 0 0 0-.516-.011.495.495 0 0 0-.254.445c.004.184.11.348.27.434l1.75 1v3.449L4.012 5.406l.008-2.011a.5.5 0 1 0-.997-.004l-.007 1.441-1.329-.766a.497.497 0 0 0-.69.184v.004a.495.495 0 0 0 .19.68l1.329.765-1.246.727a.498.498 0 0 0-.012.883.5.5 0 0 0 .515-.02l1.739-1.016L6.5 8 3.512 9.723 1.773 8.71a.5.5 0 0 0-.515-.02.498.498 0 0 0 .012.883l1.246.727-1.329.765a.5.5 0 0 0-.183.692v.004c.14.238.445.312.683.172l1.329-.766.007 1.441a.497.497 0 1 0 .996-.004l-.007-2.015L7 8.867v3.5l-1.746.988a.499.499 0 0 0-.191.68.504.504 0 0 0 .683.192L7 13.516V15a.5.5 0 1 0 1 0v-1.484l1.254.71a.499.499 0 1 0 .492-.871L8 12.367v-3.5l3.031 1.75-.02 2.008a.502.502 0 0 0 .754.45.49.49 0 0 0 .247-.442l.015-1.442 1.285.743a.503.503 0 0 0 .684-.184.503.503 0 0 0-.184-.684l-1.285-.742 1.243-.73a.5.5 0 0 0-.508-.86l-1.73 1.016L8.5 8l3.031-1.75 1.73 1.02a.503.503 0 0 0 .77-.426.505.505 0 0 0-.261-.438l-1.243-.73 1.285-.742a.503.503 0 0 0 .184-.684.503.503 0 0 0-.684-.184l-1.285.743-.015-1.442a.5.5 0 1 0-1 .012l.02 2.004L8 7.133v-3.45l1.746-1a.497.497 0 0 0 .02-.878.5.5 0 0 0-.516.011L8 2.531V1a.504.504 0 0 0-.145-.363.504.504 0 0 0-.363-.145zm0 0"/></svg>