<svg xmlns="http://www.w3.org/2000/svg" width="16" height="16"><path fill="#222" d="M3 0C1.355 0 0 1.355 0 3s1.355 3 3 3h7V4c0-.555.445-1 1-1s1 .445 1 1v2h1c1.645 0 3-1.355 3-3s-1.355-3-3-3zm6 9v.5s0 .5.5.5.5-.5.5-.5V6h2v5.5c0 .5.5.5.5.5l1.793-1.707c.187-.195.445-.3.719-.305 1.082.086 1.144 1.27.695 1.719l-3 3C12 15.5 10.949 15.997 10 16H4c-3 0-3-3-3-3V8.945c0-.554.445-1 1-1s1 .446 1 1V9.5s0 .5.5.5.5-.5.5-.5V9c0-.555.445-1 1-1s1 .445 1 1v.5s0 .5.5.5.5-.5.5-.5V9c0-.555.453-.992 1-1 .586-.012 1 .445 1 1zm0 0"/></svg>