<svg xmlns="http://www.w3.org/2000/svg" width="16" height="16"><path fill="#222" d="M2.977 1A1.974 1.974 0 0 0 1 2.977v10.05C1 14.117 1.883 15 2.977 15h10.05c1.09 0 1.973-.883 1.973-1.973V2.977A1.973 1.973 0 0 0 13.027 1zM3 3h1.031c.254.012.512.129.688.313l3.261 3.28 3.332-3.28c.266-.231.446-.305.688-.313h1v1c0 .285-.035.55-.25.75l-3.3 3.281 3.269 3.25c.187.188.281.453.281.719v1h-1c-.266 0-.531-.094-.719-.281l-3.3-3.281-3.262 3.28A1.016 1.016 0 0 1 4 13H3v-1c0-.266.094-.531.281-.719l3.262-3.25L3.281 4.75A.904.904 0 0 1 3 4zm0 0"/></svg>