<svg xmlns="http://www.w3.org/2000/svg" width="16" height="16"><g fill="#222"><path d="M2.992 9a1.03 1.03 0 0 0-.719.281l-2.28 2.281v.876l2.28 2.28c.192.188.457.282.72.282h1v-1a1 1 0 0 0-.282-.719L3.43 13h11.547v-2H3.43l.28-.281A.983.983 0 0 0 3.993 10V9zm0 0"/><path d="M7 2h5c.547 0 1 .453 1 1v3.926C13 7.516 12.516 8 11.926 8H8.008c-.59 0-1.074-.484-1.078-1.074v.035c.02-.547.488-.98 1.035-.961H14c.55 0 1-.45 1-1s-.45-1-1-1H8h.035A2.994 2.994 0 0 0 4.93 6.89v.04A3.07 3.07 0 0 0 8.008 10h3.918A3.067 3.067 0 0 0 15 6.926V3c0-1.664-1.336-3-3-3H7c-.55 0-1 .45-1 1s.45 1 1 1zm0 0"/></g></svg>