<svg xmlns="http://www.w3.org/2000/svg" width="16" height="16"><g fill="#222"><path d="M3 0c-.578 0-1.059.2-1.469.563-.203.183-.39.417-.5.75s-.113.773.063 1.125l1 2c.09.175.203.425.375.687.242-.074.496-.125.75-.125h9.562c.258 0 .512.05.75.125.172-.262.29-.512.375-.688l1-2c.176-.351.172-.792.063-1.124s-.297-.567-.5-.75A2.14 2.14 0 0 0 13 0zm.125 2h9.75l-.781 1.563c-.117.238-.176.37-.219.437h-7.75c-.043-.066-.102-.2-.219-.438zM4 6a2.1 2.1 0 0 0-1.313.438C2.313 6.73 2 7.218 2 7.78V16h12V7.781c0-.562-.309-1.05-.688-1.343A2.092 2.092 0 0 0 12 6zm0 1h8v6H4zm7 7h1v1h-1zm0 0"/><path fill-opacity=".502" d="M3 4h10V2H3zm0 0"/><path fill-opacity=".349" d="M5 8.031h6V9l-6 1zm0 0"/></g></svg>