<svg xmlns="http://www.w3.org/2000/svg" width="16" height="16"><path fill="#2e3436" d="M4.035.012c-.55 0-1 .449-1 1v2.175a3.011 3.011 0 0 0-2.023 2.848v.977h2v-.977c0-.566.457-1.023 1.023-1.023h7.957c.567 0 1.02.457 1.02 1.023v3.961c0 .563-.453 1.016-1.02 1.016h-.98v2h.98a3.008 3.008 0 0 0 3.02-3.016v-3.96a3.007 3.007 0 0 0-2-2.84V1.011a1 1 0 1 0-2 0v2h-2v-2a1 1 0 1 0-2 0v2H5.035v-2c0-.551-.45-1-1-1zm.977 7v2c-2.211 0-4 1.789-4 4v2a1 1 0 1 0 2 0v-2c0-1.098.902-2 2-2v2h1v-.004c.265 0 .52-.102.707-.29l2-2a1 1 0 0 0 0-1.413l-2-2a.992.992 0 0 0-.707-.285v-.008zm0 0"/></svg>