<svg xmlns="http://www.w3.org/2000/svg" width="16" height="16"><path fill="#222" d="M7.957 2a5.177 5.177 0 0 0-.809.07A6.046 6.046 0 0 0 3.18 4.414 5.916 5.916 0 0 0 2 8h2.004c0-.832.254-1.672.797-2.398 1.336-1.778 3.82-2.114 5.597-.782.43.32.77.735 1.032 1.188H9.992c-.55 0-1 .449-1 1v1h6v-6h-1c-.55 0-1 .449-1 1v1.687A5.97 5.97 0 0 0 7.953 2zm.078 13.008a5.504 5.504 0 0 0 .809-.07 6.03 6.03 0 0 0 3.968-2.344 5.916 5.916 0 0 0 1.18-3.586h-2.004a4.026 4.026 0 0 1-.797 2.398c-1.336 1.778-3.82 2.114-5.597.781-.43-.32-.77-.734-1.031-1.187H6c.55 0 1-.45 1-1V9H1v6h1c.55 0 1-.45 1-1v-1.688a5.969 5.969 0 0 0 5.035 2.696zm0 0"/></svg>