<svg xmlns="http://www.w3.org/2000/svg" width="16" height="16"><path fill="#222" d="M10.883.102c-.375.007-.766.07-1.156.187L1.852 2.262c-.13.031-.25.09-.36.168-.21.164-.574.363-.918.789C.23 3.64 0 4.277 0 5v8c0 1.645 1.355 3 3 3h10c1.645 0 3-1.355 3-3V7c0-1.293-.84-2.406-2-2.824V2.969c-.031-.98-.527-1.899-1.344-2.41a3.124 3.124 0 0 0-1.39-.446 3.11 3.11 0 0 0-.383-.011zm.031 1.992c.309-.008.527.066.684.164.246.152.39.375.402.773V4H3.137l7.074-1.77c.02-.007.039-.011.055-.015.25-.078.464-.113.648-.117zM3 6h10c.57 0 1 .43 1 1v6c0 .57-.43 1-1 1H3c-.57 0-1-.43-1-1V7c0-.57.43-1 1-1zm9 3c-.55 0-1 .45-1 1s.45 1 1 1 1-.45 1-1-.45-1-1-1zm0 0"/></svg>