<svg xmlns="http://www.w3.org/2000/svg" width="16" height="16"><path fill="#222" d="M2.992 1a2.998 2.998 0 0 0-3 3v8a3.005 3.005 0 0 0 3 3h10c1.645 0 3-1.355 3-3V4c0-1.07-.574-2.063-1.5-2.598a3.004 3.004 0 0 0-3 0A3.005 3.005 0 0 0 9.992 4v1h-4V1zm0 2h1v6h-1c-.347 0-.683.066-1 .176V4a1 1 0 0 1 1-1zm10 0c.172 0 .344.047.5.137.313.175.5.504.5.863v5.188a2.95 2.95 0 0 0-1-.188 2.95 2.95 0 0 0-1 .188V4c0-.36.188-.688.5-.863.156-.09.328-.137.5-.137zm-7 4h4v5c0 .352.07.684.184 1H2.992a.994.994 0 0 1-.867-.5 1.014 1.014 0 0 1 0-1c.18-.313.508-.5.867-.5h3zm7 4c.563 0 1 .438 1 1s-.437 1-1 1-1-.438-1-1 .438-1 1-1zm0 0"/></svg>