<svg xmlns="http://www.w3.org/2000/svg" width="16" height="16"><g fill="#222"><path d="M8.594 1A7.504 7.504 0 0 1 16 8.5a7.504 7.504 0 0 1-5.559 7.242 7.505 7.505 0 0 1-8.437-3.492 1.002 1.002 0 0 1 1.734-1 5.493 5.493 0 0 0 6.188 2.562C12.332 13.168 14 10.996 14 8.5s-1.668-4.668-4.074-5.313A5.493 5.493 0 0 0 3.738 5.75a1.146 1.146 0 0 1-.203.23l.02.012.008.008H4c.55 0 1 .45 1 1v1H0V3h1c.55 0 1 .45 1 1v.687l.016.012.011.012a7.514 7.514 0 0 1 6.567-3.707zm0 0"/><path d="M6 8h5.004c.539 0 .996.55.996 1v3H5V9.016C5 8.504 5.523 8 6 8zm0 0"/><path d="M8.484 3.977C7.133 3.997 6 5.297 6 7v2h2V7c0-.953.367-1.023.516-1.023C8.664 5.973 9 5.992 9 7h2c0-1.738-1.164-3.047-2.516-3.023zm0 0"/></g></svg>