<svg xmlns="http://www.w3.org/2000/svg" width="16" height="16"><g fill="#222"><path d="M4.2 4.012A2.218 2.218 0 0 0 2 6.219v5.574C2 12.993 2.992 14 4.2 14h7.581c1.207 0 2.2-1.008 2.2-2.207V6.219c0-1.203-.993-2.207-2.2-2.207zm0 2h7.581c.121 0 .2.07.2.207v5.574c0 .137-.079.207-.2.207H4.2c-.12 0-.2-.07-.2-.207V6.219c0-.137.078-.207.2-.207zm0 0"/><path d="M3.977.027c-.551 0-1 .45-1 1 0 .535.421.973.953.996l3.394 3.395.653-.652.648.652 3.39-3.39c.551 0 1-.45 1-1 0-.551-.449-1-1-1s-1 .449-1 1a.96.96 0 0 0 .122.464l-3.16 3.16L4.844 1.52a.99.99 0 0 0 .133-.493c0-.55-.45-1-1-1zm1.503 6.93a.599.599 0 0 0-.437.18.594.594 0 0 0 0 .843L6.063 9l-1.02 1.02a.599.599 0 0 0 .848.844l1.441-1.438a.604.604 0 0 0 0-.852L5.891 7.137a.619.619 0 0 0-.41-.18zM8 10v1h3v-1zm0 0"/></g></svg>