<svg xmlns="http://www.w3.org/2000/svg" width="16" height="16"><g fill="#222"><path d="M4 0C2.992.004 3 1 3 1v13c0 2 2.004 2 2.004 2h7c2 0 2-2 2-2V4s0-2-2-2h-6.75c-.25 0-.25-.25-.25-.25L5 1S4.992.004 4 0zm1.004 4.25c0-.25.25-.25.25-.25h6.5s.25 0 .25.25v9.5c0 .25-.25.25-.25.25h-6.5c-.25 0-.254-.277-.254-.277zm0 0"/><path d="M6.004 5.25c0-.25.25-.25.25-.25h4.5s.25 0 .25.25v2.5c0 .25-.25.25-.25.25h-4.5C6.004 8 6 7.723 6 7.723zM6.254 9h1.5c.137 0 .25.113.25.25v.5c0 .137-.113.25-.25.25h-1.5a.25.25 0 0 1-.25-.25v-.5c0-.137.11-.25.25-.25zm3 0h1.5c.137 0 .25.113.25.25v.5c0 .137-.113.25-.25.25h-1.5a.25.25 0 0 1-.25-.25v-.5c0-.137.11-.25.25-.25zm-3 2h1.5c.137 0 .25.113.25.25v.5c0 .137-.113.25-.25.25h-1.5a.25.25 0 0 1-.25-.25v-.5c0-.137.11-.25.25-.25zm3 0h1.5c.137 0 .25.113.25.25v.5c0 .137-.113.25-.25.25h-1.5a.25.25 0 0 1-.25-.25v-.5c0-.137.11-.25.25-.25zm0 0"/></g></svg>