<svg xmlns="http://www.w3.org/2000/svg" width="16" height="16"><path fill="#222" d="M1 3v10c0 1.375 1.02 2.027 1.969 2.016.808-.012 1.328-.309 2.023-.707l8.903-5.09c.433-.239.656-.73.656-1.223 0-.492-.223-.984-.656-1.226L5.008 1.695c-.75-.433-1.281-.703-1.996-.68C2.043 1.04 1 1.599 1 3zm1.973 1.992L2.98 5H3v.023l.5.5.5-.5V5h.027l.004-.008L4.04 5H5v.969l.02.015-.528.528L4.98 7H5v.02l.02.015-.02.02V8h-.941l-.028.027L4.004 8H4v-.004L3.5 7.5l-.527.527L2.945 8H2v-.945l-.02-.02L2 7.02V7h.02l.488-.488-.528-.524.02-.02V5h.965zm3.968 0L6.95 5h.02v.023l.504.5.496-.496V5h.027L8 4.992 8.008 5h.96v.969l.02.015-.527.528.492.488h.016v.016l.02.02-.02.019V8h-.942L8 8.027 7.973 8h-.004v-.004l-.5-.496-.528.527L6.914 8H5.97v-.945l-.02-.02.02-.015V7h.02l.488-.488-.528-.524.02-.02V5h.965zM2 9h7v1H6v1.668C6 12.406 5.332 13 4.5 13S3 12.406 3 11.668V10H2zm0 0"/></svg>