<svg xmlns="http://www.w3.org/2000/svg" width="16" height="16"><path fill="#222" d="M1.531.469.47 1.53l14 14 1.062-1.062-1.945-1.946A2.958 2.958 0 0 0 15 10V4c0-1.66-1.34-3-3-3H4c-.555 0-1.07.16-1.516.422zM4.063 3h.199l-.098.098zm2.675 0h.7L5.75 4.688l-.352-.352zm2.825 0h1.23L7.426 6.363l-.614-.613zm2.609.035a.969.969 0 0 1 .715.524L8.754 7.69l-.617-.617zM1 4.06V10c0 1.66 1.34 3 3 3h5.941l-2-2H6.156l.895-.895-.356-.355L5.445 11H4.207l1.867-1.867-.707-.707-2.16 2.156A.976.976 0 0 1 3 10v-.438l1.75-1.75L3.688 6.75 3 7.437v-.699l.34-.34zm12 .093V10a.99.99 0 0 1-.95.988L9.11 8.047zM8 14c-5 0-5 1-5 1 0 1 1 1 1 1h8c.328 0 .54-.11.688-.254L11.145 14.2c-.73-.114-1.72-.2-3.145-.2zm0 0"/></svg>