<svg xmlns="http://www.w3.org/2000/svg" width="16" height="16"><path fill="#222" d="M8 0c-.555 0-1 .445-1 1v1c0 .555.445 1 1 1s1-.445 1-1V1c0-.555-.445-1-1-1zM3.004 2.004a1 1 0 0 0-.707 1.707l.707.707a.993.993 0 0 0 1.414 0 .993.993 0 0 0 0-1.414l-.707-.707a.993.993 0 0 0-.707-.293zm9.988 0c-.254 0-.508.098-.707.293l-.707.707a1 1 0 0 0 0 1.414.993.993 0 0 0 1.414 0l.707-.707a.993.993 0 0 0 0-1.414.993.993 0 0 0-.707-.293zM8 4C5.79 4 4 5.79 4 8s1.79 4 4 4 4-1.79 4-4-1.79-4-4-4zm0 2a2 2 0 1 1-2 2 2 2 0 0 1 2-2zM1 7c-.555 0-1 .445-1 1s.445 1 1 1h1c.555 0 1-.445 1-1s-.445-1-1-1zm13 0c-.555 0-1 .445-1 1s.445 1 1 1h1c.555 0 1-.445 1-1s-.445-1-1-1zM3.664 11.285c-.238.012-.473.11-.66.293l-.707.707a1 1 0 0 0 0 1.414.993.993 0 0 0 1.414 0l.707-.707a.993.993 0 0 0 0-1.414 1.005 1.005 0 0 0-.754-.293zm8.574 0a1 1 0 0 0-.66 1.707l.707.707a.993.993 0 0 0 1.414 0 .993.993 0 0 0 0-1.414l-.707-.707a1.005 1.005 0 0 0-.754-.293zM7.945 13A1 1 0 0 0 7 14v1c0 .555.445 1 1 1s1-.445 1-1v-1c0-.555-.445-1-1-1h-.055zm0 0"/></svg>