<svg xmlns="http://www.w3.org/2000/svg" width="16" height="16"><g fill="#222"><path d="M6.988 0v.512c0 .824.676 1.5 1.5 1.5h3c.282 0 .5.218.5.5a.49.49 0 0 1-.5.5h-7c-.824 0-1.5.68-1.5 1.5 0 .824.676 1.5 1.5 1.5h4c.282 0 .5.218.5.5V7h1v-.488c0-.82-.68-1.5-1.5-1.5h-4a.489.489 0 0 1-.5-.5c0-.282.215-.5.5-.5h7c.82 0 1.5-.676 1.5-1.5 0-.82-.68-1.5-1.5-1.5h-3a.489.489 0 0 1-.5-.5V0zM8 13c-1.66 0-3 1.34-3 3h6c0-1.66-1.34-3-3-3zm0 0"/><path d="M8 15c-3.879 0-7-3.121-7-7h14c0 3.879-3.121 7-7 7zm0 0"/></g></svg>