<svg xmlns="http://www.w3.org/2000/svg" width="16" height="16"><g fill="#222"><path d="M7.996 0C5.16 0 2.703 2 2.125 4.777c-.527 2.536.688 5.035 2.871 6.328L5 12a1 1 0 0 0 1 1h4a1 1 0 0 0 1-1v-.898c2.184-1.293 3.402-3.797 2.871-6.332A6.011 6.011 0 0 0 7.996 0zm0 2a3.994 3.994 0 0 1 3.918 3.18 3.999 3.999 0 0 1-2.312 4.488 1.002 1.002 0 0 0-.602.914V11H6.996v-.418a.997.997 0 0 0-.598-.914c-1.742-.762-2.703-2.625-2.316-4.484S6.094 2 7.996 2zM6 15c0 .555.445 1 1 1h2c.555 0 1-.445 1-1v-1H6zm0 0"/><path fill-opacity=".502" d="M6.645 6.145a.505.505 0 0 0 0 .71l1 1a.507.507 0 0 0 .707 0l1-1a.505.505 0 0 0 0-.71.507.507 0 0 0-.707 0l-.649.648-.644-.648a.507.507 0 0 0-.707 0zm0 0"/></g></svg>