<svg xmlns="http://www.w3.org/2000/svg" width="16" height="16"><path fill="#222" d="M10 3a4 4 0 0 0-3.629 2.332A3 3 0 0 0 2 8c0 .348.062.695.184 1.023A2.496 2.496 0 0 0 0 11.5C0 12.879 1.121 14 2.5 14H13a2.996 2.996 0 0 0 .84-5.875A3.998 3.998 0 0 0 10 3zm0 2h.004C11.129 5 12 5.871 12 7c0 .188-.027.375-.078.559a1.999 1.999 0 0 0 1.36 2.484A.98.98 0 0 1 14 11a.97.97 0 0 1-1 1H2.5c-.3 0-.5-.2-.5-.5 0-.266.172-.457.438-.492a2.005 2.005 0 0 0 1.624-2.672A.9.9 0 0 1 4 8v-.004C4 7.422 4.422 7 5 7c.156 0 .313.04.453.11a1.996 1.996 0 0 0 2.734-.946A1.989 1.989 0 0 1 10 5zm0 0"/></svg>