<svg xmlns="http://www.w3.org/2000/svg" width="16" height="16"><path fill="#222" d="M11 1c-.773 0-1.453.45-1.781 1.098-.637.125-1.266.27-1.867.441-1.391.398-2.676.93-3.68 1.8a4.816 4.816 0 0 0-1.282 1.76C1.586 6.355 1 7.113 1 8s.586 1.64 1.39 1.902c.29.688.735 1.286 1.282 1.762 1.004.867 2.289 1.402 3.68 1.8.601.173 1.23.313 1.867.442A2.013 2.013 0 0 0 11 15c.531 0 1.02-.21 1.379-.555.914.133 1.812.262 2.621.403v-2.032a92.043 92.043 0 0 0-2.063-.32A2.011 2.011 0 0 0 11 11a2 2 0 0 0-1.656.883c-.5-.102-.989-.215-1.446-.344-1.234-.352-2.261-.82-2.914-1.387a2.809 2.809 0 0 1-.605-.707C4.758 9.082 5 8.566 5 8s-.238-1.078-.621-1.441c.152-.258.348-.489.605-.707.653-.57 1.68-1.036 2.914-1.387.457-.133.946-.242 1.45-.344.359.527.968.879 1.652.879.926 0 1.71-.637 1.938-1.492.695-.106 1.394-.211 2.062-.32V1.155c-.809.137-1.707.266-2.617.403A2.007 2.007 0 0 0 11 1zm0 1c.559 0 1 .441 1 1s-.441 1-1 1-1-.441-1-1 .441-1 1-1zM3 7c.559 0 1 .441 1 1s-.441 1-1 1-1-.441-1-1 .441-1 1-1zm8 5c.559 0 1 .441 1 1s-.441 1-1 1-1-.441-1-1 .441-1 1-1zm0 0"/></svg>