<svg xmlns="http://www.w3.org/2000/svg" width="16" height="16"><g fill="#2e3436"><path d="M7.996 12a2 2 0 0 0-1.715.973H2.996a1 1 0 1 0 0 2h3.246a2.009 2.009 0 0 0 1.754 1.039 2.007 2.007 0 0 0 1.75-1.04h3.262c.55 0 1-.449 1-1 0-.55-.45-1-1-1H9.715A2.011 2.011 0 0 0 7.996 12zm0 1C8.551 13 9 13.45 9 14.008c0 .555-.45 1.004-1.004 1.004a1.005 1.005 0 1 1 0-2.012zM3.027 5.012A3.026 3.026 0 0 0 .016 8.023a3.026 3.026 0 0 0 3.011 3.012h9.961A3.026 3.026 0 0 0 16 8.023a3.026 3.026 0 0 0-3.012-3.011zm0 2h9.961A.988.988 0 0 1 14 8.023a.988.988 0 0 1-1.012 1.012h-9.96a.988.988 0 0 1-1.012-1.012.988.988 0 0 1 1.011-1.011zm0 0"/><path d="M3.027 0A3.026 3.026 0 0 0 .016 3.012a3.026 3.026 0 0 0 3.011 3.011h9.961A3.026 3.026 0 0 0 16 3.012 3.026 3.026 0 0 0 12.988 0zm0 2h9.961C13.566 2 14 2.434 14 3.012s-.434 1.011-1.012 1.011h-9.96c-.579 0-1.012-.433-1.012-1.011S2.449 2 3.027 2zm3.965 8H9v3H6.992zm0 0"/><path d="M3 1c-1.098 0-2 .902-2 2s.902 2 2 2 2-.902 2-2-.902-2-2-2zm0 1c.559 0 1 .441 1 1s-.441 1-1 1-1-.441-1-1 .441-1 1-1zm0 4c-1.098 0-2 .902-2 2s.902 2 2 2 2-.902 2-2-.902-2-2-2zm0 1c.559 0 1 .441 1 1s-.441 1-1 1-1-.441-1-1 .441-1 1-1zm0 0"/></g></svg>