<svg xmlns="http://www.w3.org/2000/svg" width="16" height="16"><g fill="#222"><path d="M3.742.004c-.953.004-1.75.8-1.75 1.75V7.25c0 .953.797 1.75 1.75 1.75h.75s.5.008.5.508c0 .492-.5.492-.5.492h-.5v1.992h8v-2h-.5s-.5.008-.5-.492.5-.508.5-.508h.75c.953 0 1.75-.797 1.75-1.75V1.75c0-.953-.797-1.75-1.75-1.75zm.25 2 8-.004v4.992l-8 .008zm0 0"/><path fill-rule="evenodd" d="M6.96 10.004 6.993 14h-5.5c-.277 0-.5.223-.5.5v1c0 .277.223.5.5.5h13c.278 0 .5-.223.5-.5v-1c0-.277-.222-.5-.5-.5h-5.5v-4zm0 0"/></g></svg>