<svg xmlns="http://www.w3.org/2000/svg" width="16" height="16"><path fill="#222" d="M3.496 4.008a3.5 3.5 0 1 0 3.16 5H9.34a3.488 3.488 0 0 0 3.156 2 3.5 3.5 0 1 0 0-7c-.137.004-.27.012-.402.027-.047-.012-.09-.027-.14-.027H4.038c-.047 0-.09.015-.133.027a3.616 3.616 0 0 0-.41-.027zm7.5 1a1 1 0 1 1 .001 2.001 1 1 0 0 1 0-2.001zm-7.867 1h.734c.074 0 .133.058.133.133v.867h.867c.074 0 .133.058.133.133v.734a.132.132 0 0 1-.133.133h-.867v.867a.132.132 0 0 1-.133.133H3.13a.132.132 0 0 1-.133-.133v-.867H2.13a.132.132 0 0 1-.133-.133v-.734c0-.075.059-.133.133-.133h.867V6.14c0-.075.059-.133.133-.133zm9.867 1a1 1 0 1 1 .001 2.001 1 1 0 0 1 0-2.001zm0 0"/></svg>