<svg xmlns="http://www.w3.org/2000/svg" width="16" height="16"><g fill="#222"><path fill-opacity=".349" d="M10 1v1c0 .258.129.527.313.719L11.592 4H8.23a4.03 4.03 0 0 1 3.27 2h.125l-.074.078c.27.496.449 1.047.484 1.649v.054c0 .266-.02.516-.05.762L15.405 5 11.75 1.281C11.55 1.09 11.309 1 11 1zM7 4c-.293-.004-.559.148-.746.371.414-.2.871-.32 1.348-.371zM4.07 7.406.594 11l3.656 3.719c.2.191.441.281.75.281h1v-1c0-.258-.129-.527-.313-.719L4.407 12h1.968a1.705 1.705 0 0 1-.336-1.04c0-.355.074-.67.18-.96H4.375l.98-1.031H4.09l-.05-.942c-.017-.214.007-.418.026-.62zm0 0"/><path d="M7.848 4.969c1.644-.094 3.097 1.172 3.187 2.812 0 1.403-.379 1.922-1.594 2.844-.191.145-.324.25-.375.313-.05.062-.03.03-.03.03.007.528-.473 1-1 1s-1.009-.472-1-1c0-.503.226-.945.468-1.25a3.86 3.86 0 0 1 .719-.687c.203-.16.46-.383.687-.656.094-.113.13-.309.125-.438v-.03c-.031-.563-.5-.97-1.062-.938s-.97.437-.938 1h-2c-.09-1.64 1.172-2.907 2.813-3zm.187 8c.55 0 1 .449 1 1s-.45 1-1 1-1-.45-1-1 .45-1 1-1zm0 0"/></g></svg>