<svg xmlns="http://www.w3.org/2000/svg" width="16" height="16"><path fill="#222" d="M3 0a2.01 2.01 0 0 0-1.719.98C.81.988.36 1 0 1v2c.332 0 .813-.004 1.266-.012C1.609 3.594 2.262 4 3 4s1.387-.406 1.734-1.008c1.172.035 2.297.13 3.137.352.078.02.149.043.219.062a1.998 1.998 0 0 0 .648 2.14c-.297.474-.75 1.052-1.445 1.747-.613.613-1.117 1.18-1.512 1.719A2.01 2.01 0 0 0 4 11a2 2 0 0 0 .937 1.688c.192.437.504.812.86 1.082.531.406 1.152.644 1.824.824 1.11.289 2.402.402 3.672.445.352.574.988.961 1.707.961a2.01 2.01 0 0 0 1.719-.98c.472-.008.922-.02 1.281-.02v-2c-.332 0-.813.004-1.262.012-.347-.606-1-1.012-1.738-1.012s-1.387.406-1.734 1.008c-1.172-.035-2.297-.13-3.137-.352a4.136 4.136 0 0 1-.711-.25 1.987 1.987 0 0 0 .25-2.508c.262-.351.59-.742 1.039-1.191 1.098-1.098 1.852-2.05 2.242-2.95l.004-.003C11.574 5.414 12 4.754 12 4c0-1.098-.902-2-2-2-.043 0-.086 0-.129.004-.453-.274-.957-.453-1.492-.594-1.11-.293-2.399-.406-3.672-.445A2.002 2.002 0 0 0 3 0zm0 1c.559 0 1 .441 1 1s-.441 1-1 1-1-.441-1-1 .441-1 1-1zm7 2c.559 0 1 .441 1 1s-.441 1-1 1-1-.441-1-1 .441-1 1-1zm-4 7c.559 0 1 .441 1 1s-.441 1-1 1-1-.441-1-1 .441-1 1-1zm7 3c.559 0 1 .441 1 1s-.441 1-1 1-1-.441-1-1 .441-1 1-1zm0 0"/></svg>