<svg xmlns="http://www.w3.org/2000/svg" width="16" height="16"><g fill="#222"><path d="M10.8 0H5a1 1 0 0 0-.707.293L.191 4.395a1 1 0 0 0-.293.707v5.796a1 1 0 0 0 .293.707l4.102 4.102A1 1 0 0 0 5 16h5.797c.265 0 .523-.105.71-.293l4.102-4.102a.996.996 0 0 0 .29-.707V5.102a1 1 0 0 0-.294-.707L11.508.293A1 1 0 0 0 10.8 0zm-.417 2 3.515 3.516v4.968L10.387 14H5.414l-3.516-3.516V5.516L5.414 2zm0 0"/><path d="M6.895 4h2v3l-.25 2h-1.47l-.28-2zm1 5.75a1.251 1.251 0 1 1-.003 2.502 1.251 1.251 0 0 1 .003-2.502zm0 0"/></g></svg>