<svg xmlns="http://www.w3.org/2000/svg" width="16" height="16"><g fill="#222"><path d="M3 1C1.34 1 0 2.34 0 4v7c0 1.66 1.34 3 3 3h10c1.664 0 3-1.34 3-3V4c0-1.66-1.336-3-3-3zm0 2h10c.555 0 1 .445 1 1v7c0 .555-.445 1-1 1H3c-.555 0-1-.445-1-1V4c0-.555.445-1 1-1zm5 13c3 0 4-1 4-1H4s1 1 4 1zm0 0"/><path d="M10.008 8a2.007 2.007 0 1 1-4.015.001A2.007 2.007 0 0 1 10.008 8zm0 0"/><path d="M8 3.992c-2.762 0-5 1.57-5 3.5 0 .172.016.34.05.508C3.41 6.281 5.52 5.008 8 5.008S12.586 6.28 12.95 8c.03-.168.05-.336.05-.508 0-1.93-2.238-3.5-5-3.5zm0 0"/></g></svg>