<svg xmlns="http://www.w3.org/2000/svg" width="16" height="16"><path fill="#222" d="M9.555.07a.998.998 0 0 0 .008 1.422l1.582 1.582a1.43 1.43 0 0 0-.09.496 1.5 1.5 0 0 0 2.187 1.336l2.164 2.164a1.002 1.002 0 0 0-.008-1.426l-1.472-1.468a1.5 1.5 0 0 0-1.371-2.105c-.274 0-.543.077-.782.222zM6.262.355a1.002 1.002 0 0 0-.688.301L4.105 2.13a1.5 1.5 0 0 0-1.887 2.15L0 6.5a1.001 1.001 0 0 0 1.426-.012L3 4.914a1.5 1.5 0 0 0 1.832-2.102L7 .646a.998.998 0 0 0-.738-.29zm-.555 3.938L4.293 5.707l.996.992.008.012c.578.566.71.96.703 1.293-.008.332-.191.758-.715 1.293v.008l-.992.988 1.414 1.414 1.004-1.004h.004c.562-.578.957-.71 1.289-.703.336.008.762.191 1.297.719l.992.988 1.414-1.414-1.008-1.008h-.004v-.004c-.597-.582-.71-.96-.695-1.293.02-.328.223-.77.727-1.3l.98-.981-1.414-1.414-.992.988c-.535.528-.961.711-1.297.719-.332.008-.727-.125-1.29-.703L6.7 5.289zM.594 8.93a1.002 1.002 0 0 0 .008 1.426l1.472 1.468a1.5 1.5 0 0 0 1.371 2.105c.274 0 .543-.077.782-.222l2.218 2.223a.998.998 0 0 0-.007-1.422l-1.583-1.582a1.43 1.43 0 0 0 .09-.496 1.5 1.5 0 0 0-2.187-1.336zm14.633.277a.991.991 0 0 0-.688.305l-1.473 1.468a1.527 1.527 0 0 0-.605-.125c-.828 0-1.5.668-1.5 1.5.004.274.078.543.223.778L8.96 15.355c.195.192.465.301.738.29a.987.987 0 0 0 .688-.301l1.578-1.578c.16.058.328.086.496.09.832 0 1.5-.672 1.5-1.5a1.44 1.44 0 0 0-.164-.688L15.96 9.5a.992.992 0 0 0-.734-.293zm0 0"/></svg>