<svg xmlns="http://www.w3.org/2000/svg" width="16" height="16"><path fill="#222" d="M8.074 0a7.022 7.022 0 0 0-3.492.89 1 1 0 0 0-.383 1.36.997.997 0 0 0 1.36.387A5 5 0 0 1 13 7v1c0 .55.45 1 1 1s1-.45 1-1V7a.985.985 0 0 0-.008-.113A6.992 6.992 0 0 0 8.07 0zM2.875 2.832a.994.994 0 0 0-.82.469 6.99 6.99 0 0 0-1.043 3.554v.004A.854.854 0 0 0 1 7v5.063c0 .55.45 1 1 1s1-.45 1-1V7c0-.934.262-1.852.758-2.645a1.001 1.001 0 0 0-.883-1.523zM8 3C5.867 3 4.125 4.7 4.02 6.805 4.008 6.87 4 6.934 4 7v1c0 .55.45 1 1 1s1-.45 1-1V7c0-1.117.883-2 2-2s2 .883 2 2v5s.008.441.176.941.5 1.149 1.117 1.766a1 1 0 1 0 1.414-1.414c-.383-.383-.55-.734-.633-.984S12 12 12 12V7a1.14 1.14 0 0 0-.02-.2C11.875 4.696 10.13 3 8 3zm0 3c-.55 0-1 .45-1 1v5s0 .594.145 1.32c.144.727.414 1.653 1.148 2.387a1 1 0 1 0 1.414-1.414c-.266-.266-.496-.84-.602-1.363C9 12.406 9 12 9 12V7c0-.55-.45-1-1-1zm-3 4c-.55 0-1 .45-1 1v3c0 .55.45 1 1 1s1-.45 1-1v-3c0-.55-.45-1-1-1zm9 0c-.55 0-1 .45-1 1s.45 1 1 1 1-.45 1-1-.45-1-1-1zm0 0"/></svg>