<svg xmlns="http://www.w3.org/2000/svg" width="16" height="16"><g fill="#222"><path d="M7.43 11.008h1.144a3.422 3.422 0 0 1 3.43 3.43v.8c0 .762-.762.762-.762.762H4.766s-.762 0-.762-.762v-.8a3.418 3.418 0 0 1 3.426-3.43zm0 0"/><path fill-opacity=".349" d="M8.004.004a7.97 7.97 0 0 0-5.316 2.02 8.004 8.004 0 0 0-1.239 10.562.75.75 0 1 0 1.23-.856 6.494 6.494 0 0 1 1.005-8.585 6.491 6.491 0 0 1 8.64 0 6.494 6.494 0 0 1 1.004 8.585.746.746 0 0 0-.082.758c.113.25.352.418.625.438a.74.74 0 0 0 .684-.34 8.002 8.002 0 0 0-1.23-10.563A7.986 7.986 0 0 0 8.003.003zm0 3A5 5 0 0 0 4.68 4.266a5.01 5.01 0 0 0-.774 6.601c.153.23.414.36.688.34s.511-.187.625-.437.082-.543-.082-.762a3.491 3.491 0 0 1 .539-4.621 3.488 3.488 0 0 1 4.656 0 3.491 3.491 0 0 1 .54 4.62.753.753 0 0 0 .542 1.2c.274.02.535-.11.688-.34a5.01 5.01 0 0 0-.774-6.601 5 5 0 0 0-3.324-1.262zm0 0"/><path d="M8.004 6a2 2 0 1 1-2 2c0-1.105.894-2 2-2zm0 0"/></g></svg>