<svg xmlns="http://www.w3.org/2000/svg" width="16" height="16"><path fill="#222" d="M13.027 11c.325 0 .625-.156.817-.418a1 1 0 0 0 .129-.906l-.371-1.078A11.055 11.055 0 0 1 13 5h-1 1c0-2.766-2.234-5-5-5S3 2.234 3 5h1-1c0 1.223-.203 2.441-.602 3.598l-.37 1.078a1 1 0 0 0 .128.906c.192.262.492.418.817.418zM4.29 9.25C4.758 7.883 5 6.445 5 5H4h1c0-1.652 1.348-3 3-3s3 1.348 3 3h1-1c0 1.445.242 2.883.71 4.25l.372 1.074L13.027 9H2.973l.945 1.324zm4.898 3.168a1.497 1.497 0 0 1-2.398-.035 1.004 1.004 0 0 0-1.4-.219 1.004 1.004 0 0 0-.218 1.398 3.5 3.5 0 0 0 5.594.082 1 1 0 1 0-1.578-1.227zm0 0"/></svg>