<svg xmlns="http://www.w3.org/2000/svg" width="16" height="16"><g fill="#212121"><path d="M12.96 11.988h1v1h-1zm-10 0h1v1h-1zm-2 0h1v1h-1zm14 0h1v1h-1zm-14-8h1.376L3.46 5.082l1.094-1.094H5.96v1.469L4.867 6.52l1.094 1.062v1.406H4.523L3.461 7.926 2.398 8.988H.961V7.582L2.023 6.52.961 5.457zm0 0"/><path d="M11.715 1.14c-1.16-.152-2.293.25-3.14.985-.833.73-1.34 1.727-1.528 2.766-.219 1.214-.008 2.425.433 3.496.094.218.172.34.274.539-.04.023-.086.027-.129.05-.723.415-1.434.985-1.934 1.782-.507.812-.761 1.836-.496 2.86a3.134 3.134 0 0 0 1.89 2.132c.47.184.977.25 1.477.187a2.976 2.976 0 0 0 1.399-.558c.746-.547 1.144-1.371 1.27-2.195.12-.809-.02-1.582-.254-2.262-.122-.348-.27-.54-.422-.844.441-.07.883-.129 1.324-.094l.039.004h3.043v-2h-3l.082.004a7.658 7.658 0 0 0-2.422.211c-.09-.172-.223-.414-.293-.586-.32-.777-.45-1.617-.316-2.37.117-.63.433-1.227.875-1.614.437-.38 1.05-.578 1.57-.512.418.055.84.29 1.105.613.27.325.422.782.399 1.2l1.996.109a3.72 3.72 0 0 0-.855-2.59 3.719 3.719 0 0 0-2.387-1.312zm-3.07 9.56c.14.269.351.62.44.874.161.465.227.922.169 1.313-.055.37-.25.715-.48.883a.96.96 0 0 1-.458.183 1.067 1.067 0 0 1-.504-.066 1.21 1.21 0 0 1-.68-.778c-.097-.375-.003-.879.255-1.289.265-.425.707-.808 1.234-1.11.008-.003.02-.007.024-.01zm0 0"/></g></svg>