<svg xmlns="http://www.w3.org/2000/svg" width="16" height="16"><g fill="#222"><path d="M11.8 0C13.005 0 14 1 14 2.2h-2c0-.13-.074-.2-.2-.2H4.196C4.07 2 4 2.07 4 2.2v9.613c0 .128.07.199.195.199L12 12v2l1.984.063A2.22 2.22 0 0 1 11.801 16H4.195C2.992 16 2 15 2 13.8V2.2C2 1 2.992 0 4.195 0zM8 12.902c-.55 0-1 .383-1 .934 0 .55.45 1 1 1s1-.45 1-1-.45-.934-1-.934zm0 0"/><path d="M16 8.063c0-2.168-.738-4.02-2-5h-1v2c.605.789 1 1.757 1 3s-.395 2.218-1 3v2h1c1.223-.997 2-2.876 2-5zm-3 0c0-1.258-.313-2.215-1-3h-1v6h1c.672-.836 1-1.743 1-3zm0 0"/></g></svg>