<svg xmlns="http://www.w3.org/2000/svg" width="16" height="16"><path fill="#222" fill-opacity=".349" d="M4.016 1.031c-1.645 0-3 1.356-3 3v1h1v-1c0-1.11.89-2 2-2h1v-1zm2 0v1h4v-1zm5 0v1h1c1.109 0 2 .89 2 2v1h1v-1c0-1.644-1.356-3-3-3zm-5 4c-.551 0-1 .45-1 1s.449 1 1 1 1-.449 1-1-.45-1-1-1zm-5 1v4h1v-4zm13 0v4h1v-4zm-4.5 2-2 2-1.5-1-2 2v.5c0 .5.5.5.5.5h7s.472-.035.5-.5v-1zm-8.5 3v1c0 1.645 1.355 3 3 3h1v-1h-1c-1.11 0-2-.89-2-2v-1zm13 0v1c0 1.11-.891 2-2 2h-1v1h1c1.644 0 3-1.355 3-3v-1zm-8 3v1h4v-1zm0 0"/></svg>