<svg xmlns="http://www.w3.org/2000/svg" width="16" height="16"><path fill="#222" d="M3 1c-1.098 0-2 .902-2 2s.902 2 2 2v2c-1.098 0-2 .902-2 2s.902 2 2 2 2-.902 2-2h2v2c-1.098 0-2 .902-2 2s.902 2 2 2 2-.902 2-2h2c0 1.098.902 2 2 2s2-.902 2-2-.902-2-2-2V9c1.098 0 2-.902 2-2s-.902-2-2-2-2 .902-2 2H9V5c1.098 0 2-.902 2-2s-.902-2-2-2-2 .902-2 2H5c0-1.098-.902-2-2-2zm0 1c.559 0 1 .441 1 1 0 .016-.008.027-.008.04a1.311 1.311 0 0 0-.953.952C3.027 3.992 3.016 4 3 4c-.559 0-1-.441-1-1s.441-1 1-1zm6 0c.559 0 1 .441 1 1s-.441 1-1 1c-.016 0-.027-.008-.04-.008a1.311 1.311 0 0 0-.952-.953C8.008 3.027 8 3.016 8 3c0-.559.441-1 1-1zm4 4c.559 0 1 .441 1 1s-.441 1-1 1a.956.956 0 0 1-.3-.063 1.983 1.983 0 0 0-.637-.636A.983.983 0 0 1 12 7c0-.559.441-1 1-1zM3 8c.016 0 .027.008.04.008.116.469.483.836.952.953 0 .012.008.023.008.039 0 .559-.441 1-1 1s-1-.441-1-1 .441-1 1-1zm5.977 0h2.05c.102 0 .192.027.286.055.16.258.375.472.632.636a.93.93 0 0 1 .055.282v2.054c0 .102-.027.192-.055.286-.257.16-.472.375-.632.632-.094.028-.184.055-.286.055h-2.05c-.106 0-.196-.027-.29-.055a1.959 1.959 0 0 0-.632-.632c-.028-.094-.055-.184-.055-.286V8.973c0-.004.004-.008.004-.012.473-.113.844-.484.957-.957C8.965 8 8.969 8 8.977 8zM7 12c.11 0 .203.031.3.063.16.257.38.476.638.636A.983.983 0 0 1 8 13c0 .559-.441 1-1 1s-1-.441-1-1 .441-1 1-1zm6 0c.559 0 1 .441 1 1s-.441 1-1 1-1-.441-1-1c0-.105.031-.203.063-.3.257-.16.476-.38.636-.637A.983.983 0 0 1 13 12zm0 0"/></svg>