<svg xmlns="http://www.w3.org/2000/svg" width="16" height="16"><path fill="#222" d="M11 2a4.014 4.014 0 0 0-3.766 2.656c-.109.414-.43.344-.43.344H1.032C0 5 0 6 0 6v5s0 1 1 1h1v.5c0 .277.223.5.5.5h2c.277 0 .5-.223.5-.5V12h6v.5c0 .277.223.5.5.5h2c.277 0 .5-.223.5-.5V12h1c1 0 1-1 1-1V6c0-1-1-1-1-1h.125s-.25.031-.355-.324A4.001 4.001 0 0 0 11 2zm0 2a2 2 0 1 1-2 2 2 2 0 0 1 2-2zM2.5 6.977a.5.5 0 0 1 .5.5v2.035a.499.499 0 1 1-1 0V7.477a.5.5 0 0 1 .5-.5zm2 0a.5.5 0 0 1 .5.5v2.035a.499.499 0 1 1-1 0V7.477a.5.5 0 0 1 .5-.5zm2 0a.5.5 0 0 1 .5.5v2.035a.499.499 0 1 1-1 0V7.477a.5.5 0 0 1 .5-.5zm0 0"/></svg>