<svg xmlns="http://www.w3.org/2000/svg" width="16" height="16"><path fill="#2e3436" d="M3.063 0A3.057 3.057 0 0 0 0 3.063v6.874A3.057 3.057 0 0 0 3.063 13h9.874A3.057 3.057 0 0 0 16 9.937V3.064A3.057 3.057 0 0 0 12.937 0H11a2.509 2.509 0 0 0-2.516 2.516v1.55A1.997 1.997 0 0 0 7 6v2c0 1.11.89 2 2 2h1c1.11 0 2-.89 2-2V6c0-.941-.645-1.727-1.516-1.941V2.516A.52.52 0 0 1 11 2h1.938A1.06 1.06 0 0 1 14 3.063v6.874A1.06 1.06 0 0 1 12.937 11H3.063A1.06 1.06 0 0 1 2 9.937V3.064A1.06 1.06 0 0 1 3.063 2H6c.55 0 1-.45 1-1s-.45-1-1-1zM5 14a2 2 0 0 0-2 2h10a2 2 0 0 0-2-2zm0 0"/></svg>