<svg xmlns="http://www.w3.org/2000/svg" width="16" height="16"><path fill="#222" d="M6.5 1c-.277 0-.5.223-.5.5v1c0 .277.223.5.5.5h1c.277 0 .5-.223.5-.5v-1c0-.277-.223-.5-.5-.5zM2.758 2.547a.483.483 0 0 0-.352.152l-.707.707a.489.489 0 0 0 0 .703l.707.707c.196.2.508.2.707 0l.707-.707a.495.495 0 0 0 0-.703L3.113 2.7a.514.514 0 0 0-.355-.152zm8.484 0a.498.498 0 0 0-.355.152l-.707.707a.495.495 0 0 0 0 .703l.707.707c.199.2.511.2.707 0l.707-.707a.489.489 0 0 0 0-.703l-.707-.707a.499.499 0 0 0-.352-.152zM6.988 4.004c-2.195 0-4 1.809-4 4 0 1.898 1.348 3.496 3.13 3.898 0-.004 0-.004.003-.011.477-2.086 2.137-3.004 4.043-2.809.191.047.371.117.547.195.016.008.031.008.043.016.14-.406.234-.836.234-1.29 0-2.19-1.804-4-4-4zM.5 7c-.277 0-.5.223-.5.5v1c0 .277.223.5.5.5h1c.277 0 .5-.223.5-.5v-1c0-.277-.223-.5-.5-.5zm12 0c-.277 0-.5.223-.5.5v1c0 .277.223.5.5.5h1c.277 0 .5-.223.5-.5v-1c0-.277-.223-.5-.5-.5zm-3 3A2.502 2.502 0 0 0 7 12.5c0 .219.043.422.094.625A1.582 1.582 0 0 0 6.5 13a1.5 1.5 0 0 0 0 3h8a1.5 1.5 0 0 0 0-3 2 2 0 0 0-2-2 2 2 0 0 0-.875.219A2.473 2.473 0 0 0 9.5 10zm-6.742 1.035a.479.479 0 0 0-.352.149l-.707.707a.489.489 0 0 0 0 .703l.707.707a.493.493 0 0 0 .707 0l.707-.707a.495.495 0 0 0 0-.703l-.707-.707a.494.494 0 0 0-.355-.149zm0 0"/></svg>