<svg xmlns="http://www.w3.org/2000/svg" width="16" height="16"><g fill="#222"><path d="M3.473 1A2.466 2.466 0 0 0 1 3.473v3.054A2.466 2.466 0 0 0 3.473 9h4.054A2.466 2.466 0 0 0 10 6.527V3.473A2.466 2.466 0 0 0 7.527 1zm.125 2h3.804c.332 0 .598.266.598.598v2.804A.595.595 0 0 1 7.402 7H3.598A.595.595 0 0 1 3 6.402V3.598C3 3.266 3.266 3 3.598 3zm0 0"/><path d="M3.398 9 2 11.02h7L7.602 9zm0 0"/><path fill-opacity=".349" d="M11.016 5v1.527c0 .16-.012.32-.032.473h1.407c.332 0 .597.266.597.598v2.804a.595.595 0 0 1-.597.598h-2.286c.012.617-.484 1.04-1.105 1.04H6.586c.453.53 1.121.96 1.875.96h-.074l-1.399 2.02h7L12.586 13h-.07a2.466 2.466 0 0 0 2.472-2.473V7.473A2.466 2.466 0 0 0 12.516 5zm0 0"/></g></svg>