<svg xmlns="http://www.w3.org/2000/svg" width="16" height="16"><path d="M4.445 13.988a.501.501 0 0 1-.496-.492c0-.27.227-.496.496-.496.266 0 .493.227.493.496a.5.5 0 0 1-.493.492zm0-2.988a2.49 2.49 0 0 0-2.496 2.496 2.49 2.49 0 0 0 2.496 2.492 2.489 2.489 0 0 0 2.493-2.492A2.49 2.49 0 0 0 4.444 11zm0 0"/><path d="M10.027 12.496H6.012a1 1 0 1 0 0 2h4.015a1 1 0 1 0 0-2zm-7.304 0a.742.742 0 0 1-.735-.738V7.387c0-.203.176-.38.383-.38h11.25c.203 0 .379.177.379.38v4.148a.967.967 0 0 1-.957.961c-.55 0-1 .45-1 1s.45 1 1 1A2.953 2.953 0 0 0 16 11.536v-4.15a2.37 2.37 0 0 0-2.379-2.378H2.371A2.374 2.374 0 0 0-.012 7.387v4.367a2.733 2.733 0 0 0 2.73 2.742 1 1 0 0 0 .005-2zm0 0"/><path d="M11.516 13.988a.5.5 0 0 1-.493-.492c0-.27.227-.496.493-.496.27 0 .496.227.496.496a.501.501 0 0 1-.496.492zm0-2.988a2.487 2.487 0 0 0-2.493 2.496c0 1.379 1.11 2.492 2.493 2.492s2.496-1.113 2.496-2.492A2.49 2.49 0 0 0 11.516 11zM2 9.969v-7.11C2 2.391 2.39 2 2.86 2h8.593c.68 0 1.293.438 1.512 1.082l.508 1.488c.363 1.063.547 2.176.547 3.297v1.055a1 1 0 1 0 2 0V7.867c0-1.344-.22-2.672-.653-3.941l-.508-1.488A3.594 3.594 0 0 0 11.453 0H2.86A2.85 2.85 0 0 0 0 2.86v7.109c0 .55.45 1 1 1s1-.45 1-1zm0 0"/><path d="M3.887 1h1.125v5H3.887zm2.988 0H8v5H6.875zm3 0H11v5H9.875zm0 0"/></svg>