<svg xmlns="http://www.w3.org/2000/svg" width="16" height="16"><g fill="#222"><path d="M8.25 1a.798.798 0 0 0-.375.117l-3.75 2.25A.748.748 0 0 0 3.797 4c0 .25.117.5.328.637l3.75 2.25c.113.07.242.11.375.113H9V5a3.995 3.995 0 0 1 3.816 2.8 3.994 3.994 0 0 1-1.523 4.481c-1.105.758.055 2.418 1.148 1.637a6.013 6.013 0 0 0 2.286-6.719A6.017 6.017 0 0 0 9 3V1zM1.957 15.086c1.625 0 2.691-.7 2.691-1.77 0-.761-.511-1.336-1.308-1.492.597-.156.969-.64.969-1.32 0-1.004-.797-1.613-2.133-1.613-.711 0-1.426.175-2.082.53L.43 10.54c.539-.234 1.007-.363 1.433-.363.54 0 .883.207.883.554 0 .399-.441.668-1.101.668H1.23v1.13h.415c.878 0 1.44.284 1.44.718 0 .36-.382.559-1.065.559a4.353 4.353 0 0 1-1.625-.325l-.348 1.172a4.16 4.16 0 0 0 1.91.434zm0 0"/><path d="M7.723 15.086c1.527 0 2.558-1.246 2.558-3.133 0-1.84-1.015-3.062-2.515-3.062-1.54 0-2.57 1.25-2.57 3.125 0 1.84 1.015 3.07 2.527 3.07zm.03-1.281c-.612 0-1.01-.739-1.01-1.84 0-1.078.398-1.79.987-1.79.598 0 1.008.74 1.008 1.848 0 1.067-.402 1.782-.984 1.782zm0 0"/></g></svg>