<svg xmlns="http://www.w3.org/2000/svg" width="16" height="16"><path fill="#222" d="M2.992 1a2.998 2.998 0 0 0-3 3v8a3.005 3.005 0 0 0 3 3h10c1.07 0 2.067-.574 2.602-1.5.265-.465.398-.98.398-1.5V4a2.998 2.998 0 0 0-3-3h-3v4h-4V1zm0 2h1v6h-1c-.347 0-.683.066-1 .176V4a1 1 0 0 1 1-1zm9 0h1a1 1 0 0 1 1 1v5.176a3.058 3.058 0 0 0-1-.176h-1zm-6 4h4v4h3a.994.994 0 0 1 1 .984V12h.004c0 .172-.047.344-.137.5a.994.994 0 0 1-.867.5h-10a.983.983 0 0 1-.863-.5.995.995 0 0 1 0-1 .983.983 0 0 1 .863-.5h3zm0 0"/></svg>