<svg xmlns="http://www.w3.org/2000/svg" width="16" height="16"><path fill="#222" d="M7.5 0C3.371 0 0 3.371 0 7.5S3.371 15 7.5 15 15 11.629 15 7.5 11.629 0 7.5 0zm1.844 2.313A5.462 5.462 0 0 1 11.75 4h-1.227a6.986 6.986 0 0 0-1.18-1.688zm-3.719.011A7.235 7.235 0 0 0 4.453 4H3.25a5.483 5.483 0 0 1 2.375-1.676zM7 2.422V4H5.602A5.956 5.956 0 0 1 7 2.422zm1 .015c.559.446 1.02.977 1.379 1.563H8zM2.598 5h1.441a7.923 7.923 0 0 0-.39 2H2.022c.063-.715.266-1.39.575-2zm2.507 0H7v2H4.656a6.66 6.66 0 0 1 .45-2zM8 5h1.875a6.69 6.69 0 0 1 .45 2H8zm2.941 0h1.461c.309.61.512 1.285.575 2h-1.645a7.923 7.923 0 0 0-.39-2zM2.023 8h1.625c.047.68.176 1.355.395 2H2.598a5.482 5.482 0 0 1-.575-2zm2.633 0H7v2H5.11a6.763 6.763 0 0 1-.454-2zM8 8h2.324a6.735 6.735 0 0 1-.453 2H8zm3.332 0h1.645a5.482 5.482 0 0 1-.575 2h-1.464c.218-.645.347-1.32.394-2zM3.25 11h1.21c.313.61.712 1.18 1.196 1.688A5.462 5.462 0 0 1 3.25 11zm2.363 0H7v1.55A5.93 5.93 0 0 1 5.613 11zM8 11h1.367A5.858 5.858 0 0 1 8 12.535zm2.52 0h1.23a5.458 5.458 0 0 1-2.438 1.695A6.994 6.994 0 0 0 10.52 11zm0 0"/></svg>