<svg xmlns="http://www.w3.org/2000/svg" width="16" height="16"><path fill="#222" d="M6.008 1v2.984H2.945c-.554.004-1 .45-1 1 0 .555.446 1 1 1H15C13.844 3.984 10 1 6.008 1zm-1.52 3.5H4.5a.501.501 0 1 1-.012 0zM1 6.984v1L2.5 8c.293 0 .488.195.488.5l.012 2a.499.499 0 1 0 1 0v-2c0-.66 1-.66 1 0v3a.499.499 0 1 0 1 0v-1c0-.676 1-.672 1 0 .004 1.684.016 3.652.016 3.941a.493.493 0 1 0 .984 0c0-.425.02-5.09.02-5.957 0-.246.226-.5.5-.5h.98c.258 0 .5.25.5.5v1c0 .278.223.5.5.5s.5-.222.5-.5v-1c0-.265.223-.5.5-.5.266 0 .5.23.5.5 0 .278.223.5.5.5s.5-.222.5-.5c.016-.261.266-.492.5-.5H15v-1zm0 0"/></svg>