<svg xmlns="http://www.w3.org/2000/svg" width="16" height="16"><g fill="#222"><path d="M3.957 5.988a1.002 1.002 0 0 0-.3.059C2.917 6.157 1 6.738 1 10v5h4v-4.691c.102.07.203.136.305.195.578.32 1.156.433 1.695.476V10h1V9h-.008c-.773.004-1.312-.023-1.719-.25-.406-.223-.87-.703-1.324-2.066a.997.997 0 0 0-.992-.696zm0 0"/><path fill-opacity=".502" d="M12 1a2 2 0 1 0 2 2 2 2 0 0 0-2-2zm-.043 4.988a.995.995 0 0 0-.906.696c-.453 1.363-.918 1.843-1.324 2.066-.407.227-.946.254-1.723.25H8v1H7v.98c.168.012.332.016.492.016.004 0 .004.004.008.004h1c.004 0 .004-.004.008-.004.672-.008 1.43-.074 2.187-.492.102-.059.203-.125.305-.195V15h4v-5c0-3.262-1.918-3.844-2.652-3.953a1.051 1.051 0 0 0-.391-.059zm0 0"/><path d="M4 1a2 2 0 1 0 2 2 2 2 0 0 0-2-2zm0 0"/></g></svg>