<svg xmlns="http://www.w3.org/2000/svg" width="16" height="16"><g fill="#222"><path d="M15.219 1.492S10.965 3.41 9.113 4.797L6.66 6.637 5.52 8.46c-.438.152-.52.934-.52 1.156 0 .285.234.52.52.52.222 0 .96-.047 1.085-.407l1.77.168.473-.343.433.52 1.157-.903-.422-.508L11 8c1.934-1.309 4.785-5.848 4.785-5.848.328-.382-.094-.906-.566-.66zm-.196 7.485c-.457.003-.91.136-1.296.378-.387.247-.7.594-.899 1.008-.254.52-.305.996-.453 1.305a.844.844 0 0 1-.262.332.45.45 0 0 1-.133.063.233.233 0 0 1-.105-.004.302.302 0 0 1-.105-.07.812.812 0 0 1-.125-.169c-.079-.148-.141-.363-.239-.625a4.286 4.286 0 0 0-.593-1.05l-.793.613c.19.242.34.512.449.797.078.195.144.457.297.738.078.145.18.289.312.418.14.133.313.246.52.305.195.058.394.062.578.023a1.3 1.3 0 0 0 .5-.21c.289-.192.476-.462.601-.727.25-.52.301-.993.45-1.305.117-.238.308-.453.535-.598.226-.14.5-.222.77-.222zM4 10v1h1v-1zm0 1H3v1h1zm0 0"/><path fill-opacity=".502" d="M1 11v1h1v-1zm1 1v1h1v-1zm1 1v1h1v-1zm1 0h1v-1H4zm0 0"/><path fill-opacity=".349" d="M0 12v1h1v-1zm1 1v1h1v-1zm1 1v1h1v-1zm1 1v1h1v-1zm0 0"/><path fill-opacity=".102" d="M0 14v1h1v-1zm1 1v1h1v-1zm0 0"/></g></svg>