<svg xmlns="http://www.w3.org/2000/svg" width="16" height="16"><g fill="#222"><path d="M11.105 10c-.78.648-1.68 1.52-3.066 2.012L1 12v3h14v-3l-2-2zm-.605 1.797c.39 0 .703.312.703.703s-.312.703-.703.703-.703-.312-.703-.703.312-.703.703-.703zm2 .023a.68.68 0 1 1-.001 1.36.68.68 0 0 1 .001-1.36zm0 0"/><path d="M11.445 3.055c.328 0 .598.261.598.593v.04a7.373 7.373 0 0 1-7.371 7.351h-.02a.598.598 0 0 1-.593-.613V8.582c0-.34.273-.613.613-.613h1.226c.344 0 .618.273.618.613v.29a5.501 5.501 0 0 0 3.355-3.36h-.285a.612.612 0 0 1-.613-.614v-1.23c0-.34.273-.613.613-.613zm0 0"/></g></svg>