<svg xmlns="http://www.w3.org/2000/svg" width="16" height="16"><path d="M4.5 0A2.518 2.518 0 0 0 2 2.5v11C2 14.867 3.133 16 4.5 16h7c1.367 0 2.5-1.133 2.5-2.5v-11C14 1.133 12.867 0 11.5 0zm0 2h7c.293 0 .5.207.5.5v10a.48.48 0 0 1-.5.5h-7a.48.48 0 0 1-.5-.5v-10c0-.293.207-.5.5-.5zm0 0"/><path fill-opacity=".349" d="M3.5 3c-.277 0-.5.223-.5.5v6c0 .277.223.5.5.5h1c.277 0 .5-.223.5-.5v-6c0-.277-.223-.5-.5-.5zm3 0c-.277 0-.5.223-.5.5v6c0 .277.223.5.5.5h3c.277 0 .5-.223.5-.5v-6c0-.277-.223-.5-.5-.5zm5 0c-.277 0-.5.223-.5.5v6c0 .277.223.5.5.5h1c.277 0 .5-.223.5-.5v-6c0-.277-.223-.5-.5-.5zm-6 8a.499.499 0 1 0 0 1h5a.499.499 0 1 0 0-1zm0 0"/></svg>