<svg xmlns="http://www.w3.org/2000/svg" width="16" height="16"><g fill="#222"><path d="M4.2 0C2.995 0 2 1 2 2.2v1.808h2V2.199C4 2.07 4.074 2 4.2 2h7.605c.125 0 .195.07.195.2v9.613c0 .128-.07.199-.195.199L2 12v1.8C2 15 2.996 16 4.2 16h7.605C13.008 16 14 15 14 13.8V2.2C14 1 13.008 0 11.805 0zM8 12.902c.55 0 1 .383 1 .934 0 .55-.45 1-1 1s-1-.45-1-1 .45-.934 1-.934zm0 0"/><path d="M4 5c-1.098 0-2 .902-2 2v1h-.453C1.234 8 1 8.172 1 8.5V11h6V8.5c0-.258-.21-.5-.5-.5H6V7c0-1.098-.902-2-2-2zm0 1c.559 0 1 .441 1 1v1H3V7c0-.559.441-1 1-1zm0 0"/></g></svg>