<svg xmlns="http://www.w3.org/2000/svg" width="16" height="16"><path fill="#222" d="M9.465 0C8.19 0 7.156.973 7.015 2.219 6.692 2.098 6.36 2 5.997 2 4.352 2 3.02 3.344 3.02 5c0 .098.02.184.03.281A1.982 1.982 0 0 0 2.028 5C.934 5 .043 5.895.043 7s.89 2 1.984 2h12.395c.824 0 1.488-.672 1.488-1.5S15.246 6 14.422 6c-.203 0-.41.05-.586.125.05-.203.094-.406.094-.625 0-1.23-.887-2.227-2.047-2.438a2.41 2.41 0 0 0 .062-.562A2.49 2.49 0 0 0 9.465 0zm3.031 9.992a.5.5 0 0 0-.48.403l-1 4.921a.498.498 0 0 0 .39.586.494.494 0 0 0 .582-.39l1-4.918a.49.49 0 0 0-.492-.602zm-2 0a.497.497 0 0 0-.48.403l-1 4.921a.495.495 0 1 0 .972.196l1-4.918a.493.493 0 0 0-.101-.418.487.487 0 0 0-.39-.184zm-2 0a.497.497 0 0 0-.48.403l-1.004 4.921a.498.498 0 0 0 .39.586.494.494 0 0 0 .582-.39l1-4.918a.49.49 0 0 0-.488-.602zm-2.004 0a.5.5 0 0 0-.48.403l-1 4.921a.495.495 0 1 0 .973.195l1-4.917a.49.49 0 0 0-.493-.602zm-2 .004a.5.5 0 0 0-.48.406l-1 4.914a.495.495 0 1 0 .972.2l1-4.914a.496.496 0 0 0-.492-.606zm-2.004-.004a.5.5 0 0 0-.48.403l-1 4.921a.498.498 0 0 0 .39.586.494.494 0 0 0 .582-.39l1-4.918a.49.49 0 0 0-.492-.602zm0 0"/></svg>