<svg xmlns="http://www.w3.org/2000/svg" width="16" height="16"><path fill="#222" d="M1.066 2.043v2.96h5.965v-2.96zm6.97 0v2.96H14v-2.96zM1 6.035v2.961h2v-2.96zm3.035 0v2.961H6.61A5.492 5.492 0 0 1 10 6.207v-.172zm8.094 0a5.55 5.55 0 0 1 1.871.57v-.57zM1.066 10.137v2.96h5.18a5.437 5.437 0 0 1-.246-1.6c.004-.458.063-.915.18-1.36zM11.438 7.93c-.407 0-.793.09-1.157.218l1.906 1.907a.983.983 0 0 1 0 1.406l-.718.75a.99.99 0 0 1-1.406 0l-1.938-1.938c-.125.36-.219.75-.219 1.157a3.543 3.543 0 0 0 3.532 3.53c.406 0 .792-.093 1.156-.218l1.219 1.188h.062l2.094-2.094-1.219-1.219a3.65 3.65 0 0 0 .219-1.187c0-1.942-1.582-3.5-3.531-3.5zm0 0"/></svg>