<svg xmlns="http://www.w3.org/2000/svg" width="16" height="16"><path fill="#222" d="M3 1C1.355 1 0 2.355 0 4v5c0 1.645 1.355 3 3 3h10c1.645 0 3-1.355 3-3V4c0-1.645-1.355-3-3-3zm0 2h10c.57 0 1 .43 1 1v5c0 .57-.43 1-1 1H3c-.57 0-1-.43-1-1V4c0-.57.43-1 1-1zm2.504 11.504c0 .832-.672 1.504-1.504 1.504s-1.504-.672-1.504-1.504S3.168 13 4 13s1.504.672 1.504 1.504zm4 0c0 .832-.672 1.504-1.504 1.504s-1.504-.672-1.504-1.504S7.168 13 8 13s1.504.672 1.504 1.504zm4 0c0 .832-.672 1.504-1.504 1.504s-1.504-.672-1.504-1.504S11.168 13 12 13s1.504.672 1.504 1.504zm0 0"/></svg>