<svg xmlns="http://www.w3.org/2000/svg" width="16" height="16"><g fill="#222"><path d="M6.957 3.016c-.102.004-.2.023-.293.054a1.271 1.271 0 0 0-.18.086.745.745 0 0 0-.082.059.982.982 0 0 0-.394.672C6.004 3.926 6 3.96 6 4v8.383l-2.55-1.278a.998.998 0 0 0-1.302.368.998.998 0 0 0 .254 1.328l3.977 2.98.02.02c.011.008.019.011.03.02l.048.03c.011.008.023.012.035.02a.426.426 0 0 1 .043.024c.02.007.039.015.054.023a.27.27 0 0 0 .04.016l.062.023c.008.004.02.004.031.008a1.028 1.028 0 0 0 .106.023c.011 0 .02.004.027.004.027.004.055.004.082.008H12s.457.016.95-.23c.488-.247 1.05-.938 1.05-1.77v-4c0-.46-.313-.86-.758-.969l-4-1A.842.842 0 0 0 9 8H8V4c0-.102-.02-.2-.05-.293a.868.868 0 0 0-.196-.348.997.997 0 0 0-.227-.195 1.334 1.334 0 0 0-.086-.047.674.674 0 0 0-.093-.039.937.937 0 0 0-.094-.031l-.098-.024c-.066-.007-.133-.011-.199-.007zm0 0"/><path fill-opacity=".502" d="M7 0C4.8 0 3 1.8 3 4c0 1.465.813 2.742 2 3.438V4c0-1.09.91-2 2-2s2 .91 2 2v3c.082 0 .164.008.242.031l.254.063C10.406 6.359 11 5.25 11 4c0-2.2-1.805-4-4-4zm0 0"/></g></svg>