<svg xmlns="http://www.w3.org/2000/svg" width="16" height="16"><path fill="#222" d="M8.25 1a.798.798 0 0 0-.375.117l-3.75 2.25A.748.748 0 0 0 3.797 4c0 .25.117.5.328.637l3.75 2.25c.113.07.242.11.375.113H9V5a3.995 3.995 0 0 1 3.816 2.8 3.994 3.994 0 0 1-1.523 4.481 1.008 1.008 0 0 0-.43.906 1.001 1.001 0 0 0 1.578.731 6.013 6.013 0 0 0 2.286-6.719A6.017 6.017 0 0 0 9 3V1zM7.156 8.898c-1.535 0-2.562 1.25-2.562 3.122 0 1.84 1.011 3.066 2.52 3.066 1.523 0 2.554-1.246 2.554-3.129 0-1.836-1.012-3.059-2.512-3.059zm-4.875.09-2.07 1.196.562 1.074.903-.469v2.93H.516v1.285h3.726v-1.285H3.176v-4.73zm4.84 1.196c.598 0 1.004.734 1.004 1.843 0 1.067-.398 1.778-.977 1.778h-.003c-.614-.004-1.012-.739-1.012-1.836 0-1.074.398-1.785.988-1.785zm0 0"/></svg>