<svg xmlns="http://www.w3.org/2000/svg" width="16" height="16"><path fill="#222" d="M2.484 8c-.832 0-1.5.668-1.5 1.5v4c0 .832.668 1.5 1.5 1.5h9.012c.832 0 1.5-.668 1.5-1.5v-4c0-.832-.668-1.5-1.5-1.5zm.063 1c3.187.27 6.117.23 8.887 0 .3-.023.562.262.562.563v2.874c0 .301-.262.528-.562.563-3.004.34-5.965.328-8.887 0-.3-.035-.563-.262-.563-.563V9.563c0-.301.262-.586.563-.563zm7.945-9c-.832 0-1.5.668-1.5 1.5v4c0 .832.668 1.5 1.5 1.5h4.004C15.328 7 16 6.332 16 5.5v-4c0-.832-.672-1.5-1.504-1.5zm.063 1a20.14 20.14 0 0 0 3.882 0c.301-.027.563.262.563.563v2.875c0 .3-.262.527-.563.562-1.257.152-2.542.18-3.882 0-.297-.04-.563-.262-.563-.563V1.563c0-.3.262-.59.563-.562zm-8.07 0c-.833 0-1.5.668-1.5 1.5v3c0 .832.667 1.5 1.5 1.5h4.003c.832 0 1.504-.668 1.504-1.5v-3c0-.832-.672-1.5-1.504-1.5zm.062 1c1.691.2 2.848.129 3.879 0 .3-.04.562.262.562.563v2.874c0 .301-.261.524-.562.563-1.285.168-2.59.168-3.88 0-.3-.04-.562-.262-.562-.563V2.563c0-.3.262-.597.563-.562zm0 0"/></svg>