<svg xmlns="http://www.w3.org/2000/svg" width="16" height="16"><g fill="#222"><path d="M9.445.047a1.6 1.6 0 0 0-1.129.422l-.324.289-.32-.29C6.074-1 3.898 1.446 5.543 2.86l2.45 2.184 2.452-2.184c1.11-.953.461-2.773-1-2.812zM10.5 5c-.45 0-.887.055-1.305.156a6.337 6.337 0 0 1 1.8 1.879A3.481 3.481 0 0 1 14 10.5c0 1.945-1.555 3.5-3.5 3.5S7 12.445 7 10.5c0-.59.145-1.14.398-1.625A2.499 2.499 0 0 0 5.605 8 5.445 5.445 0 0 0 5 10.5c0 3.027 2.473 5.5 5.5 5.5s5.5-2.473 5.5-5.5S13.527 5 10.5 5zm0 0"/><path d="M5.5 16c.45 0 .887-.055 1.305-.156a6.76 6.76 0 0 1-1.13-.989 6.118 6.118 0 0 1-.671-.89A3.481 3.481 0 0 1 2 10.5C2 8.555 3.555 7 5.5 7S9 8.555 9 10.5c0 .59-.145 1.14-.398 1.629.015.016.027.031.043.047a2.499 2.499 0 0 0 1.75.824c.386-.75.605-1.602.605-2.5C11 7.473 8.527 5 5.5 5S0 7.473 0 10.5 2.473 16 5.5 16zm0 0"/></g></svg>