<svg xmlns="http://www.w3.org/2000/svg" width="16" height="16"><path fill="#222" d="M1 6.031c-.555 0-1 .446-1 1V14c0 .555.445 1 1 1h14c.555 0 1-.445 1-1V7.031c0-.554-.445-1-1-1zM3.25 8h1.5c.137 0 .25.113.25.25v1.5c0 .137-.113.25-.25.25h-1.5A.252.252 0 0 1 3 9.75v-1.5c0-.137.113-.25.25-.25zm3 0h1.5c.137 0 .25.113.25.25v1.5c0 .137-.113.25-.25.25h-1.5A.252.252 0 0 1 6 9.75v-1.5c0-.137.113-.25.25-.25zm3 0h1.5c.137 0 .25.113.25.25v1.5c0 .137-.113.25-.25.25h-1.5A.252.252 0 0 1 9 9.75v-1.5c0-.137.113-.25.25-.25zm3 0h1.5c.137 0 .25.113.25.25v1.5c0 .137-.113.25-.25.25h-1.5a.252.252 0 0 1-.25-.25v-1.5c0-.137.113-.25.25-.25zm-7 3h5.5c.137 0 .25.113.25.25v1.5c0 .137-.113.25-.25.25h-5.5a.252.252 0 0 1-.25-.25v-1.5c0-.137.113-.25.25-.25zM11 5.016h-1a1.14 1.14 0 0 1-.719-.286L8 3.57 6.719 4.73A1.14 1.14 0 0 1 6 5.016H5v-.907c0-.28.09-.504.281-.683L8 1.016l2.719 2.41c.191.18.281.402.281.683zm0 0"/></svg>