<svg xmlns="http://www.w3.org/2000/svg" width="16" height="16"><path fill="#222" d="M8 .031C3.598.031.031 3.598.031 8S3.598 15.969 8 15.969 15.969 12.402 15.969 8 12.402.031 8 .031zm.152 2.977a2.99 2.99 0 0 1 1.97.87 3.004 3.004 0 0 1 .648 3.27A2.998 2.998 0 0 1 9 8.82V10H7V8c0-.55.45-1 1-1a.99.99 0 0 0 .922-.617.992.992 0 0 0-.215-1.09.992.992 0 0 0-1.09-.215A.99.99 0 0 0 7 6H5c0-1.21.734-2.309 1.852-2.77a2.945 2.945 0 0 1 1.3-.222zM8 11c.55 0 1 .45 1 1s-.45 1-1 1-1-.45-1-1 .45-1 1-1zm0 0"/></svg>