<svg xmlns="http://www.w3.org/2000/svg" width="16" height="16"><g fill="#222"><path d="M3 3c-1.11 0-2 .89-2 2v6c0 1.11.89 2 2 2h6c1.11 0 2-.89 2-2V5c0-1.11-.89-2-2-2zm.363 2h5.274A.36.36 0 0 1 9 5.363v5.274a.36.36 0 0 1-.363.363H3.363A.36.36 0 0 1 3 10.637V5.363A.36.36 0 0 1 3.363 5zM11 8l3-3h1v6h-1zm0 0"/><path d="M4.98 5.988 4.97 6H4v.973l-.008.007.008.004V7h.016l.992.988-1.016 1.008L4 9v1h1v-.027l1-.996 1 .996V10h1V9l.004-.004-1.012-1.008L7.98 7h.016v-.016l.008-.007-.008-.004V6h-.969l-.011-.016L7 6h-.004v.004L6 7l-1-.996V6h-.004zm0 0"/></g></svg>