<svg xmlns="http://www.w3.org/2000/svg" width="16" height="16"><path fill="#222" d="M4 1C2 1 2 3 2 3h11v11H2s0 2 2 2h9s.457.016.95-.23c.488-.247 1.05-.938 1.05-1.77V3c0-.832-.563-1.523-1.05-1.77C13.456.984 13 1 13 1zM1.5 4a.499.499 0 1 0 0 1h2a.499.499 0 1 0 0-1zm7.023.992-.238.012a3.507 3.507 0 0 0-3.258 3.934A3.505 3.505 0 0 0 8.512 12c.851 0 1.644-.273 1.644-.273l-.312-.954S9.137 11 8.512 11A2.497 2.497 0 0 1 6.02 8.812a2.499 2.499 0 0 1 1.867-2.738 2.841 2.841 0 0 1 1.808.164c.528.242.89.633 1.004 1.063.125.46.086.969-.086 1.273-.097.176-.402.356-.613.426v-.5C10 7.676 9.324 7 8.5 7S7 7.676 7 8.5 7.676 10 8.5 10c.176 0 .344-.04.5-.094v.043l.45.051c.94.094 1.69-.32 2.038-.938.348-.617.356-1.359.18-2.019-.211-.785-.82-1.375-1.555-1.711a3.747 3.747 0 0 0-1.59-.34zM1.5 6a.499.499 0 1 0 0 1h2a.499.499 0 1 0 0-1zm0 2a.499.499 0 1 0 0 1h2a.499.499 0 1 0 0-1zm7 0c.281 0 .5.219.5.5s-.219.5-.5.5-.5-.219-.5-.5.219-.5.5-.5zm-7 2a.499.499 0 1 0 0 1h2a.499.499 0 1 0 0-1zm0 2a.499.499 0 1 0 0 1h2a.499.499 0 1 0 0-1zm0 0"/></svg>