<svg xmlns="http://www.w3.org/2000/svg" width="16" height="16"><path fill="#222" d="M5 1c-.555 0-1 .445-1 1v5c0 .555.445 1 1 1h5c.555 0 1-.445 1-1V2c0-.555-.445-1-1-1zm-4 .777v5.446h.344l2.39-2.746-2.37-2.7zm11.5.715a.499.499 0 0 0-.492.508v4.555c0 .824-.645 1.492-1.524 1.492H6a.5.5 0 1 0 0 1h4.484c1.403 0 2.524-1.129 2.524-2.492V3a.504.504 0 0 0-.145-.363.504.504 0 0 0-.363-.145zM14.492 4a.499.499 0 0 0-.492.508v3.508c0 1.765-1.504 3.007-3.098 3.007H7.477a.5.5 0 1 0 0 1h3.425c2.118 0 4.098-1.675 4.098-4.007V4.508a.504.504 0 0 0-.145-.363.504.504 0 0 0-.363-.145zm0 0"/></svg>