<svg xmlns="http://www.w3.org/2000/svg" width="16" height="16"><path fill="#222" d="M15 0C9.867 0 6.055 1.031 3.543 3.543S0 9.867 0 15c0 .55.45 1 1 1 5.133 0 8.945-1.031 11.457-3.543S16 6.133 16 1c0-.55-.45-1-1-1zm-1.137 2.137c-.058 1.433-.199 2.726-.433 3.879L9.984 2.57c1.153-.234 2.446-.375 3.88-.433zM8.672 3 13 7.254C12.707 9 11.785 10.3 11.043 11.043S9 12.586 7.238 13L3 8.82c.398-1.578 1.215-3.12 1.957-3.863.742-.742 2.297-1.52 3.715-1.957zM2.57 9.984l3.446 3.446c-1.153.234-2.446.375-3.88.433.06-1.433.2-2.726.434-3.879zm0 0"/></svg>