<svg xmlns="http://www.w3.org/2000/svg" width="16" height="16"><path fill="#222" d="M4 2C2.34 2 1.367 3.3 1 5l-1 5c-.281 1.457 1.34 3 3 3s3-1.34 3-3h.004A1.994 1.994 0 0 1 8 8.043 1.995 1.995 0 0 1 10 10c0 1.66 1.34 3 3 3s3.324-1.371 3-3l-1-5c-.324-1.629-1.34-3-3-3zm.25 2h.5c.137 0 .25.113.25.25V5h.75c.137 0 .25.113.25.25v.5c0 .137-.113.25-.25.25H5v.75c0 .137-.113.25-.25.25h-.5A.252.252 0 0 1 4 6.75V6h-.75A.252.252 0 0 1 3 5.75v-.5c0-.137.113-.25.25-.25H4v-.75c0-.137.113-.25.25-.25zm5.719-.031c.59 0 1.062.476 1.062 1.062S10.56 6.094 9.97 6.094a1.064 1.064 0 0 1 0-2.125zm3.011 1.937a1.078 1.078 0 1 1 0 2.157 1.078 1.078 0 0 1 0-2.157zm0 0"/></svg>