<svg xmlns="http://www.w3.org/2000/svg" width="16" height="16"><path fill="#222" d="M8 1c-2.05 0-4.098.781-5.656 2.34-3.117 3.113-3.117 8.195 0 11.312a1.001 1.001 0 0 0 1.68-.976l.796-.793-.707-.707-.695.695a6 6 0 0 1-1.402-3.375H3v-1h-.984a5.977 5.977 0 0 1 1.402-3.375l.695.691.707-.707-.695-.69a6.013 6.013 0 0 1 3.313-1.4.743.743 0 0 0-.102.364l-.04 3.746A1.99 1.99 0 0 0 6 8.996c0 1.102.895 2 2 2a2.002 2.002 0 0 0 .8-3.836l.04-3.765a.726.726 0 0 0-.094-.36 6 6 0 0 1 3.129 1.375l-.691.695.707.707.691-.69a5.977 5.977 0 0 1 1.402 3.374H13v1h.984a6 6 0 0 1-1.402 3.375l-.695-.695-.707.707.8.797a1 1 0 0 0 1.676.973c3.117-3.118 3.117-8.2 0-11.313A7.965 7.965 0 0 0 8 1zm0 0"/></svg>