<svg xmlns="http://www.w3.org/2000/svg" width="16" height="16"><g fill="#2e3436"><path d="M7.996 12a2 2 0 0 0-1.715.973H2.996a1 1 0 1 0 0 2h3.246a2.009 2.009 0 0 0 1.754 1.039 2.007 2.007 0 0 0 1.75-1.04h3.262c.55 0 1-.449 1-1 0-.55-.45-1-1-1H9.715A2.011 2.011 0 0 0 7.996 12zm0 1C8.551 13 9 13.45 9 14.008c0 .555-.45 1.004-1.004 1.004a1.005 1.005 0 1 1 0-2.012zm0 0"/><path d="M6.992 10H9v3H6.992zM4.008 1h7.984A3.01 3.01 0 0 1 15 4.008V6.98a3.006 3.006 0 0 1-3.008 3.004H4.008A3.006 3.006 0 0 1 1 6.98V4.008A3.01 3.01 0 0 1 4.008 1zm0 0"/><path d="M5 4c.55 0 1 .45 1 1s-.45 1-1 1-1-.45-1-1 .45-1 1-1zm3 0c.55 0 1 .45 1 1s-.45 1-1 1-1-.45-1-1 .45-1 1-1zm0 0"/></g></svg>