<svg xmlns="http://www.w3.org/2000/svg" width="16" height="16"><g fill="#222"><path d="M12.402 4.148 7.45 9.102 7 11l1.871-.39 5-5C14.418 5.015 14.5 4.5 14 4s-1.168-.277-1.598.148zm0 0"/><path d="M8 0v1.5a.491.491 0 0 1-.492.5H4.496a1.501 1.501 0 0 0-.004 3h3.012c.18 0 .34.094.43.25A.51.51 0 0 1 8 5.5V6H2.191l-1.93 9h15.473L14 6.895l-1.684 1.687.946 4.418H2.738l1.07-5h3.329l2-2H9v-.5A1.501 1.501 0 0 0 7.504 4H4.492a.49.49 0 0 1-.426-.25.497.497 0 0 1 0-.5.49.49 0 0 1 .43-.25h3.012A1.499 1.499 0 0 0 9 1.5V0zm0 0"/></g></svg>