<svg xmlns="http://www.w3.org/2000/svg" width="16" height="16"><path fill="#222" d="M9.5 1a1.5 1.5 0 1 0 0 3 1.5 1.5 0 0 0 0-3zm0 0"/><path d="M15 12a2 2 0 1 1-2-2 2 2 0 0 1 2 2zm-5 0c0 1.672 1.328 3 3 3s3-1.328 3-3-1.328-3-3-3-3 1.328-3 3zm-5 0a2 2 0 1 1-2-2 2 2 0 0 1 2 2zm-5 0c0 1.672 1.328 3 3 3s3-1.328 3-3-1.328-3-3-3-3 1.328-3 3zm0 0"/><path d="M8.992 12.008V9.004a.994.994 0 0 0-.5-.867L5.934 6.66l.363 1.363 1.672-2.89-1.367.363.91.527-.407-.437c.774 1.621 1.97 1.934 1.97 1.934s.577.242 1.937.43a1.002 1.002 0 0 0 1.129-.852 1.001 1.001 0 0 0-.856-1.13c-1.18-.163-1.601-.355-1.601-.355s-.426-.164-.77-.886a1.014 1.014 0 0 0-.402-.438l-.91-.523a.994.994 0 0 0-1.364.367l-1.672 2.89a.999.999 0 0 0 .368 1.368l2.558 1.48-.5-.867v3.004a1 1 0 1 0 2 0zm0 0"/></svg>