<svg xmlns="http://www.w3.org/2000/svg" width="16" height="16"><path fill="#222" d="M6.5 1A3.514 3.514 0 0 0 3 4.5c0 .941.387 1.79 1 2.418v1.883L1.555 7.168A1.038 1.038 0 0 0 1 7H0v6h1v-.004a.955.955 0 0 0 .555-.164L4 11.199V13c0 .832.563 1.523 1.05 1.77.493.246.95.23.95.23h7s.457.016.95-.23c.488-.247 1.05-.938 1.05-1.77v-2l1-1V8h-1V6.918c.613-.629 1-1.477 1-2.418C16 2.578 14.422 1 12.5 1c-1.277 0-2.387.703-3 1.734C8.887 1.704 7.777 1 6.5 1zm0 2C7.34 3 8 3.66 8 4.5S7.34 6 6.5 6 5 5.34 5 4.5 5.66 3 6.5 3zm6 0c.84 0 1.5.66 1.5 1.5S13.34 6 12.5 6 11 5.34 11 4.5 11.66 3 12.5 3zm0 0"/></svg>