<svg xmlns="http://www.w3.org/2000/svg" width="16" height="16"><g fill="#222"><path d="M2.398 2A2.394 2.394 0 0 0 0 4.398v7.204A2.394 2.394 0 0 0 2.398 14h7.204A2.394 2.394 0 0 0 12 11.602V4.398A2.394 2.394 0 0 0 9.602 2zm.106 2.023h6.992a.48.48 0 0 1 .48.48v6.993a.48.48 0 0 1-.48.48H2.504a.48.48 0 0 1-.48-.48V4.504a.48.48 0 0 1 .48-.48zm0 0"/><path d="m12 8 3-3h1v6h-1zM4.984 5.984 4.97 6H4v.973l-.008.007.008.004V7h.016l.992.988-1.012 1.008L4 9v1h1v-.027l1-.996 1 .996V10h1V9l.004-.004-1.012-1.008L7.984 7H8v-.016l.004-.007L8 6.973V6h-.969l-.015-.016L7.004 6h-.008v.004L6 7l-1-.996V6h-.004zm0 0"/></g></svg>