<svg xmlns="http://www.w3.org/2000/svg" width="16" height="16"><path fill="#222" d="M8.703.023c-.55.004-1.11.168-1.617.442C6.184.949 5.37 1.773 4.773 2.84c-.601 1.066-.882 2.191-.828 3.215.024.476.13 1.082.325 1.496.398.535.273.664-.082 1.219L.883 14.184l1.32.84 3.125-5.52c.375-.649.656-.68 1.332-.66.469-.04 1.082-.16 1.516-.39.902-.485 1.715-1.31 2.312-2.376.602-1.066.883-2.191.828-3.219-.054-1.023-.48-2.015-1.37-2.52A2.472 2.472 0 0 0 8.702.024zm.477 1.68c.312.18.543.574.578 1.238.035.664-.164 1.532-.63 2.364-.468.832-.983 1.355-1.57 1.672-.581.312-1.23.32-1.542.144-.313-.18-.5-.672-.536-1.336-.035-.668.188-1.344.653-2.172.469-.832 1.105-1.449 1.691-1.765.551-.328.852-.243 1.356-.145zM12 10c-1.094 0-2 .906-2 2s.906 2 2 2 2-.906 2-2-.906-2-2-2zm0 0"/></svg>