<svg xmlns="http://www.w3.org/2000/svg" width="16" height="16"><g fill="#222"><path d="M3 3v7.52A2.474 2.474 0 0 0 5.48 13h4.04a2.47 2.47 0 0 0 2.43-2h.257A2.808 2.808 0 0 0 15 8.207V5.793A2.808 2.808 0 0 0 12.207 3H7v3.5C7 7.332 6.332 8 5.5 8S4 7.332 4 6.5V3zm9 2h.207a.77.77 0 0 1 .793.793v2.414a.77.77 0 0 1-.793.793H12zm0 0"/><path d="M4.297 0c-1.11 0-2 .89-2 2H5v4.5a.499.499 0 1 0 1 0V2h6.02c-.344-.598-.98-1-1.723-1-.414 0-.8.125-1.121.34a1.982 1.982 0 0 0-3.38-.653A1.99 1.99 0 0 0 4.297 0zm0 0"/></g></svg>