<svg xmlns="http://www.w3.org/2000/svg" width="16" height="16"><path fill="#222" d="M1 1.016c-.555 0-1 .445-1 1v6.968c0 .555.445 1 1 1h14c.555 0 1-.445 1-1V2.016c0-.555-.445-1-1-1zm2.25 1.968h1.5c.137 0 .25.114.25.25v1.5c0 .137-.113.25-.25.25h-1.5a.252.252 0 0 1-.25-.25v-1.5c0-.136.113-.25.25-.25zm3 0h1.5c.137 0 .25.114.25.25v1.5c0 .137-.113.25-.25.25h-1.5a.252.252 0 0 1-.25-.25v-1.5c0-.136.113-.25.25-.25zm3 0h1.5c.137 0 .25.114.25.25v1.5c0 .137-.113.25-.25.25h-1.5a.252.252 0 0 1-.25-.25v-1.5c0-.136.113-.25.25-.25zm3 0h1.5c.137 0 .25.114.25.25v1.5c0 .137-.113.25-.25.25h-1.5a.252.252 0 0 1-.25-.25v-1.5c0-.136.113-.25.25-.25zm-7 3h5.5c.137 0 .25.114.25.25v1.5c0 .137-.113.25-.25.25h-5.5a.252.252 0 0 1-.25-.25v-1.5c0-.136.113-.25.25-.25zM11 11h-1c-.258 0-.527.117-.719.285L8 12.445l-1.281-1.16A1.137 1.137 0 0 0 6 11H5v.906c0 .281.09.504.281.684L8 15l2.719-2.41a.885.885 0 0 0 .281-.684zm0 0"/></svg>