<svg xmlns="http://www.w3.org/2000/svg" width="16" height="16"><path fill="#222" d="M8 1.004c-1.867 0-3.73.66-5.227 1.953-.144.125-.293.25-.43.387-3.116 3.117-3.116 8.195 0 11.312a1 1 0 0 0 1.68-.973l.797-.792-.707-.707-.695.691A6 6 0 0 1 2.016 9.5H3v-1h-.984a6 6 0 0 1 1.402-3.375l.695.691.707-.707-.695-.687A6.004 6.004 0 0 1 7.5 3.016V4h1v-.984a6 6 0 0 1 3.375 1.402l-.691.691.707.707.691-.691A6 6 0 0 1 13.984 8.5H13v1h.984a5.965 5.965 0 0 1-1.195 3.117.765.765 0 0 0-.184-.258L9.82 9.83A1.999 1.999 0 0 0 8 7a2 2 0 1 0 .723 3.863l2.87 2.609c.098.09.216.14.345.168l.042.046a.997.997 0 0 0 .461 1.137 1 1 0 0 0 1.215-.168c3.117-3.117 3.117-8.195 0-11.312A7.98 7.98 0 0 0 8 1.004zm0 0"/></svg>