<svg xmlns="http://www.w3.org/2000/svg" width="16" height="16"><path fill="#222" d="M4 1c-.574 0-1.148.168-1.625.484-.48.317-.863.774-1.098 1.297s-.32 1.11-.293 1.68c.028.574.16 1.137.301 1.695L2 9h4l.71-3.012c.13-.543.255-1.09.27-1.648a3.603 3.603 0 0 0-.308-1.633 2.967 2.967 0 0 0-1.086-1.246A2.955 2.955 0 0 0 4 1zm8 2c-.574 0-1.148.168-1.625.484-.48.317-.863.774-1.098 1.297s-.32 1.11-.293 1.68c.028.574.16 1.137.301 1.695L10 11h4l.71-3.012c.13-.543.255-1.09.27-1.648a3.603 3.603 0 0 0-.308-1.633 2.967 2.967 0 0 0-1.086-1.246A2.955 2.955 0 0 0 12 3zM2 10v1h.004c0 .71.383 1.367 1 1.727a2.001 2.001 0 0 0 1.996 0c.613-.36.996-1.016.996-1.727H6v-1zm8 2v1h.004c0 .71.383 1.367 1 1.727a2.001 2.001 0 0 0 1.996 0c.613-.36.996-1.016.996-1.727H14v-1zm0 0"/></svg>