<svg xmlns="http://www.w3.org/2000/svg" width="16" height="16"><path fill="#222" d="M8 0C3.59 0 0 3.59 0 8s3.59 8 8 8 8-3.59 8-8-3.59-8-8-8zm-.523 2H8.5a.499.499 0 1 1 0 1H4.668a5.977 5.977 0 0 1 2.629-.957.527.527 0 0 1 .18-.043zM3.516 4H10a.499.499 0 1 1 0 1H2.797c.207-.36.45-.695.719-1zM2.34 6h8.16a.499.499 0 1 1 0 1H2.082a6.11 6.11 0 0 1 .258-1zM2 8h8.5a.499.499 0 1 1 0 1H2.082A6.026 6.026 0 0 1 2 8zm.34 2H10a.499.499 0 1 1 0 1H2.797a5.652 5.652 0 0 1-.457-1zm1.176 2H8.5a.499.499 0 1 1 0 1H4.668a5.99 5.99 0 0 1-1.152-1zm0 0"/></svg>