<svg xmlns="http://www.w3.org/2000/svg" width="16" height="16"><path fill="#222" d="M7.664.008a7.994 7.994 0 0 0-6.41 3.695 8.01 8.01 0 0 0 .738 9.574 8.003 8.003 0 0 0 9.395 1.97 1 1 0 1 0-.844-1.813 5.992 5.992 0 0 1-7.05-1.477 5.988 5.988 0 0 1-.552-7.18A6.001 6.001 0 0 1 14.004 8a.067.067 0 0 0 0 .04V9c0 .36-.191.684-.5.863a.995.995 0 0 1-1 0 .98.98 0 0 1-.5-.863V8c0-2.2-1.805-4-4-4-2.2 0-4 1.8-4 4 0 2.195 1.8 4 4 4a3.98 3.98 0 0 0 2.703-1.078c.223.265.488.496.797.676.926.535 2.07.535 3 0A3.014 3.014 0 0 0 16.004 9V8A8.02 8.02 0 0 0 10.242.316 7.995 7.995 0 0 0 7.664.008zM8.004 6c1.113 0 2 .883 2 2s-.887 2-2 2c-1.117 0-2-.883-2-2s.883-2 2-2zm0 0"/></svg>