<svg xmlns="http://www.w3.org/2000/svg" width="16" height="16"><path fill="#222" d="M7.969 0C4.664 0 1.945 3.008 2 5.719a13.82 13.82 0 0 0 .438 3.258c.015.09.035.183.062.28l.426 1.34c.312.985 1.242 1.587 2.078 1.352.84-.234 1.266-1.215.953-2.199l-.426-1.34c-.304-.953-1.183-1.543-2.004-1.363-.047-.684-.05-1.203-.05-1.203 0-2.371 2.007-4.313 4.492-4.313s4.5 1.922 4.492 4.375c-.008.426-.02.782-.05 1.121-.786-.101-1.602.473-1.888 1.383l-.425 1.34c-.313.984.109 1.965.949 2.2s1.765-.368 2.078-1.352l.004-.008.867.32-.016 1.746c-.003.531-.144.86-.32 1.051-.18.195-.406.293-.723.293h-2.925c0-.555-.442-1-.992-1h-.016a.993.993 0 0 0-.992 1c0 .488.351.875.808.96.059.028.121.04.184.04h3.933c.547 0 1.086-.203 1.461-.621.38-.414.575-1.004.582-1.715l.024-2.45-1.574-.581.12-.38c.009-.026.012-.05.02-.077.227-.801.43-1.883.43-3.364C14 2.984 11.273 0 7.969 0zm0 0"/></svg>