<svg xmlns="http://www.w3.org/2000/svg" width="16" height="16"><path fill="#222" d="M7.5 0A7.482 7.482 0 0 0 0 7.5a7.481 7.481 0 0 0 6.207 7.387A1.997 1.997 0 0 0 8 16h5.98c1.11 0 2-.89 2-2V8c0-.781-.44-1.453-1.093-1.781A7.478 7.478 0 0 0 7.5 0zM5.625 2.324A7.153 7.153 0 0 0 4.453 4H3.25a5.496 5.496 0 0 1 2.375-1.676zM8 2.364A5.945 5.945 0 0 1 9.48 4H8zm1.5.011A5.464 5.464 0 0 1 11.742 4h-1.12A7.178 7.178 0 0 0 9.5 2.375zM7 2.422V4H5.602A5.956 5.956 0 0 1 7 2.422zM2.598 5h1.441a7.923 7.923 0 0 0-.39 2H2.022c.063-.715.266-1.39.575-2zm2.507 0H7v1.27a1.93 1.93 0 0 0-.73.73H4.656a6.66 6.66 0 0 1 .45-2zM8 5h1.977c.128.324.23.66.304 1H8zm3.04 0h1.362c.16.316.29.652.391 1h-1.492a8.005 8.005 0 0 0-.262-1zM2.02 8h1.628c.047.68.176 1.355.395 2H2.602a5.568 5.568 0 0 1-.582-2zm2.636 0H6v2h-.89a6.763 6.763 0 0 1-.454-2zM8 8h1c.242.008.422.082.687.313L11 9.592l1.281-1.28c.176-.184.434-.301.688-.313H14v1a.904.904 0 0 1-.281.75l-1.282 1.281 1.282 1.25c.187.188.281.453.281.719v1h-1c-.266-.008-.531-.094-.719-.281L11 12.438l-1.281 1.28c-.176.2-.453.282-.719.282H8v-1a1 1 0 0 1 .281-.719l1.25-1.25L8.25 9.75C8.035 9.55 8 9.285 8 9zm-4.75 3h1.21a6.917 6.917 0 0 0 1.188 1.676A5.49 5.49 0 0 1 3.25 11zm2.363 0H6v.555A6.07 6.07 0 0 1 5.613 11zm0 0"/></svg>