<svg xmlns="http://www.w3.org/2000/svg" width="16" height="16"><g fill="#222"><path d="M13.95 8.36s0 .019.003.011L8.95 13.285l.7-.285H5.026l.707.293L2.05 9.609v-.02l6.554-6.554h.02l-.293-.707a1 1 0 0 0 .293.707zm-3.618-6.032a1 1 0 0 0-.293-.707 2.009 2.009 0 0 0-2.848 0L.637 8.176a2.006 2.006 0 0 0 0 2.847l3.683 3.684a1 1 0 0 0 .707.293h4.621a.997.997 0 0 0 .7-.285l5.015-4.922c.79-.79.79-2.059 0-2.848L10.04 1.621zm0 0"/><path d="M5.664 15h9.805a.501.501 0 0 0 0-1H5.664a.499.499 0 1 0 0 1zM4.277 7.008 10.293 13a.5.5 0 1 0 .707-.707L4.984 6.297a.496.496 0 0 0-.707.004.5.5 0 0 0 0 .707zm0 0"/><path fill-opacity=".329" d="M4.133 6.152 1.102 9.41l3.527 4.403 4.93.187 1.59-1.344zm0 0"/></g></svg>