<svg xmlns="http://www.w3.org/2000/svg" width="16" height="16"><path fill="#222" d="M8.594 1c.613.008 1.234.09 1.847.254C13.715 2.133 16 5.109 16 8.5s-2.285 6.367-5.559 7.242a7.51 7.51 0 0 1-8.437-3.492c-.277-.48-.11-1.09.367-1.367a1.006 1.006 0 0 1 1.367.367 5.493 5.493 0 0 0 6.188 2.562A5.494 5.494 0 0 0 14 8.5a5.49 5.49 0 0 0-4.074-5.313A5.493 5.493 0 0 0 3.738 5.75a1.028 1.028 0 0 1-.203.227l.02.015.008.008L1 7l1-2.313.016.012.011.012A7.514 7.514 0 0 1 8.594 1zm0 0"/><path d="M8.5 5c-.277 0-.5.223-.5.5v3.207l2.145 2.148a.507.507 0 0 0 .707 0 .505.505 0 0 0 0-.71L9 8.293V5.5c0-.277-.223-.5-.5-.5zm0 0"/><path fill="#222" d="M1 2c-.55 0-1 .45-1 1v4c0 .55.45 1 1 1h4c.55 0 1-.45 1-1s-.45-1-1-1H2V3c0-.55-.45-1-1-1zm0 0"/></svg>