<svg xmlns="http://www.w3.org/2000/svg" width="16" height="16"><g fill="#222"><path d="M14.691 10.637A4.48 4.48 0 0 0 16 7.465a4.491 4.491 0 0 0-5.727-4.328l1.204.586A5.955 5.955 0 0 0 5.957 0 5.956 5.956 0 0 0-.008 5.96c0 1.368.457 2.638 1.23 3.653a.994.994 0 0 0 .923.39.989.989 0 0 0 .796-.605.989.989 0 0 0-.125-.992 4.052 4.052 0 0 1-.824-2.445A3.966 3.966 0 0 1 5.953 2c1.613 0 3.067.98 3.672 2.473a.998.998 0 0 0 1.203.586c.219-.063.445-.094.672-.094 1.375 0 2.5 1.12 2.5 2.5 0 .687-.277 1.308-.727 1.762a1 1 0 1 0 1.418 1.41zm0 0"/><path d="M7 10v5c0 .55.45 1 1 1s1-.45 1-1v-5c0-.55-.45-1-1-1s-1 .45-1 1zM4 9v5c0 .55.45 1 1 1s1-.45 1-1V9c0-.55-.45-1-1-1s-1 .45-1 1zm6 0v5c0 .55.45 1 1 1s1-.45 1-1V9c0-.55-.45-1-1-1s-1 .45-1 1zm0 0"/></g></svg>