<svg xmlns="http://www.w3.org/2000/svg" width="16" height="16"><path fill="#222" d="M6 4v3.828c0 2.07-1.34 3.738-3 3.738S0 9.898 0 7.828V4zM1 1v2h4V1zm8.578.95a.58.58 0 0 0-.582.577v.47H7.457a.583.583 0 0 0-.582.581v4.84c0 .32.262.582.582.582h6.961c.32 0 .582-.262.582-.582v-4.84a.583.583 0 0 0-.582-.582h-1.406v-.469a.58.58 0 0 0-.582-.578zm1.414 1.921a2.16 2.16 0 1 1 .001 4.32 2.16 2.16 0 0 1 0-4.32zm0 1a1.16 1.16 0 1 0 0 2.32 1.16 1.16 0 0 0 0-2.32zM2.969 15c.004 1.008 1 1 1 1h11c1 0 1-1 1-1v-4c0-1-1-1-1-1h-8c-.555 0-1 .445-1 1v3h-2s-.996.008-1 1zm4 0v-4H10l-.031 4zm4 0v-1h1v-1h-1v-1h1v-1h1v1h1v-1h1v1h-1v1h1v1h-1v1h-1v-1h-1v1zm2-1h1v-1h-1zm0-1v-1h-1v1zm0 0"/></svg>