<svg xmlns="http://www.w3.org/2000/svg" width="16" height="16"><path fill="#222" d="M1.973 3.773a.5.5 0 0 0-.344.168C.562 5.152 0 6.527 0 7.926c0 1.402.559 2.812 1.617 4.105a.498.498 0 0 0 .703.07.498.498 0 0 0 .07-.703C1.446 10.246 1 9.066 1 7.926c0-1.137.441-2.262 1.379-3.324a.484.484 0 0 0 .125-.36.518.518 0 0 0-.168-.347.513.513 0 0 0-.363-.122zm11.984 0a.536.536 0 0 0-.285.122.501.501 0 0 0-.168.347.5.5 0 0 0 .125.363c.934 1.06 1.375 2.184 1.375 3.32 0 1.141-.445 2.321-1.387 3.473a.498.498 0 0 0 .07.704.5.5 0 0 0 .704-.07c1.058-1.294 1.613-2.704 1.613-4.102 0-1.403-.559-2.778-1.625-3.989a.503.503 0 0 0-.422-.168zm-8.102.164a.898.898 0 0 0-.855.9v6.36a.86.86 0 0 0 1.313.73l5.265-3.246a.803.803 0 0 0 .383-.68.811.811 0 0 0-.379-.684L6.379 4.07a.883.883 0 0 0-.524-.133zM3.496 4.989a.496.496 0 0 0-.41.196c-.68.886-1.07 1.824-1.078 2.793-.012.964.363 1.921 1.086 2.835.168.215.484.25.699.079a.497.497 0 0 0 .082-.7c-.617-.777-.875-1.5-.871-2.207.008-.703.289-1.425.875-2.191a.5.5 0 0 0-.383-.805zm9.016 0a.488.488 0 0 0-.293.106.498.498 0 0 0-.094.699c.586.766.867 1.488.875 2.195.008.703-.254 1.426-.867 2.203a.499.499 0 1 0 .781.621c.723-.914 1.098-1.87 1.086-2.835-.012-.97-.398-1.907-1.078-2.793a.501.501 0 0 0-.41-.196zm0 0"/></svg>