<svg xmlns="http://www.w3.org/2000/svg" width="16" height="16"><path fill="#222" d="M8 1.004c-2.05 0-4.098.781-5.656 2.34-3.117 3.117-3.117 8.195 0 11.312.308.32.789.395 1.183.192.391-.207.602-.649.516-1.082a.73.73 0 0 0 .395-.22l2.726-2.73A1.999 1.999 0 0 0 10 9a2 2 0 1 0-4 0c0 .246.047.488.137.719l-2.762 2.765c-.055.055-.09.121-.125.184A6.012 6.012 0 0 1 2.016 9.5H3v-1h-.984a6 6 0 0 1 1.402-3.375l.695.691.707-.707-.695-.687A6.004 6.004 0 0 1 7.5 3.016V4h1v-.984a6 6 0 0 1 3.375 1.402l-.691.691.707.707.691-.691A6 6 0 0 1 13.984 8.5H13v1h.984a6 6 0 0 1-1.402 3.375l-.695-.691-.707.707.8.796a.997.997 0 0 0 .461 1.137 1 1 0 0 0 1.215-.168c3.117-3.117 3.117-8.195 0-11.312A7.98 7.98 0 0 0 8 1.004zm0 0"/></svg>