<svg xmlns="http://www.w3.org/2000/svg" width="16" height="16"><g fill="#222"><path d="M1.531.469.47 1.53l14 14 1.062-1.062zm0 0"/><path d="M3.031 1c-.851 0-1.617.355-2.168.926l1.403 1.398C2.449 3.125 2.719 3 3.03 3h8.938C12.566 3 13 3.434 13 4.031V10H8.937l1 1H13v.969c0 .597-.434 1.031-1.031 1.031h-.028l1.57 1.574A3.034 3.034 0 0 0 15 11.97V4.03A3.04 3.04 0 0 0 11.969 1zM.098 3.281a2.991 2.991 0 0 0-.098.75v7.938A3.04 3.04 0 0 0 3.031 15h8.785l-2-2H8v-1.816L6.816 10H2V5.184zM2 11h5v2H3.031C2.434 13 2 12.566 2 11.969zm0 0"/></g></svg>