<svg xmlns="http://www.w3.org/2000/svg" width="16" height="16"><path fill="#222" d="M6.969 2.969.5 6.469 7 10.562l5.8-3.53h.208v2.87c-.004.032-.008.067-.008.102s.004.07.008.105v.914c.027.696.441 1.211.8 1.555.36.34.715.535.715.535l.489-.875s-.254-.14-.516-.386c-.254-.243-.46-.551-.484-.844A1.004 1.004 0 0 0 14.008 9V6.031H12.69zM7 6c.55 0 1 .223 1 .5S7.55 7 7 7s-1-.223-1-.5.45-.5 1-.5zM3.031 9.422c-.011.09-.031.18-.031.273C3 11.52 4.79 13 7 13s4-1.48 4-3.305c0-.07-.027-.136-.031-.207L7 12zm0 0"/></svg>