<svg xmlns="http://www.w3.org/2000/svg" width="16" height="16"><path fill="#222" d="M10.043 6c-.566 0-1.02.426-1.04.965h-.991A2.009 2.009 0 0 0 6 8.977v4.011C6 14.102 6.898 15 8.012 15h5.976A2.009 2.009 0 0 0 16 12.988V8.977a2.009 2.009 0 0 0-2.012-2.012H13c-.02-.54-.477-.965-1.043-.965zM11 9a2 2 0 1 1-2 2 2 2 0 0 1 2-2zm-7.992 2.984H2.69A2.715 2.715 0 0 1-.03 9.262v-.27a1 1 0 1 1 2 0v.27c0 .394.328.722.722.722h.317a1 1 0 1 1 0 2zM14 3.04v-.317A.729.729 0 0 0 13.277 2h-.27a1 1 0 1 1 0-2h.27A2.717 2.717 0 0 1 16 2.723v.316a1 1 0 1 1-2 0zm-14 0v-.317A2.717 2.717 0 0 1 2.723 0h.27a1 1 0 1 1 0 2h-.27A.729.729 0 0 0 2 2.723v.316a1 1 0 1 1-2 0zm0 0"/></svg>