<svg xmlns="http://www.w3.org/2000/svg" width="16" height="16"><g fill="#222"><path d="M2 1a1 1 0 0 0-.707 1.707l12 12a1 1 0 1 0 1.414-1.414l-12-12A1 1 0 0 0 2 1zm0 0"/><path d="M5.95.125c-.755.02-1.434.46-1.755 1.14a.997.997 0 0 0-.32.735v.5a.92.92 0 0 0 .074.371L8.016 9.11c.152.38.52.625.93.63L11.18 11l2.047 3.191c.144.387.406.809.824.809h.824c.55 0 1-.45 1-1s-.45-1-1-1h-.805l-1.258-3.352A1.002 1.002 0 0 0 11.875 9H8.551l-.399-1H11c.55 0 1-.45 1-1s-.45-1-1-1H7.352L6.57 4.043A2.002 2.002 0 0 0 6 .125h-.047zM2.855 6.672c-.261.246-.5.52-.707.812l1.399 1.403c.18-.32.394-.617.66-.86zm-1.273 1.84a5.139 5.139 0 0 0-.34 1.25l2.207 2.203a3.37 3.37 0 0 1-.34-1.453c0-.149.028-.29.043-.43zm-.324 2.851a5.318 5.318 0 0 0 4.375 4.375zm7.71 1.422c-.245.27-.538.485-.855.664l1.371 1.371c.29-.21.555-.453.797-.722zm-3.937.762 2.2 2.203a4.97 4.97 0 0 0 1.238-.352L6.914 13.84c-.144.02-.281.043-.43.043a3.338 3.338 0 0 1-1.453-.336zm0 0"/></g></svg>