<svg xmlns="http://www.w3.org/2000/svg" width="16" height="16"><g fill="#2e3436"><path d="M6 .988c-1.11 0-2 .89-2 2v1a3.089 3.089 0 0 0-2.996 3.094v4.77a3.086 3.086 0 0 0 3.094 3.093h7.836c1.71 0 3.09-1.379 3.09-3.093v-4.77c0-1.7-1.352-3.066-3.044-3.094v-1c0-1.11-.89-2-2-2zm1.996 4.024a3.994 3.994 0 0 1 0 7.988 3.99 3.99 0 0 1-3.992-3.996 3.99 3.99 0 0 1 3.992-3.992zm0 0"/><path d="M8.02 7.016h.011c1.106 0 2 .894 2 2v.011a2 2 0 0 1-2 2H8.02c-1.102 0-2-.898-2-2v-.011a2 2 0 0 1 2-2zm0 0"/></g></svg>