<svg xmlns="http://www.w3.org/2000/svg" width="16" height="16"><g fill="#222"><path d="M4 1C2.34 1 1 2.34 1 4v1h2V4c0-.555.445-1 1-1h8c.555 0 1 .445 1 1v6c0 .555-.445 1-1 1H9v2h3c1.66 0 3-1.34 3-3V4c0-1.66-1.34-3-3-3zm5 13.023V16h3c1 0 1-1 1-1s-.05-.844-4-.977zm0 0"/><path d="M2.281 6C1.571 6 1 6.57 1 7.281v7.438C1 15.429 1.57 16 2.281 16H6.72C7.429 16 8 15.43 8 14.719V7.28C8 6.571 7.43 6 6.719 6zm.13 1H3c0 .555.445 1 1 1h1c.555 0 1-.445 1-1h.59a.41.41 0 0 1 .41.41v6.164a.41.41 0 0 1-.41.41H2.41a.41.41 0 0 1-.41-.41V7.41A.41.41 0 0 1 2.41 7zm0 0"/></g></svg>