<svg xmlns="http://www.w3.org/2000/svg" width="16" height="16"><g fill="#222"><path d="M2.2 0C.991 0 0 1.008 0 2.207v10.586C0 13.993.992 15 2.2 15h11.6c1.208 0 2.2-1.008 2.2-2.207V2.207C16 1.007 15.008 0 13.8 0zm0 2h11.6c.122 0 .2.07.2.207v10.586c0 .137-.078.207-.2.207H2.2c-.122 0-.2-.07-.2-.207V2.207C2 2.07 2.078 2 2.2 2zm0 0"/><path d="M4.516 5.898a.62.62 0 0 0-.442.176.61.61 0 0 0 0 .852L5.652 8.5l-1.578 1.574a.61.61 0 0 0 0 .852.61.61 0 0 0 .852 0l2-2a.61.61 0 0 0 0-.852l-2-2a.642.642 0 0 0-.41-.176zM8 10v1h3v-1zm0 0"/></g></svg>