<svg xmlns="http://www.w3.org/2000/svg" width="16" height="16"><path fill="#222" d="M8 1C4.148 1 1.031 4.117 1.031 7.969S4.148 14.937 8 14.937s6.969-3.117 6.969-6.968S11.852 1 8 1zM5 4.969h1.031c.254.011.512.129.688.312L8 6.563 9.313 5.28c.265-.23.445-.304.687-.312h1v1c0 .285-.035.55-.25.75L9.469 8l1.25 1.25c.187.188.281.453.281.719v1h-1c-.266 0-.531-.094-.719-.281L8 9.405l-1.281 1.281A1.016 1.016 0 0 1 6 10.97H5v-1c0-.266.094-.531.281-.719L6.563 8 5.28 6.719a.904.904 0 0 1-.28-.75zm0 0"/></svg>