<svg xmlns="http://www.w3.org/2000/svg" width="16" height="16"><path fill="#222" d="M8 0C3.598 0 0 3.598 0 8s3.598 8 8 8 8-3.598 8-8-3.598-8-8-8zm0 1.98c3.34 0 6.02 2.68 6.02 6.02S11.34 14.02 8 14.02 1.98 11.34 1.98 8 4.66 1.98 8 1.98zM5.5 5a.502.502 0 0 0-.355.855l.027.02.621.625-.621.625-.027.02A.51.51 0 0 0 5 7.5c0 .277.223.5.5.5a.51.51 0 0 0 .355-.145c.004-.007.012-.011.016-.02l.984-.98a.516.516 0 0 0 0-.71l-.98-.973-.02-.027-.003.003A.497.497 0 0 0 5.5 5zm5 0a.497.497 0 0 0-.352.148l-.003-.003-.02.027-.98.973a.514.514 0 0 0 0 .71l.984.98c.004.009.012.013.016.02A.51.51 0 0 0 10.5 8c.277 0 .5-.223.5-.5a.51.51 0 0 0-.145-.355l-.027-.02-.621-.625.621-.625.027-.02A.51.51 0 0 0 11 5.5c0-.277-.223-.5-.5-.5zM8 9c-1.797.004-3.402 1.207-4 3h8c-.598-1.793-2.203-2.996-4-3zm0 0"/></svg>