<svg xmlns="http://www.w3.org/2000/svg" width="16" height="16"><path fill="#222" d="M8 .16c-1.738 0-2.453.336-3.375 1.094-1.574 1.605-1.988 2.98-1.156 5-1.086.742-2.438 3.719-2.438 4.906.004-.074 1.586.953 1.586.953-.851.5-1.219 1.344-.992 2.078.379 1.215 2.113 1.907 3.313 1.907 1.144.043 1.875-.215 2.093-1.032.332.055.63.094.969.094s.637-.043.969-.097c.219.82.949 1.078 2.094 1.035 1.199 0 2.933-.692 3.312-1.907.227-.734-.14-1.578-.992-2.078 0 0 1.586-1.027 1.586-.953 0-1.187-1.352-4.164-2.438-4.906.832-2.02.418-3.395-1.156-5C10.453.496 9.738.16 8 .16zM7 2.238c1.156-.058.566 1.492 1 1.492v-.003c.434.003-.156-1.547 1-1.489 2.918-.078 2.418 3.59 1.27 4.196 1.523 1.222 2.722 3.43 1.949 4.628l-.29.45c-.398-.051-1.308-.29-2.011.289-.45.39-.98.691-.918 1.949.004.094 0 .41 0 .41H7s-.004-.316 0-.41c.063-1.258-.469-1.559-.918-1.95-.703-.577-1.613-.34-2.012-.288l-.289-.45c-.773-1.199.426-3.406 1.95-4.628C4.581 5.828 4.081 2.16 7 2.238zM6.453 4.16A.453.453 0 0 0 6 4.613v.094c0 .25.203.453.453.453h.094c.25 0 .453-.203.453-.453v-.094a.453.453 0 0 0-.453-.453zm3.047 0a.499.499 0 1 0 0 1c.277 0 .5-.222.5-.5s-.223-.5-.5-.5zM8 5.57c-.715.008-2.031.746-2.031.746C5.246 6.75 7.589 7.66 8 7.563c.41.097 2.754-.813 2.031-1.247 0 0-1.316-.738-2.031-.746zm0 0"/></svg>