<svg xmlns="http://www.w3.org/2000/svg" width="16" height="16"><g fill="#2e3436"><path d="M5.973 5.023a1 1 0 1 0-.001 2.001 1 1 0 0 0 0-2zM9.137 7.2l-1.75 2.438a.58.58 0 0 1-.438.246.595.595 0 0 1-.472-.176l-.41-.418a.872.872 0 0 0-1.352.125l-.742 1.11v1c0 .5.5.5.5.5h7s.472-.032.5-.5V9.374a1.03 1.03 0 0 0-.239-.664l-1.277-1.555a.84.84 0 0 0-1.32.043zm0 0"/><path d="M3.973 1.023c-1.645 0-3 1.356-3 3v8c0 1.649 1.355 3 3 3h8c1.644 0 3-1.351 3-3v-8c0-1.644-1.356-3-3-3zm0 2h8c.57 0 1 .43 1 1v8c0 .575-.43 1-1 1h-8c-.57 0-1-.425-1-1v-8c0-.57.43-1 1-1zm0 0"/></g></svg>