<svg xmlns="http://www.w3.org/2000/svg" width="16" height="16"><path fill="#222" d="M.012 13.195c0 .965.781 1.742 1.746 1.742h12.449c.965 0 1.742-.777 1.742-1.742V2.742c0-.965-.777-1.746-1.742-1.746H1.757C.794.996.013 1.773.013 2.742zm1.968-.875V3.617a.77.77 0 0 1 .016-.137.44.44 0 0 1 .04-.12.4.4 0 0 1 .062-.114.612.612 0 0 1 .176-.176.4.4 0 0 1 .113-.062.44.44 0 0 1 .12-.04.775.775 0 0 1 .138-.011h7.68c.042 0 .09.004.132.012s.086.02.125.039a.43.43 0 0 1 .11.062c.035.024.07.047.097.078a.64.64 0 0 1 .082.098.57.57 0 0 1 .063.11.709.709 0 0 1 .035.124c.011.043.015.09.015.133v8.707c0 .047-.004.09-.015.133-.008.043-.02.086-.035.125s-.04.074-.063.11a.495.495 0 0 1-.082.097.614.614 0 0 1-.207.145.657.657 0 0 1-.125.035.495.495 0 0 1-.133.015h-7.68a.524.524 0 0 1-.136-.015.498.498 0 0 1-.23-.098.667.667 0 0 1-.102-.082.659.659 0 0 1-.078-.097c-.024-.036-.047-.07-.063-.11s-.027-.082-.035-.125c-.012-.043.027-.152-.016-.133zm1-1.465a1 1 0 1 0 2 0 1 1 0 1 0-2 0zm0-6.023a1 1 0 1 0 2.001.001 1 1 0 0 0-2-.001zm5 6.023a1 1 0 1 0 2 0 1 1 0 1 0-2 0zm0-6.023a1 1 0 1 0 2.001.001 1 1 0 0 0-2-.001zm4.743 2.988c0-.554.34-1 .761-1 .426 0 .766.446.762 1 0 .555-.336 1-.762 1-.421 0-.761-.445-.761-1zm-9.754.028c0 .554.445 1 1 1s1-.446 1-1c0-.555-.446-1-1-1s-1 .445-1 1zm5 0c0 .554.445 1 1 1s1-.446 1-1c0-.555-.446-1-1-1s-1 .445-1 1zm3.98-2.985c0-.554.34-1 .762-1 .426 0 .762.446.762 1 0 .555-.336 1-.762 1-.422 0-.762-.445-.762-1zm1.512 5.977c0-.55.344-1 .766-1 .421 0 .761.45.761 1 0 .555-.34 1-.761 1-.422 0-.766-.445-.766-1zm0 0"/></svg>