<svg xmlns="http://www.w3.org/2000/svg" width="16" height="16"><path fill="#222" d="M1.5 1a.502.502 0 0 0-.355.145.512.512 0 0 0 0 .71l13 13a.512.512 0 0 0 .71 0 .512.512 0 0 0 0-.71l-1.898-1.895a7.974 7.974 0 0 0 2.781-4.238A7.997 7.997 0 0 0 8 2a7.962 7.962 0 0 0-4.125 1.168l-2.02-2.023A.502.502 0 0 0 1.5 1zM8 4a3.993 3.993 0 0 1 3.156 6.45L9.72 9.011C9.899 8.707 10 8.359 10 8a2 2 0 0 0-2-2c-.36 0-.707.098-1.012.281L5.551 4.844A3.961 3.961 0 0 1 8 4zm-5.785.508c-.23.242-.445.5-.64.773L4.011 7.72c.031-.395.117-.785.261-1.153zM.96 6.254a8.297 8.297 0 0 0-.441.969l6.574 6.562c.406.215 1.445.121 1.394.121l-2.113-2.234a4.023 4.023 0 0 1-2.03-2.032zM8.5 7c.277 0 .5.223.5.5a.506.506 0 0 1-.324.469l-.645-.64A.504.504 0 0 1 8.5 7zM6.023 8.316c.13.868.813 1.551 1.68 1.68zm-5.511.485A7.998 7.998 0 0 0 5 13.43a.5.5 0 0 0-.145-.285zm8.937 2.941a3.894 3.894 0 0 1-1.148.262l1.738 1.742a8.42 8.42 0 0 0 .961-.324.53.53 0 0 0-.145-.277zm0 0"/></svg>