<svg xmlns="http://www.w3.org/2000/svg" width="16" height="16"><g fill="#222"><path d="M8 0C6 0 6 2 6 2v1h2c.227 0 .438.027.64.07A.921.921 0 0 1 9 3c.45 0 .828.297.957.7 0 .003-.004.003 0 .003.309.258.543.559.688.852C11.015 5.293 11 6 11 6a2 2 0 0 1 2 2h-2v2s.004.867-.262 1.992c.086.008.172.008.262.008 5 0 5-6 5-6V2s0-2-2-2zm5 3c.55 0 1 .45 1 1s-.45 1-1 1-1-.45-1-1 .45-1 1-1zM6 5v1s0 .098.012.27C6.305 6.098 6.64 6 7 6c1.094 0 2 .906 2 2V6s-.016-.293-.145-.55C8.727 5.187 8.668 5 8 5zm3 3a2.014 2.014 0 0 1-1.852 1.992c.012.012.016.024.024.035.457.082.8.47.824.934.238.207.5.39.8.543A8.13 8.13 0 0 0 9 10zm0 0"/><path d="M8 4H2C0 4 0 6 0 6v4s0 6 5 6 5-6 5-6V6s0-2-2-2zM3 7c.55 0 1 .45 1 1s-.45 1-1 1-1-.45-1-1 .45-1 1-1zm4 0c.55 0 1 .45 1 1s-.45 1-1 1-1-.45-1-1 .45-1 1-1zm-4 4h4a2 2 0 1 1-4 0zm0 0"/></g></svg>