<svg xmlns="http://www.w3.org/2000/svg" width="16" height="16"><path fill="#222" d="M4 1.992A.641.641 0 0 0 3.91 2H2c-.555 0-1 .445-1 1s.445 1 1 1h1.77l1.125 6H4.5c-.535 0-1.031.285-1.3.75a1.511 1.511 0 0 0 0 1.5c.269.465.765.75 1.3.75h.586a1.5 1.5 0 1 0 2.828 0h3.172a1.5 1.5 0 1 0 2.914.5 1.5 1.5 0 0 0-1.438-1.496C12.543 12 12.52 12 12.5 12h-8a.498.498 0 0 1-.434-.75A.498.498 0 0 1 4.5 11h7c.648 0 1.207-.309 1.613-.754.403-.445.688-1.02.918-1.648.465-1.262.711-2.778.957-4A.498.498 0 0 0 14.5 4H4.793l-.3-1.594A.502.502 0 0 0 4 1.992zM4.98 5H6v1h1V5h1v1h1V5h1v1h1V5h1v1h1V5h.867c-.062.328-.133.664-.199 1H13v1h.45a13.88 13.88 0 0 1-.274 1H13v.465c-.078.187-.152.375-.238.535H12v.871a1.002 1.002 0 0 1-.5.129H11V9h-1v1H9V9H8v1H7V9H6v1h-.086l-.187-1H6V8h-.457l-.188-1H6V6h-.832zM6 7v1h1V7zm1 0h1V6H7zm1 0v1h1V7zm1 0h1V6H9zm1 0v1h1V7zm1 0h1V6h-1zm1 0v1h1V7zm0 1h-1v1h1zm-2 0H9v1h1zM8 8H7v1h1zm0 0"/></svg>