<svg xmlns="http://www.w3.org/2000/svg" width="16" height="16"><path fill="#2e3436" d="M11.996 12a2.008 2.008 0 0 0-1.715.973H6.996c-.55 0-1 .449-1 1 0 .55.45 1 1 1h3.246a2.009 2.009 0 0 0 1.754 1.039 2.002 2.002 0 0 0 1.75-1.04h1.281c.551 0 1-.449 1-1 0-.55-.449-1-1-1h-1.312A2.011 2.011 0 0 0 11.996 12zm0 1c.555 0 1.004.45 1.004 1.008A1.007 1.007 0 1 1 11.996 13zm0 0"/><path fill="#2e3436" d="M10.992 10H13v3h-2.008zm0 0"/><path fill="none" stroke="#2e3436" stroke-linecap="round" stroke-width="2" d="M11.09 2.996h1.82c1.152 0 2.09.938 2.09 2.09v2.809a2.09 2.09 0 0 1-2.09 2.09h-1.82A2.09 2.09 0 0 1 9 7.894v-2.81c0-1.151.938-2.089 2.09-2.089zm0 0"/><path fill="#2e3436" d="M4.027 12a2.013 2.013 0 0 1 1.715.973h3.285c.551 0 1 .449 1 1 0 .55-.449 1-1 1H5.781a2.009 2.009 0 0 1-1.754 1.039 2.002 2.002 0 0 1-1.75-1.04H.997a1.001 1.001 0 0 1 0-2h1.312A2.011 2.011 0 0 1 4.027 12zm0 1c-.554 0-1.007.45-1.004 1.008A1.007 1.007 0 1 0 4.027 13zm0 0"/><path fill="#2e3436" d="M5.031 10H3.023v3h2.008zm0 0"/><path fill="none" stroke="#2e3436" stroke-linecap="round" stroke-width="2" d="M4.934 2.996h-1.82a2.09 2.09 0 0 0-2.09 2.09v2.809c0 1.156.933 2.09 2.09 2.09h1.82a2.09 2.09 0 0 0 2.09-2.09v-2.81a2.093 2.093 0 0 0-2.09-2.089zm0 0"/><path fill="#222" d="M1 7h6v1.05H1zm8 0h6v1.05H9zm0 0"/></svg>