<svg xmlns="http://www.w3.org/2000/svg" width="16" height="16"><path fill="#222" d="M12.738 0c-.086.36-.164.707-.25 1.066A2.012 2.012 0 0 0 11 3c0 .512.195.98.516 1.332a14.736 14.736 0 0 1-1.41 2.805c-.211.316-.438.617-.68.91A1.948 1.948 0 0 0 9 8a2.009 2.009 0 0 0-1.984 2.238c-.79.5-1.696.918-2.75 1.219A1.977 1.977 0 0 0 3 11a2 2 0 0 0-1.7.953C.884 11.984.454 12 0 12v2c.43 0 .844-.016 1.246-.043.34.621 1 1.043 1.754 1.043 1 0 1.836-.746 1.98-1.707 1.2-.371 2.262-.871 3.196-1.473.25.117.531.18.824.18 1.098 0 2-.902 2-2a2.02 2.02 0 0 0-.098-.617c.317-.371.61-.75.871-1.145.704-1.066 1.235-2.183 1.657-3.285.894-.2 1.57-1 1.57-1.953 0-.543-.219-1.04-.574-1.398.133-.567.254-1.094.367-1.602zM13 2c.559 0 1 .441 1 1s-.441 1-1 1-1-.441-1-1 .441-1 1-1zM9 9c.559 0 1 .441 1 1s-.441 1-1 1-1-.441-1-1 .441-1 1-1zm-6 3c.559 0 1 .441 1 1s-.441 1-1 1-1-.441-1-1 .441-1 1-1zm0 0"/></svg>