<svg xmlns="http://www.w3.org/2000/svg" width="16" height="16"><path fill="#222" fill-rule="evenodd" d="m4.996 9.996 7-7 2 2-7 7h-2zm9.156-8.894a.512.512 0 0 0-.363.152l-1.16 1.16 2.004 2.004 1.16-1.16a.514.514 0 0 0 0-.73l-1.277-1.274a.505.505 0 0 0-.364-.152zm0 0"/><path d="M3 0C1.355 0 0 1.355 0 3v9.809A3.208 3.208 0 0 0 3.191 16H10c1.645 0 3-1.355 3-3V7.992l-2 2V13c0 .562-.438 1-1 1H3.191A1.176 1.176 0 0 1 2 12.809V3c0-.563.437-1 1-1h4.586l1.703 1.703 1.414-1.414L8.707.293A1 1 0 0 0 8 0zm0 0"/></svg>