<svg xmlns="http://www.w3.org/2000/svg" width="16" height="16"><path fill="#222" d="M8 0C3.598 0 0 3.598 0 8s3.598 8 8 8 8-3.598 8-8-3.598-8-8-8zm0 1.98c3.34 0 6.02 2.68 6.02 6.02S11.34 14.02 8 14.02 1.98 11.34 1.98 8 4.66 1.98 8 1.98zM5.445 5.004a.514.514 0 0 0-.3.14l-.973.981-.027.02.003.003A.497.497 0 0 0 4.5 7a.51.51 0 0 0 .355-.145l.02-.027.625-.621.625.621.02.027A.51.51 0 0 0 6.5 7c.277 0 .5-.223.5-.5a.51.51 0 0 0-.145-.355c-.007-.004-.011-.012-.02-.016l-.98-.984a.516.516 0 0 0-.41-.141zm5 0a.514.514 0 0 0-.3.14l-.973.981-.027.02.003.003A.497.497 0 0 0 9.5 7a.51.51 0 0 0 .355-.145l.02-.027.625-.621.625.621.02.027A.51.51 0 0 0 11.5 7c.277 0 .5-.223.5-.5a.51.51 0 0 0-.145-.355c-.007-.004-.011-.012-.02-.016l-.98-.984a.516.516 0 0 0-.41-.141zM4 9c.598 1.793 2.203 2.996 4 3 1.797-.004 3.402-1.207 4-3zm0 0"/></svg>