<svg xmlns="http://www.w3.org/2000/svg" width="16" height="16"><g fill="#222"><path d="M8 1a.503.503 0 0 0-.469.32L5.805 5.81 1.32 7.53a.504.504 0 0 0 0 .938l4.485 1.722 1.725 4.49c.168.425.77.425.938 0l1.726-4.489L14.68 8.47a.504.504 0 0 0 0-.938L10.195 5.81 8.47 1.32A.505.505 0 0 0 8 1zm0 6c.55 0 1 .45 1 1s-.45 1-1 1-1-.45-1-1 .45-1 1-1zm0 0"/><path d="M3.48 3a.5.5 0 0 0-.43.723l.872 1.738 1.11-.43.429-1.11-1.738-.87A.51.51 0 0 0 3.48 3zm9.04 0a.51.51 0 0 0-.243.05l-1.738.872.43 1.11 1.11.429.87-1.738A.5.5 0 0 0 12.52 3zm-8.598 7.54-.871 1.737a.502.502 0 0 0 .672.672l1.738-.87-.43-1.11zm8.156 0-1.11.429-.429 1.11 1.738.87a.502.502 0 0 0 .672-.672zm0 0"/></g></svg>