<svg xmlns="http://www.w3.org/2000/svg" width="16" height="16"><g fill="#222"><path d="M4.273 1.063c-.855.003-2.359.914-2.359 2.523v9.851c0 .856.707 1.563 1.563 1.563h9.437c1.125.031.934-.988.934-.988l-9.336.023c-2.282.008-2.082-2.988-.035-2.992l9.406-.012.031-10zm.637 1.875h2.688c3.316 0 4.273 1.261 4.25 3.03C11.82 8.439 9.66 8.98 7.035 9.07c-.62.024-1.508.024-2.125.024zM6.941 4v4.031c1.946.024 3-.683 3-2.062.004-1.77-1.238-1.938-3-1.969zm0 0"/><path fill-opacity=".349" d="M2.406 11.063h10.446c-1.184.492-1.293 2.457 0 3H2.406zm0 0"/></g></svg>