<svg xmlns="http://www.w3.org/2000/svg" width="16" height="16"><g fill="#222"><path d="M9.5 10A2.5 2.5 0 0 0 7 12.5c0 .219.04.422.094.625A1.582 1.582 0 0 0 6.5 13a1.5 1.5 0 0 0 0 3h8a1.5 1.5 0 0 0 0-3 2 2 0 0 0-2-2 2 2 0 0 0-.875.219A2.473 2.473 0 0 0 9.5 10zM6.82 1.11C3.523 1.671 1 4.546 1 8a6.99 6.99 0 0 0 2.914 5.668c.313-.813 1.063-1.395 1.941-1.637a3.818 3.818 0 0 1 1.516-2.558A8.663 8.663 0 0 1 6 4.785c0-1.312.297-2.555.82-3.676zm0 0"/><path fill-opacity=".349" d="M8 1a6.9 6.9 0 0 0-1.18.11A8.659 8.659 0 0 0 6 4.784c0 1.727.504 3.332 1.371 4.688a3.566 3.566 0 0 1 2.129-.71c.996 0 1.82.484 2.484 1.125.18-.035.317-.125.516-.125.773 0 1.473.285 2.02.754.304-.782.48-1.63.48-2.516 0-3.855-3.145-7-7-7zm0 0"/></g></svg>