<svg xmlns="http://www.w3.org/2000/svg" width="16" height="16"><g fill="#2e3436"><path fill-opacity=".35" d="M4.016 1.031c-1.645 0-3 1.356-3 3v8c0 1.645 1.355 3 3 3h8c1.644 0 3-1.355 3-3v-8c0-1.644-1.356-3-3-3zm4 1a4 4 0 0 1 2.644 1h1.356c.57 0 1 .43 1 1v8c0 .57-.43 1-1 1h-2.27c-.344.598-.988 1-1.73 1s-1.387-.402-1.735-1H4.016c-.57 0-1-.43-1-1v-8c0-.57.43-1 1-1h1.37a3.999 3.999 0 0 1 2.63-1zm2.554 7.055c-.172.148-.36.281-.554.398v2.547h1.5s.472-.035.5-.5v-1zM5.746 9.3l-1.73 1.73v.5c0 .5.5.5.5.5h1.5V9.484a3.268 3.268 0 0 1-.27-.183zm0 0"/><path d="M8.172 3.035a3.001 3.001 0 0 0-1.3.223A3.011 3.011 0 0 0 5.02 6.03h2a.996.996 0 0 1 1.707-.706 1 1 0 0 1-.707 1.707 1 1 0 0 0-1 1v2h2v-1.18a3.015 3.015 0 0 0 1.773-1.672 3.01 3.01 0 0 0-.652-3.27 3.013 3.013 0 0 0-1.97-.875zm-.152 7.996a1 1 0 1 0-.002 2 1 1 0 0 0 .002-2zm0 0"/></g></svg>