<svg xmlns="http://www.w3.org/2000/svg" width="16" height="16"><path d="M0 2.316v5.508a6.16 6.16 0 0 0 3.11 5.356L8 15.977l4.89-2.797A6.16 6.16 0 0 0 16 7.824V2.316L8 .031zm14.727 1.72L14 3.07v4.754a4.181 4.181 0 0 1-2.102 3.621l-4.394 2.508h.992l-4.394-2.508A4.181 4.181 0 0 1 2 7.825V3.07l-.727.965 7-2h-.546zm0 0"/><path d="M5.941 6.957 9 10.016a.747.747 0 1 0 1.059-1.059L7 5.898a.747.747 0 1 0-1.059 1.059zm0 0"/><path d="M9 5.898 5.941 8.957A.747.747 0 1 0 7 10.016l3.059-3.059A.747.747 0 1 0 9 5.898zm0 0"/></svg>