<svg xmlns="http://www.w3.org/2000/svg" width="16" height="16"><path fill="#222" d="M6.707 0a.498.498 0 0 0-.437.64l.425 1.544c-.425.109-.84.261-1.238.457L4.434.875a.502.502 0 1 0-.868.504l1.016 1.758c-.336.215-.664.449-.977.703l-1.25-1.254a.512.512 0 0 0-.363-.152.503.503 0 0 0-.347.859l1.222 1.219c-.281.265-.547.523-.793.793l-.719-.72a.512.512 0 0 0-.363-.151.503.503 0 0 0-.347.859l.765.762A18.28 18.28 0 0 0 0 8s3.582 6 8 6 8-6 8-6-.523-.867-1.41-1.945l.765-.762a.502.502 0 1 0-.71-.707l-.72.719c-.198-.22-.41-.426-.632-.645l1.102-1.414a.5.5 0 1 0-.79-.613l-1.05 1.344a11.477 11.477 0 0 0-.809-.63L12.82 1.61a.5.5 0 1 0-.851-.523l-1.074 1.738a7.073 7.073 0 0 0-1.13-.504l.57-1.648A.5.5 0 0 0 9.876 0a.496.496 0 0 0-.48.344l-.602 1.722A4.827 4.827 0 0 0 8 2c-.105 0-.207.02-.313.027L7.23.375A.496.496 0 0 0 6.758 0h-.055zM8 4c3.867 0 6 4 6 4s-2.133 4-6 4-6-4-6-4 2.133-4 6-4zm0 1a3 3 0 1 0 .002 6.002A3 3 0 0 0 8 5zm0 0"/></svg>