<svg xmlns="http://www.w3.org/2000/svg" width="16" height="16"><g fill="#222"><path d="M4.875 1c-.55 0-1 .45-1 1v.5a.92.92 0 0 0 .074.371l3 7.5a.993.993 0 0 0 .926.629h3.305l1.257 3.352c.149.39.52.648.938.648h1.5c.55 0 1-.45 1-1s-.45-1-1-1h-.805l-1.258-3.352A1.002 1.002 0 0 0 11.875 9H8.551L5.875 2.309V2c0-.55-.45-1-1-1zm0 0"/><path d="M8 2.125a2 2 0 1 1-2-2 2 2 0 0 1 2 2zm0 0"/><path fill-opacity=".349" d="M4.25 5.707c-1.809.848-3.066 2.684-3.066 4.8 0 2.919 2.382 5.305 5.3 5.305 1.934 0 3.582-1.066 4.489-2.628l-.489-1.227h-.957a3.349 3.349 0 0 1-3.043 1.926 3.361 3.361 0 0 1-3.375-3.375c0-1.309.743-2.422 1.825-2.985zm0 0"/><path d="M7 6c-.55 0-1 .45-1 1s.45 1 1 1h4c.55 0 1-.45 1-1s-.45-1-1-1zm0 0"/></g></svg>