<svg xmlns="http://www.w3.org/2000/svg" width="16" height="16"><path fill="#222" d="M5.074 1.938C1.938 1.625-.8 5.851 2.258 8.55L8 13.668l5.746-5.117c2.586-2.238 1.07-6.492-2.351-6.586a3.734 3.734 0 0 0-2.637.984L8 3.625l-.754-.676c-.703-.629-1.45-.941-2.172-1.011zm-.097.988c.507.047 1.039.265 1.597.77h.004L8 4.964 9.426 3.69l.008-.007a2.75 2.75 0 0 1 1.933-.72c1.301.036 2.156.817 2.516 1.825.355 1.008.191 2.156-.793 3.004l-.004.008L8 12.328 2.922 7.801h-.004c-.754-.664-.992-1.332-.996-2 0-.668.285-1.352.762-1.89.48-.536 1.128-.9 1.789-.977a3.03 3.03 0 0 1 .504-.008zm0 0"/></svg>