<svg xmlns="http://www.w3.org/2000/svg" width="16" height="16"><path fill="#222" fill-opacity=".349" d="M3.316 11c-.62-.004-1 .328-1.273.594-.273.261-.48.539-.676.793-.191.25-.37.468-.484.582-.113.11-.121.027.113.027a.998.998 0 1 0 0 1.996c.625 0 1.004-.328 1.274-.594.273-.265.484-.543.675-.793a7.39 7.39 0 0 1 .371-.445c.11.121.223.254.372.445.19.25.402.532.671.793.274.266.653.594 1.278.594.625.004 1-.328 1.273-.594.274-.261.48-.543.676-.793a7.39 7.39 0 0 1 .371-.445c.11.121.223.258.367.445.196.254.403.532.676.797s.652.594 1.273.594c.625 0 1.004-.328 1.274-.594.273-.265.484-.543.676-.793a7.39 7.39 0 0 1 .37-.445c.11.121.223.254.372.445.191.25.402.532.676.793.273.266.648.594 1.273.594a.991.991 0 0 0 .887-.488.998.998 0 0 0-.887-1.504c.238 0 .23.078.113-.031a6.24 6.24 0 0 1-.484-.582c-.195-.25-.402-.528-.676-.793-.27-.266-.648-.594-1.273-.598-.621 0-1 .332-1.274.594-.273.265-.48.543-.675.793a6.163 6.163 0 0 1-.372.445c-.105-.121-.222-.254-.37-.445-.192-.25-.4-.528-.673-.793-.273-.266-.648-.594-1.273-.594s-1.004.328-1.277.594c-.27.265-.48.543-.672.793a7.39 7.39 0 0 1-.371.445 7.39 7.39 0 0 1-.371-.445c-.196-.25-.403-.532-.676-.793-.27-.266-.65-.594-1.274-.594zm0-5.004c-.62 0-1 .328-1.273.594-.273.265-.48.543-.676.793a6.24 6.24 0 0 1-.484.582c-.113.11-.121.031.113.031A.998.998 0 0 0 .11 9.5a1 1 0 0 0 .887.488C1.621 9.992 2 9.66 2.27 9.395c.273-.262.484-.543.675-.793.149-.188.262-.32.371-.442.11.121.223.254.372.442.19.253.402.53.671.796.274.266.653.594 1.278.594s1-.328 1.273-.594c.274-.265.48-.543.676-.793a7.39 7.39 0 0 1 .371-.445c.11.121.223.254.367.445.196.25.403.532.676.793.273.266.652.594 1.273.594.625.004 1.004-.328 1.274-.594.273-.261.484-.543.676-.793a9.06 9.06 0 0 1 .37-.445c.11.121.223.254.372.445.191.254.402.532.672.797.273.266.652.594 1.277.594a.998.998 0 1 0 0-1.996c.238.004.23.082.113-.031a5.755 5.755 0 0 1-.484-.582c-.195-.25-.402-.528-.676-.793-.27-.266-.648-.594-1.273-.594-.621 0-1 .328-1.274.594-.273.265-.48.543-.675.793a6.163 6.163 0 0 1-.372.445c-.105-.121-.222-.254-.37-.445-.192-.25-.4-.532-.673-.793C8.957 6.328 8.582 6 7.957 6c-.625-.004-1.004.328-1.277.594a6.6 6.6 0 0 0-.672.793 9.23 9.23 0 0 1-.371.441 8.556 8.556 0 0 1-.371-.441c-.196-.254-.403-.532-.676-.797-.27-.266-.649-.594-1.274-.594zm0-5.004c-.62 0-1 .332-1.273.594-.273.266-.48.543-.676.797-.191.25-.37.469-.484.578-.113.113-.121.031.113.031a.998.998 0 1 0 0 1.996c.625 0 1.004-.328 1.274-.593.273-.266.484-.543.675-.793a7.39 7.39 0 0 1 .371-.446c.11.121.223.254.372.446.19.25.402.53.671.793.274.265.653.593 1.278.593.625.004 1-.328 1.273-.593.274-.262.48-.543.676-.793a7.39 7.39 0 0 1 .371-.446c.11.121.223.258.367.446.196.253.403.53.676.796s.652.594 1.273.594c.625 0 1.004-.328 1.274-.594.273-.265.484-.543.676-.793a7.39 7.39 0 0 1 .37-.445c.11.121.223.254.372.445.191.25.402.532.676.793.273.266.648.594 1.273.594a.991.991 0 0 0 .887-.488A.998.998 0 0 0 14.914 3c.238 0 .23.078.113-.031a6.24 6.24 0 0 1-.484-.582c-.195-.25-.402-.532-.676-.793-.27-.266-.648-.594-1.273-.594-.621-.004-1 .328-1.274.594-.273.261-.48.539-.675.793-.145.187-.262.32-.372.441-.105-.121-.222-.254-.37-.441-.192-.254-.4-.532-.673-.797-.273-.266-.648-.594-1.273-.594s-1.004.328-1.277.594c-.27.265-.48.543-.672.793a6.14 6.14 0 0 1-.371.441 6.14 6.14 0 0 1-.371-.441c-.196-.25-.403-.531-.676-.797-.27-.262-.649-.59-1.274-.594zm0 0"/></svg>