<svg xmlns="http://www.w3.org/2000/svg" width="16" height="16"><path fill="#222" d="M7.895 0C3.515 0 0 3.625 0 8a8 8 0 1 0 8-8h-.105zm-1.97 2.46a.62.62 0 0 1 .524.392.417.417 0 0 1-.387.437.41.41 0 0 0-.41.41v1.184c0 .441-.355.8-.797.8a.801.801 0 0 0-.8.797.798.798 0 0 1-.797.797.795.795 0 0 0-.797.797c0 .442.355.797.797.797.441 0 .8.356.797.8v2.856a5.973 5.973 0 0 1-.45-8.504l.055-.05c.235-.25.488-.48.762-.684l.039-.031c.45-.332.941-.602 1.469-.797zm4.532.435h.594c.48.28.918.628 1.304 1.035a.485.485 0 0 1-.105.011h-1.793a.52.52 0 0 1-.52-.523c0-.293.231-.523.52-.523zm-2.05.87c.32 0 .577.258.577.583v.632a.58.58 0 1 1-1.16 0v-.632a.58.58 0 0 1 .582-.582zm2.288.672h2.086a5.954 5.954 0 0 1 1.215 3.477.704.704 0 0 1-.441.168l-1.13-.008c-.671 0-1.214.547-1.218 1.219v1.348a.792.792 0 0 1-.793.796.794.794 0 0 1-.8-.796V9.77a.593.593 0 0 0-.4-.73.725.725 0 0 1-.726-.727V7.074a.851.851 0 0 1 .785-.918.714.714 0 0 0 .715-.71v-.301c0-.391.317-.707.707-.711zm0 0"/></svg>