<svg xmlns="http://www.w3.org/2000/svg" width="16" height="16"><g fill="#222"><path d="M4.2 0C2.995 0 2 1 2 2.2v11.6C2 15 2.996 16 4.2 16h7.605C13.008 16 14 15 14 13.8V2.2C14 1 13.008 0 11.805 0zm0 2h7.605c.125 0 .195.07.195.2v11.6c0 .13-.07.2-.195.2H4.199C4.074 14 4 13.93 4 13.8V2.2c0-.13.074-.2.2-.2zm0 0"/><path d="M8.781 5a1.03 1.03 0 0 0-.469.281l-3.03 3A1 1 0 0 0 5 9.187V10h2.469L6.28 11.273c-.215.22-.32.54-.281.844v.875h1c.266.004.527-.097.719-.281l3-2.992c.183-.192.289-.453.281-.719a.668.668 0 0 0 0-.125V8H8.437L9.75 6.719c.215-.219.32-.54.281-.844V5h-1a.893.893 0 0 0-.25 0zm0 0"/></g></svg>