<svg xmlns="http://www.w3.org/2000/svg" width="16" height="16"><g fill="#222"><path d="M13.004 1.023A3.031 3.031 0 0 0 9.988 4.02H9.48a.506.506 0 0 0-.449.273L8.47 5.422 6.918 2.32a.481.481 0 0 0-.29-.25.502.502 0 0 0-.382.024.501.501 0 0 0-.223.672l2 4c.204.355.68.37.895 0l.871-1.746h.379c.414 1.175 1.527 2.035 2.836 2.035a3.033 3.033 0 0 0 3.016-3.016 3.03 3.03 0 0 0-3.016-3.016zM.664 2.043a.502.502 0 0 0-.383.023.501.501 0 0 0-.222.672l1.964 4.028a.5.5 0 0 0 .895-.445L.953 2.292a.481.481 0 0 0-.289-.25zm1.965.023a.501.501 0 0 0-.605.7l2 4a.503.503 0 0 0 .671.222.503.503 0 0 0 .223-.672l-2-4a.508.508 0 0 0-.29-.25zm2 0a.501.501 0 0 0-.605.7l2 4a.503.503 0 0 0 .671.222.503.503 0 0 0 .223-.672l-2-4a.508.508 0 0 0-.29-.25zm8.375.965a.992.992 0 0 1 1.008 1.004c0 .57-.442 1.008-1.008 1.008S12 4.605 12 4.035a.989.989 0 0 1 1.004-1.004zm-2 5.992a3.031 3.031 0 0 0-3.016 2.997H7.48a.502.502 0 0 0-.492.406l-.258.847L5 10H0v4h.52c.304 0 .476-.195.476-.52L1 13l2 3h4l.895-2.98h.273c.414 1.175 1.527 2.03 2.836 2.03a3.03 3.03 0 0 0 3.016-3.01 3.03 3.03 0 0 0-3.016-3.017zm0 2.008a.993.993 0 0 1 1.008 1.008c0 .566-.442 1.004-1.008 1.004S10 12.605 10 12.039a.99.99 0 0 1 1.004-1.008zm0 0"/><path d="M.5 2c.277 0 .5.223.5.5v3c0 .277-.223.5-.5.5s-.5.008-.5.008V2.5c0-.277.223-.5.5-.5zm0 0"/></g></svg>