<svg xmlns="http://www.w3.org/2000/svg" width="16" height="16"><path fill="#222" d="M7.125 1.012a5.005 5.005 0 0 0-5.117 4.89C2 5.934 2 5.965 2 6v.008c.004.55.45.992 1 .992s.996-.441 1-.992V6a2.987 2.987 0 0 1 2.535-2.953 2.986 2.986 0 0 1 3.32 2.043 2.988 2.988 0 0 1-1.503 3.597l.074-.035c-1.04.422-1.63 1.25-1.922 1.942-.293.695-.422 1.246-.645 1.594-.355.558-.859.683-1.246.609-.379-.074-.613-.219-.613-.79V11c0-.55-.45-1-1-1s-1 .45-1 1v1.008c0 1.43 1.055 2.527 2.238 2.754 1.184.226 2.532-.29 3.305-1.496.477-.743.613-1.442.8-1.891.192-.453.302-.652.837-.871l.035-.016.039-.02a5.002 5.002 0 0 0 2.504-5.995 5.014 5.014 0 0 0-4.633-3.465zm5.758.176a1.01 1.01 0 0 0-.559.16c-.46.3-.594.922-.293 1.386a5.983 5.983 0 0 1 0 6.532c-.3.464-.168 1.086.293 1.386a1.004 1.004 0 0 0 1.383-.293 8 8 0 0 0 0-8.718.996.996 0 0 0-.824-.454zM7 4.008c-1.105 0-2 .894-2 2a2 2 0 1 0 2-2zm0 0"/></svg>