<svg xmlns="http://www.w3.org/2000/svg" width="16" height="16"><g fill="#2e3436"><path d="M4 9c-1.09 0-2-.91-2-2V2c0-1.09.91-2 2-2h6.078c.578 0 1.133.246 1.516.68l1.816 2.047c.38.43.59.98.59 1.55V7c0 1.09-.91 2-2 2zm0-2.98h8V3.996L10.066 2H4zm0 0"/><path d="M2 10.988c-1.11 0-2-.89-2-2V7c0-1.11.89-2 2-2h1v2c0 .555.445 1 1 1h8c.555 0 1-.445 1-1V5h1c1.11 0 2 .89 2 2v1.988c0 1.11-.89 2-2 2zM7.992 12c-.699 0-1.351.371-1.71.973h-3.29c-.55 0-1 .449-1 1 0 .55.45 1 1 1h3.25a2.007 2.007 0 0 0 1.75 1.039 2.009 2.009 0 0 0 1.754-1.04h3.262c.55 0 1-.449 1-1 0-.55-.45-1-1-1H9.71A2.001 2.001 0 0 0 7.992 12zm0 1a1.005 1.005 0 1 1 .005 2.013A1.005 1.005 0 0 1 7.992 13zm0 0"/><path d="M6.992 10H9v3H6.992zm0 0"/></g></svg>