<svg xmlns="http://www.w3.org/2000/svg" width="16" height="16"><path fill="#222" d="m4.078 12.29-2.426 2.35.696.72 1.695-1.65 1.879 2.005 2.043-2.008 2.008 2 1.972-2 1.707 1.652.696-.718-2.418-2.348-1.965 1.996-1.992-1.996-2.024 1.988zM5 4h5c.547 0 1 .453 1 1v3.926C11 9.516 10.516 10 9.926 10H6.008c-.59 0-1.078-.484-1.078-1.074v.035c.02-.547.488-.98 1.035-.961H12c.55 0 1-.45 1-1s-.45-1-1-1H6h.035A2.994 2.994 0 0 0 2.93 8.89v.04A3.07 3.07 0 0 0 6.008 12h3.918A3.067 3.067 0 0 0 13 8.926V5c0-1.664-1.336-3-3-3H5c-.55 0-1 .45-1 1s.45 1 1 1zm0 0"/></svg>