<svg xmlns="http://www.w3.org/2000/svg" width="16" height="16"><g fill="#222"><path d="m12.824 2.781-1.5 1.489A6.463 6.463 0 0 0 7.5 3.012c-3.578 0-6.5 2.922-6.5 6.5s2.922 6.5 6.5 6.5 6.5-2.922 6.5-6.5a6.44 6.44 0 0 0-1.262-3.825L14.234 4.2zM7.5 5.011c2.496 0 4.5 2.005 4.5 4.5 0 2.497-2.004 4.5-4.5 4.5S3 12.009 3 9.512c0-2.495 2.004-4.5 4.5-4.5zM4.879.004A.995.995 0 0 0 4.004.5a.99.99 0 0 0 0 1.008c.18.312.516.504.875.496h5.242a.987.987 0 0 0 .875-.496.99.99 0 0 0 0-1.008.995.995 0 0 0-.875-.496zm0 0"/><path d="M7 10h1V6H7zm0 0"/></g></svg>