<svg xmlns="http://www.w3.org/2000/svg" width="16" height="16"><path fill="#222" d="M2.176 0A2.169 2.169 0 0 0 0 2.176v2.648A2.17 2.17 0 0 0 2.176 7h3.648A2.169 2.169 0 0 0 8 4.824v-.332l1.852 1.38a.708.708 0 0 0 1.129-.57V1.698a.701.701 0 0 0-.391-.637.708.708 0 0 0-.742.063L8 2.5v-.324A2.169 2.169 0 0 0 5.824 0zm6.867 7C8.465 7 8 7.445 8 8h-.988A2.009 2.009 0 0 0 5 10.012v3.976C5 15.102 5.898 16 7.012 16h6.976A2.009 2.009 0 0 0 16 13.988v-3.976A2.009 2.009 0 0 0 13.988 8H13c0-.555-.465-1-1.043-1zM10.5 9c1.379 0 2.5 1.121 2.5 2.5S11.879 14 10.5 14 8 12.879 8 11.5 9.121 9 10.5 9zm0 0"/></svg>