<svg xmlns="http://www.w3.org/2000/svg" width="16" height="16"><g fill="#2e3436"><path d="M4 10v2H1v1h8.676l1-1H5v-2zm0 0"/><path d="M3 0C1.89 0 1 .89 1 2v7c0 1.11.89 2 2 2h3c1.11 0 2-.89 2-2V2c0-1.11-.89-2-2-2zm8 0C9.89 0 9 .89 9 2v7c0 1.11.89 2 2 2h3c1.11 0 2-.89 2-2V2c0-1.11-.89-2-2-2zM3 2h3v1H3zm8 0h3v1h-3zM3 4h3v5H3zm8 0h3v5h-3zM4 5v1h1V5zm8 0v1h1V5zm.504 7c-.258 0-.516.098-.711.293l-2 2a.992.992 0 0 0-.285.707H9.5v1h6.004v-1h-.008a.992.992 0 0 0-.285-.707l-2-2a1 1 0 0 0-.707-.293zm0 0"/></g></svg>