<svg xmlns="http://www.w3.org/2000/svg" width="16" height="16"><path fill="#222" d="M8.016.367 7.125 2.63c-.879 2.246-2.016 2.723-3.328 3.484-.652.383-1.379.828-1.93 1.606-.554.777-.863 1.828-.87 3.207-.013 1.816 1.198 3.187 2.593 3.976a8.689 8.689 0 0 0 4.441 1.094c1.43-.05 3.012-.504 4.356-1.32 1.34-.813 2.511-2.07 2.61-3.75.065-1.235-.196-2.242-.712-3.004-.512-.758-1.2-1.234-1.848-1.672-1.304-.867-2.554-1.543-3.46-3.648zm.054 4.79c.403.581.832.816 1.262 1.261.527 1.594.91 3.14.703 4.3-.156.88-.348 1.868-.676 2.579a2.697 2.697 0 0 1-.347.555A6.286 6.286 0 0 1 7.96 14a5.5 5.5 0 0 1-.785-.04 2.275 2.275 0 0 1-.395-.687c-.277-.722-.41-1.726-.558-2.609-.2-1.176.168-2.73.675-4.324.399-.414.797-.625 1.172-1.184zM5.508 7.382c-.29 1.191-.45 2.398-.27 3.445.14.848.262 1.902.61 2.8.004.02.015.036.023.056-.457-.137-.902-.301-1.293-.524-1.008-.57-1.59-1.277-1.582-2.222.008-1.106.219-1.668.5-2.063.281-.39.695-.676 1.309-1.031.215-.13.457-.285.703-.461zm5.242.113c.195.149.398.297.578.418.61.406 1.043.746 1.3 1.129.259.383.423.848.372 1.77-.047.785-.645 1.546-1.652 2.156-.297.18-.633.332-.973.469.332-.825.504-1.747.645-2.54.183-1.03.02-2.222-.27-3.402zm0 0"/></svg>