<svg xmlns="http://www.w3.org/2000/svg" width="16" height="16"><path fill="#222" d="M2.91.031c-.965 0-1.742.778-1.742 1.742v12.45c0 .964.777 1.746 1.742 1.746h10.203c.965 0 1.746-.781 1.746-1.746V1.773c0-.964-.78-1.742-1.746-1.742zM3.66 2h8.703c.047 0 .094.004.137.016.043.007.082.02.121.035.043.015.078.039.113.062a.64.64 0 0 1 .176.18c.028.035.047.07.063.11.02.038.03.077.039.124a.73.73 0 0 1 .011.133v7.68a.775.775 0 0 1-.011.137.44.44 0 0 1-.04.12.462.462 0 0 1-.062.114.612.612 0 0 1-.176.176c-.035.023-.07.047-.113.062a1.072 1.072 0 0 1-.121.04.774.774 0 0 1-.137.011H3.66a.774.774 0 0 1-.137-.012.641.641 0 0 1-.234-.102 1.71 1.71 0 0 1-.098-.077.95.95 0 0 1-.078-.098A.641.641 0 0 1 3 10.34V2.66a.73.73 0 0 1 .012-.133.96.96 0 0 1 .039-.125c.015-.039.039-.074.062-.109a.659.659 0 0 1 .29-.242.618.618 0 0 1 .12-.035A.544.544 0 0 1 3.66 2zM5 3c-.555 0-1 .445-1 1s.445 1 1 1 1-.445 1-1-.445-1-1-1zm6.023 0a1 1 0 1 0 0 2c.555 0 1-.445 1-1s-.445-1-1-1zM5 8c-.555 0-1 .445-1 1s.445 1 1 1 1-.445 1-1-.445-1-1-1zm6.023 0a1 1 0 1 0 0 2c.555 0 1-.445 1-1s-.445-1-1-1zm-2.988 4.738c.555 0 1 .344 1 .766s-.445.762-1 .762c-.555 0-1-.34-1-.762s.445-.766 1-.766zm0 0"/></svg>