<svg xmlns="http://www.w3.org/2000/svg" width="16" height="16"><g fill="#222"><path d="M6.496 1c-.793 0-.781.035-.531 1.031L7.59 7H5.94l3.774 3.773L10.902 9h3.094c.555 0 1-.445 1-1s-.445-1-1-1h-3.094L7.215 1.5c-.266-.457-.285-.5-.656-.5zM1.31 5c-.426 0-.282.438-.282.438L1.31 8l-.282 2.563s-.14.437.25.437h.25c.211 0 .203-.008.344-.219L3.09 9h2.726l-2-2H3.09L1.87 5.219C1.731 5.012 1.75 5 1.527 5zm5.843 5.332-1.187 3.605C5.703 14.985 5.699 15 6.496 15c.434 0 .434-.012.719-.5l1.648-2.453zm0 0"/><path d="M1.531.469.47 1.53l14 14 1.062-1.062zm0 0"/></g></svg>