<svg xmlns="http://www.w3.org/2000/svg" width="16" height="16"><path fill="#222" d="M6.95.063a1.996 1.996 0 0 0-1.95 2 1.999 1.999 0 1 0 4 0 2 2 0 0 0-2-2h-.055zM5.5 5c-.348 0-.668.18-.852.469l-2.5 4a1.005 1.005 0 0 0 .32 1.379.998.998 0 0 0 1.376-.317L5 8.687l-.004 3.954-.894 1.785a1 1 0 0 0 1.79.898l.999-2c.07-.14.109-.293.109-.449v-1.988c0 .105.016.207.05.304l.481 1.442.489 2.437a.996.996 0 0 0 1.175.785c.54-.109.89-.632.785-1.175l-.5-2.5c-.011-.04-.02-.082-.03-.121L9 10.715v-2.3l1.293 1.292a.999.999 0 0 0 1.012.246l1.715 5.567a.496.496 0 0 0 .242.296.522.522 0 0 0 .383.04.503.503 0 0 0 .332-.626l-2-6.5a.544.544 0 0 0-.063-.136 1.06 1.06 0 0 0-.207-.301L8.738 5.328l-.011-.015c-.008-.008-.016-.012-.02-.02-.023-.02-.043-.04-.062-.055a.751.751 0 0 0-.067-.05c0-.004 0-.004-.004-.004L8.57 5.18l-.066-.043a1.126 1.126 0 0 1-.074-.04c-.024-.011-.047-.019-.075-.03a.62.62 0 0 0-.078-.028h-.004c-.015-.004-.035-.008-.05-.016-.012 0-.02-.003-.032-.003l-.05-.012h-.016c-.02-.004-.043-.004-.066-.008h-.063zm0 0"/></svg>