<svg xmlns="http://www.w3.org/2000/svg" width="16" height="16"><g fill="#222"><path d="M9.492 1c-1.277 0-2.312.973-2.457 2.219C6.711 3.098 6.38 3 6.012 3a2.992 2.992 0 0 0-2.985 3c0 .098.024.184.032.281A1.994 1.994 0 0 0 .043 8c0 1.105.89 2 1.988 2h.375c.164-.352.367-.68.653-.969l2.453-2.469 2.457 2.47c.285.284.465.62.62.968h.466l1.43-1.438L11.914 10h2.55c.824 0 1.492-.672 1.492-1.5S15.289 7 14.465 7c-.207 0-.414.05-.59.125.05-.203.09-.406.09-.625 0-1.23-.887-2.227-2.05-2.438a2.41 2.41 0 0 0 .062-.562c0-1.379-1.114-2.5-2.485-2.5zm0 0"/><path d="m5.5 7.918-1.77 1.77a2.513 2.513 0 0 0 0 3.535 2.506 2.506 0 0 0 3.536 0 2.506 2.506 0 0 0 0-3.536zm0 1.414 1.059 1.063c.59.59.59 1.53 0 2.12s-1.532.59-2.121 0-.59-1.53 0-2.12zm5 .586-1.77 1.77a2.513 2.513 0 0 0 0 3.535 2.506 2.506 0 0 0 3.536 0 2.506 2.506 0 0 0 0-3.536zm0 1.414 1.059 1.063c.59.59.59 1.53 0 2.12s-1.532.59-2.121 0-.59-1.53 0-2.12zm0 0"/></g></svg>