<svg xmlns="http://www.w3.org/2000/svg" width="16" height="16"><path fill="#222" d="M5.5-.004a2.5 2.5 0 1 0 0 5 2.5 2.5 0 0 0 0-5zm7 5a2.495 2.495 0 0 0-2.5 2.5c0 1.387 1.113 2.5 2.5 2.5s2.5-1.113 2.5-2.5c0-1.383-1.113-2.5-2.5-2.5zm-8.5 1c-.266.004-.52.106-.707.293l-3 3a1 1 0 1 0 1.414 1.414L3.25 9.16 3 10.926v4.07a1 1 0 1 0 2 0v-2.5s0-.5.5-.5.5.5.5.5v2.5a1 1 0 1 0 2 0v-3.285l.086.191a.996.996 0 0 0 1.035.586c.152.293.434.516.879.508h1v2a1 1 0 0 0 1.5.867 1 1 0 0 0 1.5-.867v-.133c.867.5 1.848-.441 1.387-1.328l-.95-1.812c-.351-.61-.593-.727-1.437-.727h-3c-.043 0-.074.02-.117.024L7.914 6.594A1 1 0 0 0 7 5.996zm0 0"/></svg>