<svg xmlns="http://www.w3.org/2000/svg" width="16" height="16"><path fill="#222" d="M4 2c-1.598 0-2.645.664-3 2l-.738 8.324C0 13.918 2 14.5 3 13.5L5.75 9h4.5L13 13.5c1 1 3 .527 2.738-1.176L15 4c-.215-1.203-1.402-2.031-2.973-2.027zm.25 2h.5c.137 0 .25.113.25.25V5h.75c.137 0 .25.113.25.25v.5c0 .137-.113.25-.25.25H5v.75c0 .137-.113.25-.25.25h-.5A.252.252 0 0 1 4 6.75V6h-.75A.252.252 0 0 1 3 5.75v-.5c0-.137.113-.25.25-.25H4v-.75c0-.137.113-.25.25-.25zm5.766-.113a1.081 1.081 0 1 1-.006 2.162 1.081 1.081 0 0 1 .006-2.162zm2.968 2.02a1.081 1.081 0 1 1 0 2.16 1.081 1.081 0 0 1 0-2.16zm0 0"/></svg>