<svg xmlns="http://www.w3.org/2000/svg" width="16" height="16"><path d="M8 14c-2.203 0-4-1.797-4-4s1.797-4 4-4 4 1.797 4 4-1.797 4-4 4zM8 4c-3.32 0-6 2.68-6 6s2.68 6 6 6 6-2.68 6-6-2.68-6-6-6zm0 0"/><path d="m5.258 7.04 2.222 3.292a.501.501 0 0 0 .829-.562L6.086 6.477a.501.501 0 0 0-.828.562zm0 0"/><path fill="#222" d="M2 4.984a.985.985 0 1 1-1.97-.001.985.985 0 0 1 1.97.001zm4-3.968a.985.985 0 1 1-1.97-.002.985.985 0 0 1 1.97.002zm6 0a.985.985 0 1 1-1.97-.002.985.985 0 0 1 1.97.002zm4 3.968a.985.985 0 1 1-1.97-.001.985.985 0 0 1 1.97.001zm0 0"/></svg>