<svg xmlns="http://www.w3.org/2000/svg" width="16" height="16"><path fill="#222" d="M4 2.004v1.5c0 .152.031.297.074.434a4.607 4.607 0 0 0-.219.066H3c-1.105 0-2 .894-2 2v2h2C3.012 8 3.027 8 3.04 8v.004c-.028 1.328.647 2.324 1.183 3 .27.336.511.613.648.809.102.148.125.226.129.222 0 1.067.086 1.742.523 2.324.227.293.575.5.86.579.285.074.496.066.617.066h3c.215 0 .996-.063 1.45-.633.448-.574.55-1.273.55-2.367 0 .082-.008.004.129-.191.137-.196.383-.473.652-.81.54-.675 1.219-1.667 1.219-3h2v-2a2 2 0 0 0-2-2h-.855a5.642 5.642 0 0 0-.22-.065c.044-.137.075-.282.075-.434v-1.5h-1.5c-.715 0-1.309.496-1.457 1.168-.527-.102-1.055-.168-1.543-.168s-1.016.066-1.543.168A1.488 1.488 0 0 0 5.5 2.004zm4.5 3c.55 0 1.668.223 2.566.465.524.14.641.183.934.277v2.258c0 .664-.32 1.176-.781 1.75-.23.285-.485.57-.723.906-.035.05-.066.121-.105.176-.54-.148-1.293.168-1.891.168s-1.352-.316-1.89-.168c-.04-.055-.067-.125-.106-.176-.234-.336-.488-.617-.719-.902-.453-.57-.758-1.067-.746-1.715v-.035l-.031-2.262c.297-.094.41-.14.926-.277.898-.242 2.015-.465 2.566-.465zm-2.5 2v1h1v-1zm4 0v1h1v-1zm-2.965 5.5H8v.5h-.898c.003-.012-.036-.191-.067-.5zm1.965 0h.965c-.035.312-.078.488-.074.5H9zm0 0"/></svg>