<svg xmlns="http://www.w3.org/2000/svg" width="16" height="16"><g fill="#222"><path d="M5.016-.004v2h8c.574 0 1 .43 1 1v8h2v-8c0-1.644-1.352-3-3-3zm-1.996 2C3.02.895 3.914 0 5.016 0v1.996zm12.996 9a1.997 1.997 0 0 1-1.996 1.996v-1.996zm-12-7h2v1h-2zm0 0"/><path d="M7.016 3.996h2v1h-2zm-3 10h2v1h-2zm3 0h2v1h-2zm-6-7h1v2h-1zm0 3h1v2h-1zm10-3h1v2h-1zm0 3h1v2h-1zm-8-5.5a1.5 1.5 0 1 1-3 0 1.5 1.5 0 0 1 3 0zm10 0a1.5 1.5 0 1 1-3 0 1.5 1.5 0 0 1 3 0zm-10 10a1.5 1.5 0 1 1-3 0 1.5 1.5 0 0 1 3 0zm10 0a1.5 1.5 0 1 1-3 0 1.5 1.5 0 0 1 3 0zm0 0"/></g></svg>