<svg xmlns="http://www.w3.org/2000/svg" width="16" height="16"><path fill="#222" d="M1.977 7c-.551 0-1 .45-1 1v1.617c0 1.098.32 2.168.921 3.086l.114.172A4.722 4.722 0 0 0 5.949 15H12c1.645 0 3-1.355 3-3V9.898c0-.023-.012-.043-.012-.066v-.016c0-.023-.008-.043-.015-.066-.012-.027-.016-.055-.024-.082a.601.601 0 0 0-.031-.074s0-.012-.008-.016c-.012-.02-.02-.039-.031-.062 0 0 0-.008-.012-.012-.012-.02-.023-.04-.039-.059a.698.698 0 0 0-.047-.066c-.015-.016-.027-.035-.043-.05 0-.009-.008-.009-.011-.017l-.012-.007a.312.312 0 0 0-.05-.051l-.013-.008a.295.295 0 0 0-.054-.043s-.008-.012-.012-.012a.509.509 0 0 0-.059-.039s-.007-.011-.011-.011c-.02-.012-.04-.02-.063-.032s-.047-.023-.074-.035c-.012 0-.012-.008-.016-.008a.351.351 0 0 0-.066-.027h-.012a.33.33 0 0 0-.066-.016c-.024-.011-.047-.011-.067-.015h-.047c-.023 0-.042-.008-.066-.008H8.703a1.995 1.995 0 0 1-1.73.996h-2v1c-.551 0-1-.45-1-1v-1h3a.994.994 0 0 0 .304-.047c.028-.008.051-.02.078-.027.29-.121.508-.371.586-.676.012-.027.012-.055.02-.082A.996.996 0 0 0 6.973 7zM8 2c-.555 0-1 .445-1 1v2.996h2V3a1 1 0 0 0-1-1zm2.973-.004c-.551 0-1 .45-1 1V7c0 .55.449 1 1 1 .55 0 1-.45 1-1V2.996c0-.55-.45-1-1-1zm3 1.5c-.551 0-1 .45-1 1V7c0 .55.449 1 1 1 .55 0 1-.45 1-1V4.496c0-.55-.45-1-1-1zm-9-.496c-.551 0-1 .45-1 1v1.996h2V4a1 1 0 0 0-1-1zm0 0"/></svg>