<svg xmlns="http://www.w3.org/2000/svg" width="16" height="16"><g fill="#222"><path d="M8.5 9A2.5 2.5 0 0 0 6 11.5c0 .219.04.422.094.625A1.582 1.582 0 0 0 5.5 12a1.5 1.5 0 0 0 0 3h8a1.5 1.5 0 0 0 0-3 2 2 0 0 0-2-2 2 2 0 0 0-.875.219A2.473 2.473 0 0 0 8.5 9zm0 0"/><path d="M9.5 2a2.488 2.488 0 0 0-2.469 2.219C6.703 4.098 6.371 4 6 4a3 3 0 0 0-3 3c0 .098.023.184.031.281A2.01 2.01 0 0 0 2 7a2 2 0 1 0 0 4h3.102c.25-1.68 1.652-3 3.398-3 .98 0 1.785.488 2.418 1.145.195-.047.36-.145.582-.145 1.262 0 2.188.875 2.605 2h.395a1.5 1.5 0 0 0 0-3c-.207 0-.414.05-.594.125A2.53 2.53 0 0 0 14 7.5c0-1.23-.895-2.227-2.063-2.438A2.502 2.502 0 0 0 9.5 2zm0 0"/></g></svg>