<svg xmlns="http://www.w3.org/2000/svg" width="16" height="16"><g fill="#222"><path d="M7.996 2a1 1 0 0 0-1 1v3h2V3c0-.555-.445-1-1-1zm2.977 0a1 1 0 0 0-1 1v4c0 .55.449 1 1 1 .55 0 1-.45 1-1V3a1 1 0 0 0-1-1zm-6 1c-.551 0-1 .45-1 1v1.031L4.938 6h1.035V4c0-.55-.45-1-1-1zm9 .5a1 1 0 0 0-1 1V7c0 .55.449 1 1 1 .55 0 1-.45 1-1V4.5a1 1 0 0 0-1-1zM5.937 7l1.72 1.719a.985.985 0 0 0 .32-.723 1 1 0 0 0-1-.996zm-3.96 0c-.551 0-1 .45-1 1v1.617c0 1.098.32 2.168.921 3.09l.114.172A4.728 4.728 0 0 0 5.949 15h5.867L6.813 9.996h-1.84v1c-.551 0-.996-.45-1-1v-1h1.84L3.816 7zm6.726 2c-.09.16-.203.3-.336.43l5.145 5.14A2.994 2.994 0 0 0 14.996 12v-1.93a.754.754 0 0 0 0-.132v-.02c0-.012 0-.012-.004-.016a.417.417 0 0 0-.008-.07s0-.012-.004-.016a.363.363 0 0 0-.015-.066.6.6 0 0 0-.055-.156l-.004-.016-.031-.062c-.004 0-.004-.008-.008-.012-.012-.02-.023-.04-.039-.059-.016-.023-.031-.047-.047-.066-.011-.016-.027-.031-.043-.05-.004-.009-.008-.009-.011-.017-.004 0-.008-.011-.012-.011-.016-.016-.031-.031-.05-.047 0 0-.005-.012-.009-.012-.02-.012-.035-.027-.054-.043-.004 0-.008-.008-.012-.008a.509.509 0 0 0-.059-.039c-.004 0-.008-.011-.011-.011a.311.311 0 0 0-.063-.032c-.023-.015-.05-.023-.074-.035-.008 0-.012-.011-.016-.011a1.27 1.27 0 0 0-.066-.024h-.012a.409.409 0 0 0-.066-.016c-.024-.011-.047-.011-.07-.015h-.044c-.023 0-.043-.012-.066-.012H11zm0 0"/><path d="M1.531.469.47 1.53l14 14 1.062-1.062zm0 0"/></g></svg>