<svg xmlns="http://www.w3.org/2000/svg" width="16" height="16"><g fill="#222"><path d="M12.191 2h1.621a2.18 2.18 0 0 1 2.18 2.18v1.64A2.18 2.18 0 0 1 13.812 8h-1.62a2.18 2.18 0 0 1-2.18-2.18V4.18A2.18 2.18 0 0 1 12.192 2zm0 0"/><path d="M15.988 5.613v6.989c0 1.32-1.07 2.386-2.386 2.386H5.004A1.003 1.003 0 0 1 4 13.984v-.441A3.543 3.543 0 0 1 7.543 10h2.348c1.14 0 2.066-.926 2.066-2.063V5.586zM9.992 3.965V-.047l2.125 2.016zm6 0V-.047l-1.96 2.016zm0 0"/><path d="M5.879 13H2.98a.989.989 0 0 1-.98-.98v-.16c0-1.04.426-2.032 1.176-2.75L4.98 7.382a3.398 3.398 0 0 0 1.051-2.457v-.254A2.666 2.666 0 0 0 3.36 2H1.895a1 1 0 1 0 0 2h1.464c.368 0 .672.305.672.672v.254c0 .383-.156.746-.43 1.011L1.794 7.664A5.803 5.803 0 0 0 0 11.86v.16A2.972 2.972 0 0 0 2.98 15h2.9c.55 0 1-.45 1-1s-.45-1-1-1zm0 0"/></g></svg>