<svg xmlns="http://www.w3.org/2000/svg" width="16" height="16"><path d="M4.434 13.988a.502.502 0 0 1-.496-.496c0-.265.226-.492.496-.492a.5.5 0 0 1 .492.492c0 .27-.227.496-.492.496zm0-2.988a2.49 2.49 0 0 0-2.496 2.492 2.49 2.49 0 0 0 2.496 2.496 2.487 2.487 0 0 0 2.492-2.496A2.486 2.486 0 0 0 4.434 11zm0 0"/><path d="M10.016 12.496H6.004a1 1 0 1 0 0 2h4.012a1 1 0 1 0 0-2zm-7.305 0a.739.739 0 0 1-.73-.738v-3.75l-1 1h11.816c.652 0 1.195.539 1.195 1.191v1.336a.967.967 0 0 1-.96.961 1 1 0 0 0 .004 2 2.956 2.956 0 0 0 2.956-2.96v-1.337a3.188 3.188 0 0 0-3.195-3.191H.98c-.554 0-1 .445-1 1v3.746a2.727 2.727 0 0 0 2.727 2.742 1 1 0 1 0 .004-2zm0 0"/><path d="M11.504 13.988a.501.501 0 0 1-.492-.496.5.5 0 0 1 .492-.492c.27 0 .496.227.496.492 0 .27-.227.496-.496.496zm0-2.988a2.489 2.489 0 0 0-2.492 2.492 2.49 2.49 0 0 0 2.492 2.496A2.49 2.49 0 0 0 14 13.492 2.49 2.49 0 0 0 11.504 11zm-9.516.965V4.973c0-.536.446-.977.98-.977H7.98c.743 0 1.41.477 1.649 1.18l1.074 3.152a1 1 0 0 0 1.895-.648L11.52 4.53a3.733 3.733 0 0 0-3.54-2.535H2.97A2.972 2.972 0 0 0-.01 4.972v6.992a1 1 0 1 0 2 0zm0 0"/></svg>