<svg xmlns="http://www.w3.org/2000/svg" width="16" height="16"><path fill="#222" fill-rule="evenodd" d="M4 0C2.355 0 1 1.355 1 3v9c0 1.645 1.355 3 3 3h8c1.645 0 3-1.355 3-3V3c0-1.645-1.355-3-3-3zm0 2h8c.57 0 1 .43 1 1v4H3V3c0-.57.43-1 1-1zm2.465 1.43c-.02 0-.04.004-.059.007h-.062a.498.498 0 0 0-.344.5V4c0 .547.453 1 1 1h2c.547 0 1-.453 1-1v-.063c.012-.675-1.012-.675-1 0V4H7v-.063a.502.502 0 0 0-.535-.507zM3 8h10v4c0 .57-.43 1-1 1H4c-.57 0-1-.43-1-1zm3.465 1.43a.29.29 0 0 0-.059.008h-.062a.498.498 0 0 0-.344.5V10c0 .547.453 1 1 1h2c.547 0 1-.453 1-1v-.063c.012-.675-1.012-.675-1 0V10H7v-.063a.502.502 0 0 0-.535-.507zm0 0"/></svg>