<svg xmlns="http://www.w3.org/2000/svg" width="16" height="16"><g fill="#222"><path d="M6.43 5a.458.458 0 0 0-.43.457v.09C6 5.8 6.203 6 6.453 6h.094C6.797 6 7 5.8 7 5.547v-.09A.454.454 0 0 0 6.547 5H6.43zm3.047 0A.504.504 0 0 0 9 5.5a.499.499 0 1 0 .5-.5h-.027zM7.043 6.25v.5c0 .555 1 1.5 1 1.5s1-.945 1-1.5v-.5zm0 0"/><path d="M8.031.004c-1.738 0-2.933.52-3.937 1.5-.965.937-1.309 2.176-1.532 3.75 0 0-.238 1.297.063 1.844-.492.586-2.594 3.218-2.594 4.406.367 1.14 2.293-1.477 2.625.031.285 1.281.856 1.781 2.031 2.5-.933.082-1.656.477-1.656.969 1.164.715 1.239.812 2.438.812 1.105 0 1.562-.261 1.562-.812 0-.035.008-.063 0-.094.332.05.66.094 1 .094s.668-.043 1-.094c-.008.031 0 .059 0 .094 0 .55.457.812 1.563.812 1.199 0 1.273-.097 2.437-.812 0-.492-.722-.887-1.656-.969 1.176-.719 1.746-1.219 2.031-2.5.332-1.508 2.258 1.11 2.625-.031 0-1.188-2.101-3.82-2.593-4.406.3-.547.062-1.844.062-1.844-.223-1.574-.566-2.813-1.531-3.75-1.004-.98-2.2-1.5-3.938-1.5zM7 1.91c.535.117.598 1.094 1.031 1.094s.496-.977 1.031-1.094c3.145.145 3.293 4.402 2.532 5.281 0 0 1.008 1.86.562 3.282-.644 2.047-1.91 3.03-4.125 3.03s-3.48-.983-4.125-3.03C3.461 9.05 4.47 7.19 4.47 7.19 3.707 6.313 3.855 2.055 7 1.911zm0 0"/></g></svg>