<svg xmlns="http://www.w3.org/2000/svg" width="16" height="16"><g fill="#2e3436"><path d="M3.059 9c-1.106 0-2-.895-2-2V6h13.96v1c0 1.105-.894 2-2 2zm0 0"/><path d="M4 7V3c0-.547.453-1 1-1h6c.547 0 1 .453 1 1v4h2V3c0-1.66-1.34-3-3-3H5C3.34 0 2 1.34 2 3v4zm0 0"/><path d="M2 6v2.5C2 9.883 3.117 11 4.5 11h7.977c.562 0 1.023.46 1.023 1.016-.008.55-.465.992-1.023.984H6v1h6.469a2 2 0 0 0 2.031-1.977A2.019 2.019 0 0 0 12.477 10H4.5C3.676 10 3 9.324 3 8.5V6zm0 0"/><path d="M2.5 13h4a1.5 1.5 0 0 1 0 3h-4a1.5 1.5 0 0 1 0-3zm0 0"/></g></svg>