<svg xmlns="http://www.w3.org/2000/svg" width="16" height="16"><path fill="#222" d="M.984-.016C.434-.004-.008.45 0 1v4s.008.844.574 1.598c.45.597 1.258 1.12 2.426 1.316V9a1 1 0 0 0-1 1v5a1 1 0 0 0 1 1h2c.55 0 1-.45 1-1v-5c0-.55-.45-1-1-1V7.914c1.168-.195 1.977-.719 2.426-1.316C7.992 5.844 8 5 8 5V1a1.006 1.006 0 0 0-.496-.879 1.01 1.01 0 0 0-1.008 0C6.184.305 5.996.641 6 1v3.5a.499.499 0 1 1-1 0V1A1.003 1.003 0 0 0 3.984-.016C3.434-.004 2.992.45 3 1v3.5a.499.499 0 1 1-1 0V1A1.003 1.003 0 0 0 .984-.016zM13.969 0a1.001 1.001 0 0 0-.676.293c-1.734 1.734-2.504 4.16-2.898 6.137C10 8.406 10 10 10 10a1 1 0 0 0 1 1h1v4a1 1 0 0 0 1 1h1c.55 0 1-.45 1-1V1c0-.563-.465-1.016-1.031-1zm0 0"/></svg>