<svg xmlns="http://www.w3.org/2000/svg" width="16" height="16"><g fill="#222"><path d="M9.508.043c-1.27 0-2.305.973-2.445 2.219-.325-.121-.657-.219-1.024-.219-1.644 0-2.977 1.344-2.977 3 0 .098.024.187.032.281a1.968 1.968 0 0 0-1.02-.281 1.993 1.993 0 0 0-1.984 2C.09 8.148.906 9 2 9h5V7.5c-.016-.785.738-1.473 1.52-1.488.796-.016 1.496.683 1.48 1.488V9h4.5c.82 0 1.453-.629 1.453-1.457s-.664-1.5-1.484-1.5c-.207 0-.414.05-.59.125.05-.2.094-.406.094-.625a2.48 2.48 0 0 0-2.047-2.438 2.41 2.41 0 0 0 .062-.562 2.49 2.49 0 0 0-2.48-2.5zm0 0"/><path d="M8.492 6.992A.501.501 0 0 0 8 7.5V10H5v1H3.293L.645 13.645a.505.505 0 0 0 0 .71.507.507 0 0 0 .707 0L3.707 12H5v3a.499.499 0 1 0 1 0v-3.426a.473.473 0 0 0 0-.148V11h2v.707l2 2V15a.499.499 0 1 0 1 0v-1h1.36l2.382 1.426a.5.5 0 0 0 .777-.414.497.497 0 0 0-.261-.438L12.637 13h-1.93L9 11.293v-.719a.473.473 0 0 0 0-.148V7.5a.492.492 0 0 0-.148-.36.492.492 0 0 0-.36-.148zm0 0"/></g></svg>