<svg xmlns="http://www.w3.org/2000/svg" width="16" height="16"><g fill="#222"><path d="M0 4v9.977c0 1.199.98 2 2.188 2h11.624c1.208 0 2.188-1.02 2.188-2.22V4s0-2-2-2v12H2V2C0 2 0 4 0 4zm0 0"/><path d="M1 9v1h3.625c.023.3-.008.605.3 1.223C5.364 12.093 6.333 13 8 13s2.637-.906 3.074-1.777c.305-.618.278-.922.301-1.223H14V9h-3.5v.5s-.008.648-.324 1.277C9.863 11.407 9.332 12 8 12s-1.863-.594-2.176-1.223C5.508 10.148 5.5 9.5 5.5 9.5V9zm2-9v1h10V0zm.5 2c-.277 0-.5.223-.5.5V8h1V3.625l4 3 4-3V8h1V2.5c0-.277-.223-.5-.5-.5zm1.332 1h6.336L8 5.375zm0 0"/></g></svg>