<svg xmlns="http://www.w3.org/2000/svg" width="16" height="16"><g fill="#222"><path d="M3.016 2.996c-1.645 0-3 1.356-3 3h2c0-.57.43-1 1-1zm2-3v2h8c.574 0 1 .43 1 1v8h2v-8c0-1.644-1.352-3-3-3zm-1.996 2C3.02.895 3.914 0 5.016 0v1.996zm12.996 9a1.997 1.997 0 0 1-1.996 1.996v-1.996zm0 0"/><path d="M4.016 2.996h2v2h-2zm3 0h2v2h-2zm-3 11h2v2h-2zm3 0h2v2h-2zm-7-7h2v2h-2zm0 3h2v2h-2zm11-3h2v2h-2zm0 3h2v2h-2zm-1-7c1.648 0 3 1.356 3 3h-2c0-.57-.426-1-1-1zm-7 13c-1.645 0-3-1.355-3-3h2c0 .57.43 1 1 1zm7 0c1.648 0 3-1.355 3-3h-2c0 .57-.426 1-1 1zm0 0"/></g></svg>