<svg xmlns="http://www.w3.org/2000/svg" width="16" height="16"><path fill="#222" d="m8 0-.434.863L7 2a5.375 5.375 0 0 1 2 0zM2.344 2.344l.707 2.12a5.404 5.404 0 0 1 1.414-1.413zm11.312 0-2.12.707a5.404 5.404 0 0 1 1.413 1.414zm-5.66.648C5.246 2.992 2.988 5.25 2.988 8s2.258 5.008 5.008 5.008S13 10.75 13 8s-2.254-5.008-5.004-5.008zM2 7 0 8l2 1a5.375 5.375 0 0 1 0-2zm12 0c.137.71.113 1.371 0 2l2-1zM3.05 11.535l-.706 2.121 2.12-.707a5.404 5.404 0 0 1-1.413-1.414zm9.9 0a5.404 5.404 0 0 1-1.415 1.414l2.121.707zM7 14l1 2 1-2a5.375 5.375 0 0 1-2 0zm0 0"/></svg>