<svg xmlns="http://www.w3.org/2000/svg" width="16" height="16"><g fill="#222"><path fill-opacity=".349" d="M8 .004V4.21l.68 2.074c.133.406.511.688.941.692l2.254.007-1.7 1.2a.997.997 0 0 0-.366 1.148l.765 2.191L8.61 10.22c-.203-.059-.406-.11-.609-.164v2.222l.05-.03 3.9 2.589c.796.527 1.812-.262 1.495-1.164l-1.504-4.29 3.645-2.573c.789-.563.394-1.813-.574-1.817l-4.66-.015L8.949.69a.994.994 0 0 0-.945-.687H8zm0 0"/><path d="M8 .004c-.43 0-.813.273-.95.68L5.603 5.027l-4.59-.02C.027 5.005-.375 6.267.43 6.829l3.629 2.555-1.5 4.289c-.317.898.687 1.687 1.488 1.168L8 12.277zm0 0"/></g></svg>