<svg xmlns="http://www.w3.org/2000/svg" width="16" height="16"><g fill="#2e3436"><path d="M3 0C1.355 0 0 1.355 0 3v10c0 1.645 1.355 3 3 3h10c1.645 0 3-1.355 3-3V3c0-1.645-1.355-3-3-3zm0 2h10c.57 0 1 .43 1 1v10c0 .57-.43 1-1 1H3c-.57 0-1-.43-1-1V3c0-.57.43-1 1-1zm0 0"/><path d="m12.95 1.11-.009 5.902c0 1.101-.898 2-2 2h-.011V7h-1v.004c-.266 0-.52.105-.707.289l-2 2a1 1 0 0 0 0 1.414l2 2c.187.184.441.29.707.285V13h1v-1.984h.011c2.215 0 4-1.79 4-4l.008-5.907M5.05 3.016V5h-.015c-2.21 0-4 1.785-4 4v5.07c0 1.336 2 1.336 2 0V9c0-1.098.902-2 2-2h.016v2.016h1v-.008c.265 0 .52-.102.707-.29l2-2a1 1 0 0 0 0-1.413l-2-2a.992.992 0 0 0-.707-.285v-.008zm0 0"/></g></svg>