<svg xmlns="http://www.w3.org/2000/svg" width="16" height="16"><path fill="#222" d="M.918 8.004a7.072 7.072 0 0 0 14.102.793 1.008 1.008 0 0 0-.457-.957 1.002 1.002 0 0 0-1.063-.004 3.89 3.89 0 0 1-2.031.578 3.888 3.888 0 0 1-3.883-3.883c0-.715.203-1.422.578-2.031a1 1 0 0 0-.004-1.062c-.207-.32-.578-.5-.957-.458A7.072 7.072 0 0 0 .918 8.004zM5.586 4.53a5.877 5.877 0 0 0 8.965 5.004l-1.52-.96a5.09 5.09 0 0 1-5.035 4.507 5.088 5.088 0 0 1-5.078-5.078 5.09 5.09 0 0 1 4.508-5.035l-.961-1.52a5.88 5.88 0 0 0-.88 3.082zm0 0"/></svg>