<svg xmlns="http://www.w3.org/2000/svg" width="16" height="16"><path fill="#222" d="M1.5 2h2c.277 0 .5.223.5.5v12c0 .277-.223.5-.5.5h-2a.498.498 0 0 1-.5-.5v-12c0-.277.223-.5.5-.5zm4 2h1c.277 0 .5.223.5.5v10c0 .277-.223.5-.5.5h-1a.498.498 0 0 1-.5-.5v-10c0-.277.223-.5.5-.5zm3-1h1c.277 0 .5.223.5.5v11c0 .277-.223.5-.5.5h-1a.498.498 0 0 1-.5-.5v-11c0-.277.223-.5.5-.5zm2.207-1.54.965-.26a.505.505 0 0 1 .613.355l3.363 12.558a.497.497 0 0 1-.351.61l-.969.261a.506.506 0 0 1-.613-.355L10.352 2.074a.499.499 0 0 1 .355-.613zm0 0"/></svg>