<svg xmlns="http://www.w3.org/2000/svg" width="16" height="16"><path fill="#222" d="M3.012 1A3.026 3.026 0 0 0 0 4.012v4.976A3.026 3.026 0 0 0 3.012 12c.55 0 1-.45 1-1s-.45-1-1-1A.988.988 0 0 1 2 8.988V4.012A.988.988 0 0 1 3.012 3h7.976A.988.988 0 0 1 12 4.012V5c0 .55.45 1 1 1s1-.45 1-1v-.988A3.026 3.026 0 0 0 10.988 1zm6.031 5c-.566 0-1.02.426-1.043.965h-.988A2.009 2.009 0 0 0 5 8.977v4.011C5 14.102 5.898 15 7.012 15h5.976A2.009 2.009 0 0 0 15 12.988V8.977a2.009 2.009 0 0 0-2.012-2.012H12c-.023-.54-.477-.965-1.043-.965zM10 9a2 2 0 1 1-2 2 2 2 0 0 1 2-2zm0 0"/></svg>