<svg xmlns="http://www.w3.org/2000/svg" width="16" height="16"><g fill="#222"><path d="M10.957 4.559a.504.504 0 0 0-.328.832c.937 1.062 1.379 2.183 1.379 3.324 0 1.137-.445 2.316-1.39 3.469a.505.505 0 0 0 .07.703.497.497 0 0 0 .703-.07c1.062-1.294 1.617-2.7 1.617-4.102s-.559-2.778-1.63-3.988a.494.494 0 0 0-.421-.168zM9.512 5.773a.485.485 0 0 0-.29.106.498.498 0 0 0-.093.7c.586.765.867 1.487.875 2.194.008.704-.254 1.426-.871 2.204a.505.505 0 0 0 .082.703.505.505 0 0 0 .703-.082c.723-.914 1.098-1.871 1.086-2.836-.012-.965-.399-1.907-1.082-2.793a.502.502 0 0 0-.41-.196zm0 0"/><path d="M2.016 0c-1.215 0-2 .828-2 2v2.027H14V14H0c0 1.016 1.012 2.004 1.992 2.004L14 16c1 0 2-1 2-2V2c0-1.238-.828-2-2-2zm0 0"/><path d="m7.992 6 .004 6c0 .195-.11.379-.281.473a.536.536 0 0 1-.55-.028L5.39 11.262A1.547 1.547 0 0 0 4.527 11h-.52A1.01 1.01 0 0 1 3 9.992V7.988c0-.55.45-1 1-1h.566c.29 0 .575-.086.817-.246l1.773-1.187A.537.537 0 0 1 7.992 6zM.977 2.957c.543 0 .98.438.98.977v10.039a.979.979 0 1 1-1.957 0V3.933c0-.538.438-.976.977-.976zm0 0"/></g></svg>