<svg xmlns="http://www.w3.org/2000/svg" width="16" height="16"><path fill="#222" d="M2 0s-.457-.016-.95.23C.563.477 0 1.168 0 2v3h2V2h3V0zm9 0v2h3v3h2V2c0-.832-.563-1.523-1.05-1.77C14.456-.016 14 0 14 0zM3 3v2h2V3zm2 2v2h2V5zm3-2v5h5V3zm0 5H3v5h5zm1-4h3v3H9zm1 1v1h1V5zM4 9h3v3H4zm5 0v3h1v-1h1v-1h1V9zm3 1v1h1v-1zm0 1h-1v1h1zm0 1v1h1v-1zm-1 0h-1v1h1zm-6-2v1h1v-1zm-5 1v3c0 .832.563 1.523 1.05 1.77.493.246.95.23.95.23h3v-2H2v-3zm14 0v3h-3v2h3s.457.016.95-.23c.488-.247 1.05-.938 1.05-1.77v-3zm0 0"/></svg>