<svg xmlns="http://www.w3.org/2000/svg" width="16" height="16"><path fill="#222" d="M8 1a7.31 7.31 0 0 0-.656.031l-.407 2.094c-.332.07-.656.176-.968.313L4.437 1.972c-.386.226-.726.511-1.062.808l.906 1.906a5.27 5.27 0 0 0-.593.813l-2.094-.277c-.176.41-.313.84-.407 1.277l1.844 1c-.02.168-.027.332-.031.5 0 .172.016.332.031.5l-1.844 1c.098.445.227.871.407 1.281l2.093-.281c.172.29.372.563.594.813l-.906 1.906c.336.3.676.582 1.063.812l1.53-1.469c.305.137.634.239.97.313l.406 2.094c.437.043.875.043 1.312 0l.406-2.094c.336-.074.665-.176.97-.313l1.53 1.47a6.911 6.911 0 0 0 1.063-.813l-.906-1.906c.222-.25.422-.524.594-.813l2.093.281c.176-.414.313-.84.406-1.281l-1.843-1c.015-.168.031-.328.031-.5s-.016-.332-.031-.5l1.844-1a7.078 7.078 0 0 0-.407-1.281l-2.094.281a5.036 5.036 0 0 0-.593-.813l.906-1.906c-.336-.297-.676-.582-1.063-.812l-1.53 1.468a5.004 5.004 0 0 0-.97-.312L8.656 1.03A7.379 7.379 0 0 0 8 1zm0 4a3 3 0 1 1-.002 6.002A3 3 0 0 1 8 5zm0 0"/></svg>