<svg xmlns="http://www.w3.org/2000/svg" width="16" height="16"><path fill="#2e3436" d="M3 0C1.355 0 0 1.355 0 3v2c0 1.645 1.355 3 3 3h8c.027 0 .047 0 .074-.004.211.863.988 1.5 1.918 1.504v.496h-.008a.998.998 0 0 1-1 .992L3 11a1.997 1.997 0 0 0 0 3.992h7A3.986 3.986 0 0 0 13.988 11V9.234c.598-.34.996-.984.996-1.722 0-.774-.441-1.442-1.086-1.77.07-.199.102-.426.102-.742V3c0-1.645-1.355-3-3-3zm0 2h8c.57 0 1 .43 1 1v2c0 .57-.43 1-1 1H3c-.57 0-1-.43-1-1V3c0-.57.43-1 1-1zm.945 1c-.55 0-1 .45-1 1s.45 1 1 1a1 1 0 1 0 0-2zM6.95 3c-.55 0-1 .45-1 1s.45 1 1 1a1 1 0 1 0 0-2zm2.969 0c-.55 0-1 .45-1 1s.45 1 1 1 1-.45 1-1-.45-1-1-1zM13 6.531a.985.985 0 1 1-.002 1.97.985.985 0 0 1 .002-1.97zm-.113 5.246A2.995 2.995 0 0 1 10 13.992H3A.997.997 0 0 1 2.004 13c0-.55.45-.996.996-.996l8.98-.012a2 2 0 0 0 .907-.215zm0 0"/></svg>