<svg xmlns="http://www.w3.org/2000/svg" width="16" height="16"><path fill="#222" d="M8 0C4.7 0 2 2.7 2 6s2.7 6 6 6 6-2.7 6-6-2.7-6-6-6zm0 2c2.223 0 4 1.777 4 4s-1.777 4-4 4-4-1.777-4-4 1.777-4 4-4zm0 .5a.499.499 0 1 0 0 1 .499.499 0 1 0 0-1zm-2 1a.499.499 0 1 0 0 1 .499.499 0 1 0 0-1zm4 0a.499.499 0 1 0 0 1 .499.499 0 1 0 0-1zm-2 1a.499.499 0 1 0 0 1 .499.499 0 1 0 0-1zm-2 1a.499.499 0 1 0 0 1 .499.499 0 1 0 0-1zm4 0a.499.499 0 1 0 0 1 .499.499 0 1 0 0-1zm-2 1a.499.499 0 1 0 0 1 .499.499 0 1 0 0-1zM5 13c-.555 0-1 .445-1 1h1c2 0 2 2 2 2h2s0-2 2-2h1c0-.555-.445-1-1-1zm0 0"/></svg>