<svg xmlns="http://www.w3.org/2000/svg" width="16" height="16"><path fill="#222" d="M6.707 14a.498.498 0 0 1-.437-.64l.425-1.544a6.463 6.463 0 0 1-1.238-.457l-1.023 1.766a.502.502 0 1 1-.868-.504l1.016-1.758a10.718 10.718 0 0 1-.977-.703l-1.25 1.254a.512.512 0 0 1-.363.152.503.503 0 0 1-.347-.859l1.222-1.219a15.178 15.178 0 0 1-.793-.793l-.719.72a.512.512 0 0 1-.363.151.503.503 0 0 1-.347-.859l.765-.762A18.28 18.28 0 0 1 0 6h2s2.133 4 6 4 6-4 6-4h2s-.523.867-1.41 1.945l.765.762a.502.502 0 1 1-.71.707l-.72-.719c-.198.22-.41.426-.632.645l1.102 1.414a.5.5 0 1 1-.79.613l-1.05-1.344c-.262.22-.528.43-.809.63l1.074 1.738a.5.5 0 1 1-.851.523l-1.074-1.738c-.368.199-.743.37-1.13.504l.57 1.648a.502.502 0 0 1-.46.672.496.496 0 0 1-.48-.344l-.602-1.722A4.827 4.827 0 0 1 8 12c-.105 0-.207-.02-.313-.027l-.457 1.652a.496.496 0 0 1-.472.375h-.055zm0 0"/></svg>