<svg xmlns="http://www.w3.org/2000/svg" width="16" height="16"><path fill="#222" d="M4.93.004a.47.47 0 0 0-.235.101C4.332.387 4.027.735 4 1.207c-.023.473.277.883.707 1.2C5 2.62 5 2.71 5 2.737c-.004.028-.066.176-.313.367a.517.517 0 0 0-.183.336.506.506 0 0 0 .101.372.517.517 0 0 0 .336.183.506.506 0 0 0 .371-.101c.348-.278.653-.614.688-1.086.031-.473-.266-.895-.707-1.215C5.008 1.383 5 1.285 5 1.258c0-.028.055-.168.305-.363a.498.498 0 0 0-.242-.891.754.754 0 0 0-.133 0zm2 0a.47.47 0 0 0-.235.101C6.332.387 6.027.735 6 1.207c-.023.473.277.883.707 1.2C7 2.62 7 2.71 7 2.737c-.004.028-.066.176-.313.367a.517.517 0 0 0-.183.336.506.506 0 0 0 .101.372.517.517 0 0 0 .336.183.506.506 0 0 0 .371-.101c.348-.278.653-.614.688-1.086.031-.473-.266-.895-.707-1.215C7.008 1.383 7 1.285 7 1.258c0-.028.055-.168.305-.363a.498.498 0 0 0-.243-.891.754.754 0 0 0-.132 0zm2 0a.47.47 0 0 0-.235.101C8.332.387 8.027.735 8 1.207c-.023.473.277.883.707 1.2C9 2.62 9 2.71 9 2.737c-.004.028-.066.176-.313.367a.517.517 0 0 0-.183.336.506.506 0 0 0 .101.372.517.517 0 0 0 .336.183.506.506 0 0 0 .371-.101c.348-.278.653-.614.688-1.086.031-.473-.266-.895-.707-1.215C9.008 1.383 9 1.285 9 1.258c0-.028.055-.168.305-.363a.498.498 0 0 0-.243-.891.754.754 0 0 0-.132 0zm2 0a.47.47 0 0 0-.235.101c-.363.282-.668.63-.695 1.102-.023.473.277.883.707 1.2.293.214.293.304.293.331-.004.028-.066.176-.313.367a.517.517 0 0 0-.183.336.506.506 0 0 0 .101.372.517.517 0 0 0 .336.183.506.506 0 0 0 .371-.101c.348-.278.653-.614.688-1.086.031-.473-.266-.895-.707-1.215-.285-.211-.293-.309-.293-.336 0-.028.055-.168.305-.363a.498.498 0 0 0-.242-.891.754.754 0 0 0-.133 0zM2 5a5.982 5.982 0 0 0 2.79 5.05l-1.728 4.598c-.19.516.07 1.094.586 1.29a1.007 1.007 0 0 0 1.29-.586L5.44 14h5.114l.507 1.352c.196.515.774.777 1.29.585.515-.195.777-.773.585-1.289l-1.726-4.597A5.982 5.982 0 0 0 14 5zm4.633 5.832c.445.11.906.164 1.367.168.46-.004.922-.059 1.367-.168L10.18 13H5.816zm0 0"/></svg>