<svg xmlns="http://www.w3.org/2000/svg" width="16" height="16"><g fill="#2e3436"><path d="M3 0C1.355 0 0 1.355 0 3v10c0 1.645 1.355 3 3 3h10c1.645 0 3-1.355 3-3V3c0-1.645-1.355-3-3-3zm0 2h10c.57 0 1 .43 1 1v10c0 .57-.43 1-1 1H3c-.57 0-1-.43-1-1V3c0-.57.43-1 1-1zm0 0"/><path d="M10 3.04v1.987h.016l5.015-.043v2s-4.785.051-5.015.043H10V9.04H9v-.004a.996.996 0 0 1-.707-.289l-2-2a1 1 0 0 1 0-1.414l2-2A.992.992 0 0 1 9 3.047v-.008zm0 0"/><path d="m5.313 5.992-.333.012A2.003 2.003 0 0 0 2.992 8v3.02c0 1.093.895 1.988 1.988 1.988h2.985a1.997 1.997 0 0 0 1.992-1.988V9.996h-1v1.024c0 .55-.437.988-.992.988H4.98a.98.98 0 0 1-.988-.988V8c0-.555.434-.996.988-.996l.336-.012zm0 0"/></g></svg>