<svg xmlns="http://www.w3.org/2000/svg" width="16" height="16"><g fill="#222"><path d="M3.195 0C1.992 0 1 1 1 2.2v7.6C1 11 1.992 12 3.195 12h6.61C11.008 12 12 11 12 9.8V2.2C12 1 11.008 0 9.805 0zM3.5 2h6c.277 0 .5.223.5.5v7c0 .277-.223.5-.5.5h-6a.498.498 0 0 1-.5-.5v-7c0-.277.223-.5.5-.5zm0 0"/><path d="M13 4v9.813c0 .132-.063.187-.188.187H6.189C6.063 14 6 13.945 6 13.812V13H4v.813A2.2 2.2 0 0 0 6.188 16h6.625A2.196 2.196 0 0 0 15 13.812V6.189a2.21 2.21 0 0 0-2-2.188zm-6.504-.996C5.125 3.004 3.98 4.133 4 5.5L3.992 8h2.504a2.507 2.507 0 0 0 2.496-2.5 2.506 2.506 0 0 0-2.496-2.496zM6.5 4.5c.55 0 1 .45 1 1s-.45 1-1 1-1-.45-1-1 .45-1 1-1zm0 0"/></g></svg>