<svg xmlns="http://www.w3.org/2000/svg" width="16" height="16"><g fill="#2e3436"><path d="M1 3h14c.55 0 1 .45 1 1s-.45 1-1 1H1c-.55 0-1-.45-1-1s.45-1 1-1zm0 0"/><path d="M4 4V2.5C4 1.113 5.113 0 6.5 0h2.98c1.383 0 2.5 1.113 2.5 2.5V4h-2V2.5c0-.27-.23-.5-.5-.5H6.5c-.27 0-.5.23-.5.5V4zm0 0v9c0 .547.453 1 1 1h6c.547 0 1-.453 1-1V4h2v9c0 1.66-1.34 3-3 3H5c-1.66 0-3-1.34-3-3V4zm0 0"/><path d="M7 7v5a.499.499 0 1 1-1 0V7a.499.499 0 1 1 1 0zm3 0v5a.499.499 0 1 1-1 0V7a.499.499 0 1 1 1 0zm0 0"/></g></svg>