<svg xmlns="http://www.w3.org/2000/svg" width="16" height="16"><g fill="#222"><path d="M12.98-.012c-.039 0-.074.004-.113.008H8v.832a.995.995 0 0 0 .227.82.993.993 0 0 0 .773.348h1.586L8 4.582 5.707 2.289a.992.992 0 0 0-.973-.273.99.99 0 0 0-.714.714.99.99 0 0 0 .273.973l3 3a1 1 0 0 0 1.414 0L12 3.41v1.586a.998.998 0 0 0 1.156 1H14V1.125a1.098 1.098 0 0 0 0-.277v-.852h-.855a.77.77 0 0 0-.165-.008zm0 0"/><path d="M14.242 15.71a.974.974 0 0 1-1.387 0l-1.042-1.038-1.04-1.04a.98.98 0 0 1 0-1.386l.493-.496a6.846 6.846 0 0 0-6.532 0l.493.496a.98.98 0 0 1 0 1.387l-1.04 1.039-1.042 1.039a.974.974 0 0 1-1.387 0l-1.04-1.04a2.454 2.454 0 0 1 0-3.468l.348-.348c3.817-3.816 10.051-3.816 13.868 0l.347.348a2.454 2.454 0 0 1 0 3.469zm0 0"/></g></svg>