<svg xmlns="http://www.w3.org/2000/svg" width="16" height="16"><path fill="#2e3436" d="M4.035.012c-.55 0-1 .449-1 1v2.175a3.011 3.011 0 0 0-2.023 2.848v.977h2v-.977c0-.566.457-1.023 1.023-1.023h7.961c.563 0 1.016.457 1.016 1.023h2a3.012 3.012 0 0 0-2-2.844v-2.18a1 1 0 1 0-2 0v2h-2v-2a1 1 0 1 0-2 0v2H5.035v-2c0-.55-.45-1-1-1zm-.023 6V8H4c-2.215 0-4 1.785-4 4v2c0 .55.45 1 1 1s1-.45 1-1v-2c0-1.098.902-2 2-2h.012v2.012h1v-.004c.265 0 .52-.102.707-.29l2-2a1 1 0 0 0 0-1.413l-2-2a.992.992 0 0 0-.707-.285v-.008zm9.988 1c-.55 0-1 .449-1 1v2c0 1.101-.902 2-2 2h-.016V10h-1v.008a1.005 1.005 0 0 0-.707.285l-2 2a1.007 1.007 0 0 0 0 1.414l2 2c.192.184.446.29.707.29V16h1v-1.984H11c2.215 0 4-1.79 4-4v-2a1 1 0 0 0-1-1zm0 0"/></svg>