<svg xmlns="http://www.w3.org/2000/svg" width="16" height="16"><path fill="#222" d="M13 0c0 .332.004.813.012 1.266C12.406 1.609 12 2.262 12 3s.406 1.387 1.008 1.734c-.035 1.172-.13 2.297-.348 3.137-.023.078-.047.149-.066.219a1.998 1.998 0 0 0-2.14.648c-.474-.297-1.052-.75-1.747-1.445-.613-.613-1.18-1.117-1.719-1.512A2.01 2.01 0 0 0 5 4a2 2 0 0 0-1.688.937 2.775 2.775 0 0 0-1.082.86c-.406.531-.644 1.152-.82 1.824-.293 1.11-.406 2.402-.445 3.672A2.002 2.002 0 0 0 0 13c0 .727.395 1.367.98 1.719.008.472.02.922.02 1.281h2c0-.332-.004-.813-.012-1.262C3.594 14.391 4 13.738 4 13s-.406-1.387-1.008-1.734c.04-1.172.13-2.297.352-3.137.07-.277.16-.516.25-.711a1.987 1.987 0 0 0 2.508.25c.351.262.742.59 1.191 1.039 1.098 1.098 2.05 1.852 2.953 2.246.34.621 1 1.047 1.754 1.047 1.098 0 2-.902 2-2 0-.043 0-.086-.004-.129.274-.453.453-.957.598-1.492.289-1.11.402-2.399.445-3.672C15.613 4.355 16 3.719 16 3c0-.727-.395-1.367-.977-1.715C15.012.81 15 .36 15 0zm1 2c.559 0 1 .441 1 1s-.441 1-1 1-1-.441-1-1 .441-1 1-1zM5 5c.559 0 1 .441 1 1s-.441 1-1 1-1-.441-1-1 .441-1 1-1zm7 4c.559 0 1 .441 1 1s-.441 1-1 1-1-.441-1-1 .441-1 1-1zM2 12c.559 0 1 .441 1 1s-.441 1-1 1-1-.441-1-1 .441-1 1-1zm0 0"/></svg>