<svg xmlns="http://www.w3.org/2000/svg" width="16" height="16"><path fill="#222" fill-opacity=".349" d="M11 9c.309 0 .613-.09.813-.281L15.405 5 11.75 1.281C11.55 1.09 11.309 1 11 1h-1v1c0 .258.129.527.313.719L11.592 4H7c-.527-.008-1 .473-1 1s.473 1.008 1 1h4.625l-1.219 1.281C10.223 7.473 10 7.742 10 8v1zM5 7c-.309 0-.613.09-.813.281L.595 11l3.656 3.719c.2.191.441.281.75.281h1v-1c0-.258-.129-.527-.313-.719L4.407 12H9c.527.008 1-.473 1-1s-.473-1.008-1-1H4.375l1.219-1.281C5.777 8.527 6 8.258 6 8V7zm0 0"/></svg>