<svg xmlns="http://www.w3.org/2000/svg" width="16" height="16"><path fill="#222" d="M5.5 4c-.277 0-.5.223-.5.5v8a.499.499 0 1 0 1 0v-8c0-.277-.223-.5-.5-.5zm4 1c-.277 0-.5.223-.5.5v6a.499.499 0 1 0 1 0v-6c0-.277-.223-.5-.5-.5zm-2 1c-.277 0-.5.223-.5.5v4a.499.499 0 1 0 1 0v-4c0-.277-.223-.5-.5-.5zm4 0c-.277 0-.5.223-.5.5v4a.499.499 0 1 0 1 0v-4c0-.277-.223-.5-.5-.5zm-8 1c-.277 0-.5.223-.5.5v3a.499.499 0 1 0 1 0v-3c0-.277-.223-.5-.5-.5zM1.473 8A.498.498 0 0 0 1 8.5v1a.499.499 0 1 0 1 0v-1c0-.277-.223-.5-.5-.5h-.027zm12 0a.498.498 0 0 0-.473.5v1a.499.499 0 1 0 1 0v-1c0-.277-.223-.5-.5-.5h-.027zm0 0"/></svg>