<svg xmlns="http://www.w3.org/2000/svg" width="16" height="16"><path fill="#222" d="M5 2c-2 0-4 .5-4 3.5h4C5 5 5 4 8 4s3 1 3 1.5h4c0-3-2-3.5-4-3.5zM1 6v1.5c0 .277.223.5.5.5h3c.277 0 .5-.223.5-.5V6zm10 0v1.5c0 .277.223.5.5.5h3c.277 0 .5-.223.5-.5V6zM1.5 9c-.277 0-.5.223-.5.5v1c0 .277.223.5.5.5h1c.277 0 .5-.223.5-.5v-1c0-.277-.223-.5-.5-.5zm3 0c-.277 0-.5.223-.5.5v1c0 .277.223.5.5.5h1c.277 0 .5-.223.5-.5v-1c0-.277-.223-.5-.5-.5zm3 0c-.277 0-.5.223-.5.5v1c0 .277.223.5.5.5h1c.277 0 .5-.223.5-.5v-1c0-.277-.223-.5-.5-.5zm3 0c-.277 0-.5.223-.5.5v1c0 .277.223.5.5.5h1c.277 0 .5-.223.5-.5v-1c0-.277-.223-.5-.5-.5zm3 0c-.277 0-.5.223-.5.5v1c0 .277.223.5.5.5h1c.277 0 .5-.223.5-.5v-1c0-.277-.223-.5-.5-.5zm-11 3c-.277 0-.5.223-.5.5v1c0 .277.223.5.5.5h1c.277 0 .5-.223.5-.5v-1c0-.277-.223-.5-.5-.5zm3 0c-.277 0-.5.223-.5.5v1c0 .277.223.5.5.5h5c.277 0 .5-.223.5-.5v-1c0-.277-.223-.5-.5-.5zm7 0c-.277 0-.5.223-.5.5v1c0 .277.223.5.5.5h1c.277 0 .5-.223.5-.5v-1c0-.277-.223-.5-.5-.5zm0 0"/></svg>