<svg xmlns="http://www.w3.org/2000/svg" width="16" height="16"><path fill="#222" d="M2.031 1a1.001 1.001 0 0 0-.738 1.707l12 12a1 1 0 1 0 1.414-1.414l-3.484-3.484a5.009 5.009 0 0 0 1.539-5.336 5.014 5.014 0 0 0-4.637-3.461 4.986 4.986 0 0 0-3.93 1.77l-1.488-1.49A1.001 1.001 0 0 0 2.031 1zm6.047 2.008a2.989 2.989 0 0 1 2.777 2.082 2.988 2.988 0 0 1-1.043 3.312L5.617 4.203a2.942 2.942 0 0 1 1.918-1.156c.184-.031.363-.043.543-.04zM4 10c-.55 0-1 .45-1 1v1.008c0 1.43 1.055 2.527 2.238 2.754 1.184.226 2.532-.29 3.305-1.496.195-.305.324-.598.434-.875l-1.559-1.563c-.227.574-.363 1.059-.555 1.36-.36.558-.863.683-1.25.609-.379-.074-.613-.219-.613-.79V11c0-.55-.45-1-1-1zm0 0"/></svg>