<svg xmlns="http://www.w3.org/2000/svg" width="16" height="16"><g fill="#222"><path fill-opacity=".349" d="M6.375.02a.993.993 0 0 0-.773 1.219s.375 1.523.656 3.222c.137.848.25 1.734.285 2.469-.203-.196-.36-.227-.535-.457-.516-.66-.86-1.293-.86-1.293a.992.992 0 0 0-.933-.52.995.995 0 0 0-.871.617s-.54 1.32-.91 2.91-.754 3.489.234 5C4.266 15.633 7.316 16.54 10 15.684v-2.149a.394.394 0 0 1-.059.027c-2 .93-4.414.352-5.601-1.468-.29-.442-.29-2.04.039-3.45.094-.402.129-.398.23-.738.606.758 1.356 1.586 2.524 1.832a1 1 0 0 0 1.101-.535c.368-.742.344-1.488.305-2.355-.035-.868-.164-1.817-.312-2.711-.047-.305-.059-.285-.114-.57.38.316.399.28.817.671 1.496 1.418 2.945 3.301 3.12 4.52.067.433.095.847.087 1.242h1.98a8.077 8.077 0 0 0-.086-1.531c-.324-2.227-2.11-4.149-3.726-5.68C8.688 1.258 7.14.18 7.14.18a.988.988 0 0 0-.766-.16zm0 0"/><path d="M11 11h1.375l1.125 1.094L14.594 11H16v1.469l-1.094 1.062L16 14.594V16h-1.438L13.5 14.937 12.437 16H11v-1.406l1.063-1.063L11 12.47zm0 0"/></g></svg>