<svg xmlns="http://www.w3.org/2000/svg" width="16" height="16"><path fill="#222" d="M7.5 3C3.922 3 1 5.922 1 9.5c0 1.688.656 3.223 1.719 4.383l-.418.398c-.262.25-.367.621-.281.969a1.003 1.003 0 0 0 1.68.469l.59-.578A6.438 6.438 0 0 0 7.5 16a6.407 6.407 0 0 0 3.254-.887l.508.559a.991.991 0 0 0 .96.328c.356-.074.645-.336.755-.684a1.002 1.002 0 0 0-.239-.988l-.43-.476A6.466 6.466 0 0 0 14 9.5C14 5.922 11.078 3 7.5 3zm0 2C9.996 5 12 7.004 12 9.5S9.996 14 7.5 14 3 11.996 3 9.5 5.004 5 7.5 5zm-.008.992A.499.499 0 0 0 7 6.5V9H5.5a.5.5 0 1 0 0 1h2c.277 0 .5-.223.5-.5v-3a.504.504 0 0 0-.145-.363.504.504 0 0 0-.363-.145zM2.11 1.422a2.501 2.501 0 0 0-.688 3.469l4.156-2.782a2.501 2.501 0 0 0-3.469-.687zm10.78 0a2.501 2.501 0 0 1 .688 3.469L9.422 2.109a2.501 2.501 0 0 1 3.469-.687zm0 0"/></svg>