<svg xmlns="http://www.w3.org/2000/svg" width="16" height="16"><g fill="#222"><path d="M4.5 6a.499.499 0 1 0 0 1h6a.499.499 0 1 0 0-1zm0 2a.499.499 0 1 0 0 1h5a.499.499 0 1 0 0-1zm0 2a.499.499 0 1 0 0 1h6a.499.499 0 1 0 0-1zm0 2a.499.499 0 1 0 0 1h3a.499.499 0 1 0 0-1zm0 0"/><path d="M3 1c-1.09 0-2 .91-2 2v11c0 1.09.91 2 2 2h9c1.09 0 2-.91 2-2V3c0-1.09-.91-2-2-2v13H3zm0 0"/><path d="M4.492-.008A.499.499 0 0 0 4 .5v3a.501.501 0 0 0 1 0v-3a.492.492 0 0 0-.148-.36.492.492 0 0 0-.36-.148zm2 0A.499.499 0 0 0 6 .5v3a.501.501 0 0 0 1 0v-3a.492.492 0 0 0-.148-.36.492.492 0 0 0-.36-.148zm2 0A.499.499 0 0 0 8 .5v3a.501.501 0 0 0 1 0v-3a.492.492 0 0 0-.148-.36.492.492 0 0 0-.36-.148zm2 0A.499.499 0 0 0 10 .5v3a.501.501 0 0 0 1 0v-3a.492.492 0 0 0-.148-.36.492.492 0 0 0-.36-.148zm0 0"/></g></svg>