<svg xmlns="http://www.w3.org/2000/svg" width="16" height="16"><g fill="#222"><path d="M7.5 0C3.371 0 0 3.371 0 7.5S3.371 15 7.5 15 15 11.629 15 7.5 11.629 0 7.5 0zm0 2C10.55 2 13 4.45 13 7.5S10.55 13 7.5 13 2 10.55 2 7.5 4.45 2 7.5 2zm0 0"/><path fill-opacity=".349" d="M4.207 3.098A5.53 5.53 0 0 0 2 7.3l.21.215.884.879v.886l.883.88v1.589c.273.23.57.434.882.605v-.43l.883-.878v-.887l.883-.879-.883-.886-.883-.88H3.094V6.63h.883v-.88l.882-.887h.883v-.879l-.883-.886zm5.066 0v.886h-.882l-.883.88.883.886.882-.887h1.766l.91 1.324v.442l.856.887V5.98a5.537 5.537 0 0 0-2-2.882zm3.532 4.418-.91.05-.856-.937V6.41H9.961l-.441-.664H8.39l-.882.883v.883l.883.883h.882l.47.664v1.765l1.19 1.012c.372-.297.704-.64.989-1.024V8.395zm0 0"/></g></svg>