<svg xmlns="http://www.w3.org/2000/svg" width="16" height="16"><path fill="#222" d="M8 0C3.598 0 0 3.598 0 8s3.598 8 8 8 8-3.598 8-8-3.598-8-8-8zm0 1.98c3.34 0 6.02 2.68 6.02 6.02S11.34 14.02 8 14.02 1.98 11.34 1.98 8 4.66 1.98 8 1.98zM6 5c-.55 0-1 .45-1 1s.45 1 1 1 1-.45 1-1-.45-1-1-1zm4 0c-.55 0-1 .45-1 1s.45 1 1 1 1-.45 1-1-.45-1-1-1zM8 9a4 4 0 0 0-3.465 2c-.066.113-.086.25-.05.379s.12.238.234.305.25.086.379.05.238-.12.304-.234C5.938 10.57 6.926 10 8 10s2.063.57 2.598 1.5a.499.499 0 0 0 .684.184c.113-.067.198-.176.234-.305s.015-.266-.051-.379A4 4 0 0 0 8 9zm0 0"/></svg>