<svg xmlns="http://www.w3.org/2000/svg" width="16" height="16"><path fill="#222" d="M6.5 0a1 1 0 0 0-.707.293L4.086 2H3C1.355 2 0 3.355 0 5v7c0 1.645 1.355 3 3 3h10c1.645 0 3-1.355 3-3V5c0-1.645-1.355-3-3-3h-1.086L10.207.293A1 1 0 0 0 9.5 0zm.414 2h2.172l1.707 1.707A1 1 0 0 0 11.5 4H13c.57 0 1 .43 1 1v7c0 .57-.43 1-1 1H3c-.57 0-1-.43-1-1V5c0-.57.43-1 1-1h1.5a1 1 0 0 0 .707-.293zM8 5C6.355 5 5 6.355 5 8s1.586 3 3 3 3-1.355 3-3-1.355-3-3-3zm0 2c.563 0 1 .438 1 1s-.438 1-1 1-1-.438-1-1 .438-1 1-1zm0 0"/></svg>