<svg xmlns="http://www.w3.org/2000/svg" width="16" height="16"><path fill="#222" d="M7.5 0c-.277 0-.5.223-.5.5v2c0 .277.223.5.5.5h1c.277 0 .5-.223.5-.5v-2c0-.277-.223-.5-.5-.5zM3.05 1.844a.49.49 0 0 0-.35.144l-.712.711a.5.5 0 0 0 0 .707L3.406 4.82a.495.495 0 0 0 .703 0l.707-.707c.2-.199.2-.511 0-.707l-1.41-1.418a.506.506 0 0 0-.355-.144zm9.9 0a.506.506 0 0 0-.356.144l-1.41 1.418c-.2.196-.2.508 0 .707l.707.707a.495.495 0 0 0 .703 0l1.418-1.414a.5.5 0 0 0 0-.707l-.711-.71a.49.49 0 0 0-.352-.145zM8 4.008c-2.195 0-4 1.804-4 4 0 2.191 1.805 4 4 4s4-1.809 4-4c0-2.195-1.805-4-4-4zM.5 7c-.277 0-.5.223-.5.5v1c0 .277.223.5.5.5h2c.277 0 .5-.223.5-.5v-1c0-.277-.223-.5-.5-.5zm13 0c-.277 0-.5.223-.5.5v1c0 .277.223.5.5.5h2c.277 0 .5-.223.5-.5v-1c0-.277-.223-.5-.5-.5zm-9.742 4.035a.49.49 0 0 0-.352.145l-1.418 1.414a.5.5 0 0 0 0 .707l.711.71a.5.5 0 0 0 .707 0l1.41-1.417c.2-.196.2-.508 0-.707l-.707-.707a.49.49 0 0 0-.351-.145zm8.484 0a.49.49 0 0 0-.351.145l-.707.707c-.2.199-.2.511 0 .707l1.41 1.418a.5.5 0 0 0 .707 0l.71-.711a.5.5 0 0 0 0-.707l-1.417-1.414a.49.49 0 0 0-.352-.145zM7.5 13c-.277 0-.5.223-.5.5v2c0 .277.223.5.5.5h1c.277 0 .5-.223.5-.5v-2c0-.277-.223-.5-.5-.5zm0 0"/></svg>