<svg xmlns="http://www.w3.org/2000/svg" width="16" height="16"><path fill="#222" d="M10.016 2.016c-.555 0-1 .445-1 1v11a1 1 0 0 0 1 1h3A3 3 0 0 0 16 12.03V9.988A3.003 3.003 0 0 0 13.016 7h-2V3.016a1 1 0 0 0-1-1zm-8 3a1 1 0 1 0 0 2h2a.984.984 0 0 1 1 .984H3.613a3.523 3.523 0 0 0-3.582 3.434c-.004.007-.004.011 0 .02 0 1.952 1.606 3.562 3.559 3.562h2.426c.55 0 .996-.45 1-1v-6c0-1.645-1.356-3-3-3zm9 3.984h2c.554 0 .984.43.984.988v2.043a.97.97 0 0 1-.984.985h-2zM3.57 10h1.446v3.016H3.59c-.867 0-1.55-.684-1.555-1.551A1.49 1.49 0 0 1 3.57 10zm0 0"/></svg>