<svg xmlns="http://www.w3.org/2000/svg" width="16" height="16"><path fill="#222" d="M13.98 1.988a.991.991 0 0 0-.687.305l-.984.984A7.997 7.997 0 0 0 8 2 7.997 7.997 0 0 0 .262 8.012a8.015 8.015 0 0 0 2.945 4.37l-.914.911a.992.992 0 0 0-.273.973.99.99 0 0 0 .714.714.992.992 0 0 0 .973-.273l11-11a.997.997 0 0 0 .223-1.105.995.995 0 0 0-.95-.614zM8 4c.96 0 1.887.348 2.613.977L9.191 6.395a1.999 1.999 0 0 0-2.797 2.793l-1.417 1.421A4.01 4.01 0 0 1 4 8c0-2.21 1.79-4 4-4zm7.031 2.207-3.344 3.344A4.012 4.012 0 0 1 9.56 11.68l-2.28 2.277c.239.027.477.04.719.043a7.997 7.997 0 0 0 7.738-6.012 8.22 8.22 0 0 0-.707-1.781zM7.5 7a.499.499 0 1 1 0 1 .499.499 0 1 1 0-1zm0 0"/></svg>