<svg xmlns="http://www.w3.org/2000/svg" width="16" height="16"><g fill="#222"><path d="M1.5.469.437 1.53l14 14 1.063-1.06zm0 0"/><path d="M6.227 1.168C4.8 1.191 3.98 2.484 3.657 3.781v.04l-.192.656L6.988 8h7.028c.554 0 1-.445 1-1s-.446-1-1-1h-1l-.641-2.207c-.195-.848-1.047-1.738-2.14-1.738-.32 0-.633.07-.919.203-.406.191-.796.129-1.097-.207a2.612 2.612 0 0 0-1.95-.883h-.042zM2.016 6c-.555 0-1 .445-1 1s.445 1 1 1h2.847l-2-2zm2.5 2.984c-1.38 0-2.5 1.121-2.5 2.5a2.502 2.502 0 0 0 4.867.809.541.541 0 0 0 .066-.234c.028-.11.043-.223.055-.336a1.03 1.03 0 0 1 .476-.59c.122-.07.258-.106.395-.125l-.785-.785c-.035.015-.074.023-.106.039-.078.047-.136.105-.207.156a2.501 2.501 0 0 0-2.261-1.434zm7 0c-.926 0-1.778.516-2.211 1.336l.77.762a1.492 1.492 0 0 1 1.44-1.094 1.49 1.49 0 0 1 1.497 1.496c0 .672-.446 1.262-1.094 1.442l.766.77a2.5 2.5 0 0 0-1.168-4.712zm-7 1.004c.828-.004 1.5.668 1.496 1.496.004.028 0 .055 0 .082-.02.07-.02.149-.032.227a1.497 1.497 0 0 1-2.964-.309c0-.828.671-1.496 1.5-1.496zm0 0"/></g></svg>