<svg xmlns="http://www.w3.org/2000/svg" width="16" height="16"><path fill="#222" d="M3.785 2.031c-.242 0-.523.067-.805.219C1.941 2.797.988 4.586.47 6.906c-.442 1.973-.606 4.664-.34 5.75C.355 13.59.754 14 1.46 14c1.043-.02 2.36-1.184 3.191-2.75.602-.867 2-1.262 3.348-1.219 1.348-.047 2.746.352 3.348 1.219.832 1.566 2.148 2.73 3.191 2.75.707 0 1.106-.41 1.332-1.344.266-1.086.102-3.777-.34-5.75-.52-2.32-1.472-4.11-2.511-4.656-.567-.305-1.04-.297-1.454 0-.527.375-1.628.781-3.566.781-1.937.004-3.04-.406-3.566-.781a1.056 1.056 0 0 0-.649-.219zm.246 3h.992v1h.993v1h-.993v1h-.992v-1H3.04v-1h.992zm7.442 0c.273 0 .496.223.496.5s-.223.5-.496.5c-.274 0-.496-.222-.496-.5s.222-.5.496-.5zm-.993 1c.274 0 .497.223.497.5s-.223.5-.497.5c-.273 0-.496-.222-.496-.5s.223-.5.496-.5zm1.985 0c.273 0 .496.223.496.5s-.223.5-.496.5c-.274 0-.496-.222-.496-.5s.222-.5.496-.5zm-.992 1c.273 0 .496.223.496.5s-.223.5-.496.5c-.274 0-.496-.222-.496-.5s.222-.5.496-.5zm0 0"/></svg>