<svg xmlns="http://www.w3.org/2000/svg" width="16" height="16"><path fill="#222" d="M8 .063c-1.105 0-2 .894-2 2s.895 2 2 2a2 2 0 1 0 0-4zM7 5S6 5 6 6v3c0 2 2 2 2 2h2v-.063h.371l2.711 4.516a1 1 0 1 0 1.71-1.031l-3.288-5.485H10V8h3c.55 0 1-.45 1-1s-.45-1-1-1h-2.586l-.707-.707A1 1 0 0 0 9 5zM5 6.973a4.5 4.5 0 0 0-3.656 2.742 4.5 4.5 0 0 0 5.879 5.879 4.488 4.488 0 0 0 2.738-3.657H7.945a2.5 2.5 0 0 1-1.488 1.813 2.499 2.499 0 0 1-2.727-.547 2.497 2.497 0 0 1-.542-2.723A2.486 2.486 0 0 1 5 8.996zm0 0"/></svg>