<svg xmlns="http://www.w3.org/2000/svg" width="16" height="16"><g fill="#222"><path d="M2.398 2A2.394 2.394 0 0 0 0 4.398v7.204A2.394 2.394 0 0 0 2.398 14h7.204A2.394 2.394 0 0 0 12 11.602V4.398A2.394 2.394 0 0 0 9.602 2zm.575 2.992L2.98 5H3v.023l.5.5.5-.5V5h.023l.008-.008L4.04 5H5v.965l.02.02-.528.527L4.98 7H5v.02l.02.015-.02.02V8h-.941l-.028.027L4.004 8H4v-.004L3.5 7.5l-.527.527L2.945 8H2v-.945l-.02-.02L2 7.02V7h.02l.488-.488-.528-.528L2 5.97V5h.965zm5 0L7.98 5H8v.023l.504.5L9 5.027V5h.027l.004-.008L9.04 5H10v.969l.02.02-.528.523.492.488H10v.02l.02.02-.02.015V8h-.941l-.028.027L9.004 8H9v-.004L8.504 7.5 8 8l-.027.027L7.945 8H7v-.945l-.02-.016.02-.02V7h.02l.488-.488-.528-.524.02-.02V5h.969zM2 9h8v1H6v1.668C6 12.406 5.332 13 4.5 13s-1.516-.594-1.5-1.332V10H2zm0 0"/><path d="m12 8 3-3h1v6h-1zm0 0"/></g></svg>