<svg xmlns="http://www.w3.org/2000/svg" width="16" height="16"><path fill="#222" d="M7 1v2a6.008 6.008 0 0 0-5.723 4.2 6.005 6.005 0 0 0 2.282 6.718 1 1 0 1 0 1.148-1.637 3.994 3.994 0 0 1-1.523-4.48A3.995 3.995 0 0 1 7 5v2h.75a.756.756 0 0 0 .375-.117l3.75-2.25A.743.743 0 0 0 12.203 4a.743.743 0 0 0-.328-.633l-3.75-2.25A.756.756 0 0 0 7.75 1zm6.156 7.898c-1.535 0-2.566 1.25-2.566 3.122 0 1.835 1.012 3.066 2.523 3.066 1.524 0 2.555-1.246 2.555-3.129 0-1.836-1.012-3.059-2.512-3.059zm-4.875.086-2.07 1.196.562 1.074.903-.469v2.934h-1.16V15h3.726v-1.281H9.176V8.984zm4.84 1.196c.598 0 1.004.738 1.004 1.847 0 1.067-.398 1.778-.98 1.778-.614 0-1.012-.739-1.012-1.84 0-1.074.398-1.785.988-1.785zm0 0"/></svg>