<svg xmlns="http://www.w3.org/2000/svg" width="16" height="16"><path fill="#222" d="M12.5 0a1.5 1.5 0 0 0-.727 2.813l-2.25 2.25c-.132.109-.07.214-.015.312.148.234.305.438.46.594.173.172.41.347.688.52.172.124.305-.032.305-.032l2.23-2.23c.262.476.762.773 1.309.773a1.5 1.5 0 0 0 0-3c-.5 0-.5-.5-.5-.5A1.5 1.5 0 0 0 12.5 0zM7.79 2.402c-.33-.02-.642.262-.724.668C6.922 3.79 6.902 4.203 6 5c-.559.492-3 .738-3 2 0 0 0 2 2 4s4 2 4 2c1 0 1.508-2.441 2-3 .797-.902.852-.418 2.066-.93.473-.203.832-.8.645-1.277-.234-.602-1.297-1.102-1.836-1.016-.523.086-1.125 1.004-1.398.84-.649-.383-.801-.488-1.176-.86-.164-.163-.89-.823-.906-1.37-.02-.524.886-.785.78-1.364-.113-.644-.679-1.582-1.386-1.62zm-4.142 8.536-.835.835A1.5 1.5 0 1 0 1.5 14c.5 0 .5.336.5.5a1.5 1.5 0 1 0 2.227-1.313l.836-.835a8.103 8.103 0 0 1-1.415-1.415zm0 0"/></svg>