<svg xmlns="http://www.w3.org/2000/svg" width="16" height="16"><path fill="#222" d="M1.156 1c.137.809.266 1.707.403 2.617A2.007 2.007 0 0 0 1 5c0 .773.45 1.453 1.098 1.781.125.637.27 1.266.441 1.867.398 1.391.93 2.676 1.8 3.68a4.837 4.837 0 0 0 1.755 1.281C6.355 14.414 7.114 15 8 15s1.64-.586 1.902-1.387a4.826 4.826 0 0 0 1.758-1.285c.871-1.004 1.406-2.289 1.805-3.68.172-.601.312-1.23.441-1.867A2.013 2.013 0 0 0 15 5c0-.531-.21-1.02-.559-1.379.137-.914.266-1.812.403-2.621h-2.031c-.11.668-.215 1.367-.317 2.063A2.011 2.011 0 0 0 11 5a2 2 0 0 0 .883 1.656c-.102.5-.215.989-.344 1.446-.352 1.234-.82 2.261-1.387 2.918a2.978 2.978 0 0 1-.707.605 1.982 1.982 0 0 0-2.887-.004 2.9 2.9 0 0 1-.71-.601c-.567-.657-1.032-1.684-1.383-2.918a18.237 18.237 0 0 1-.344-1.446C4.648 6.293 5 5.684 5 5c0-.926-.637-1.71-1.496-1.938A131.75 131.75 0 0 0 3.188 1zM3 4c.559 0 1 .441 1 1s-.441 1-1 1-1-.441-1-1 .441-1 1-1zm10 0c.559 0 1 .441 1 1s-.441 1-1 1-1-.441-1-1 .441-1 1-1zm-5 8c.559 0 1 .441 1 1s-.441 1-1 1-1-.441-1-1 .441-1 1-1zm0 0"/></svg>