<svg xmlns="http://www.w3.org/2000/svg" width="16" height="16"><path fill="#222" d="M10 3a4.01 4.01 0 0 0-3.633 2.332A2.969 2.969 0 0 0 5 5a3 3 0 0 0-3 3c0 .348.063.695.184 1.02A2.504 2.504 0 0 0 0 11.5C0 12.879 1.121 14 2.5 14H13a3 3 0 0 0 .836-5.879C13.946 7.758 14 7.38 14 7c0-2.21-1.79-4-4-4zm0 1h.004A2.985 2.985 0 0 1 13 7c0 .285-.043.566-.121.84l-.281.96.96.282A1.988 1.988 0 0 1 15 11c0 1.117-.883 2-2 2H2.5c-.84 0-1.5-.66-1.5-1.5 0-.762.555-1.39 1.313-1.488l1.242-.157-.43-1.18A1.984 1.984 0 0 1 5 6c.316.001.629.075.914.22l.93.48.433-.949A3 3 0 0 1 10 4zm0 0"/></svg>