<svg xmlns="http://www.w3.org/2000/svg" width="16" height="16"><path fill="#222" d="M6.004.176a.993.993 0 0 0-.402 1.062s.375 1.524.656 3.223c.137.848.254 1.734.285 2.469-.203-.196-.356-.227-.535-.457-.516-.66-.86-1.293-.86-1.293a.992.992 0 0 0-.933-.52 1 1 0 0 0-.871.617s-.535 1.32-.91 2.91c-.372 1.59-.754 3.489.234 5 1.754 2.688 5.266 3.516 8.117 2.188 2.711-1.258 3.656-4.125 3.25-6.91-.328-2.223-2.113-4.145-3.73-5.676A30.485 30.485 0 0 0 7.145.18 1.006 1.006 0 0 0 6.004.177zm2.11 3.39c.378.317.402.282.816.672 1.496 1.418 2.945 3.301 3.125 4.52.324 2.215-.246 3.941-2.114 4.805-2 .93-4.41.351-5.601-1.47-.29-.44-.29-2.038.043-3.448.094-.403.125-.399.23-.739.602.758 1.352 1.586 2.52 1.832a1 1 0 0 0 1.101-.535c.368-.742.348-1.488.309-2.355-.04-.868-.164-1.817-.313-2.711-.05-.305-.062-.285-.117-.57zm0 0"/></svg>