<svg xmlns="http://www.w3.org/2000/svg" width="16" height="16"><g fill="#222"><path fill-opacity=".349" d="M8.008.004V4.21l-.68 2.074a1.003 1.003 0 0 1-.941.692l-2.254.007 1.699 1.2c.367.257.516.726.367 1.148l-.765 2.191 1.964-1.304c.2-.059.407-.11.61-.164v2.222l-.051-.03-3.898 2.589c-.797.527-1.813-.262-1.497-1.164l1.504-4.29L.422 6.81c-.793-.563-.399-1.813.574-1.817l4.66-.015L7.06.69a.994.994 0 0 1 .945-.687zm0 0"/><path d="M8.008.004a1 1 0 0 1 .949.68l1.45 4.343 4.59-.02c.98-.003 1.382 1.259.581 1.821L11.95 9.383l1.5 4.289c.317.898-.687 1.687-1.488 1.168l-3.953-2.563zm0 0"/></g></svg>