<svg xmlns="http://www.w3.org/2000/svg" width="16" height="16"><path fill="#222" d="M8 1.008c-2.05 0-4.098.777-5.656 2.336-3.117 3.117-3.117 8.195 0 11.312a1 1 0 0 0 1.672-.965l.804-.804-.707-.707-.691.691A5.935 5.935 0 0 1 2.02 9.5H3v-1h-.98A5.957 5.957 0 0 1 3.3 5.273c.04.098.098.184.169.258L6.156 8.22A2.05 2.05 0 0 0 6 9a2 2 0 1 0 1.223-1.84L4.53 4.47a.771.771 0 0 0-.26-.17A5.95 5.95 0 0 1 7.5 3.02V4h1v-.98a5.935 5.935 0 0 1 3.371 1.402l-.691.691.707.707.691-.691A5.935 5.935 0 0 1 13.98 8.5H13v1h.98a5.935 5.935 0 0 1-1.402 3.371l-.691-.691-.707.707.804.804a1 1 0 0 0 1.672.965c3.117-3.117 3.117-8.195 0-11.312A7.969 7.969 0 0 0 8 1.008zm0 0"/></svg>