<svg xmlns="http://www.w3.org/2000/svg" width="16" height="16"><path fill="#222" d="M8.219 1C4.914 1 2.195 4.008 2.25 6.719c.047 2.367.809 4.695 1 5.281h.004l.488 1.613c.301.989 1.305 1.559 2.254 1.282.945-.274 1.469-1.293 1.172-2.282l-.676-2.226c-.3-.985-1.304-1.559-2.254-1.282a1.455 1.455 0 0 0-.32.133c-.227-1.34-.191-2.394-.191-2.394 0-2.371 2.007-4.313 4.492-4.313s4.5 1.828 4.492 4.281c-.012.883-.066 1.586-.23 2.415-.075-.032-.141-.067-.215-.09-.95-.274-1.957.297-2.254 1.281l-.676 2.227c-.3.988.223 2.007 1.172 2.285.945.277 1.953-.293 2.254-1.282L13.258 12h.02c.222-.645.972-3.191.972-5.281C14.25 3.89 11.523 1 8.219 1zm0 0"/></svg>