<svg xmlns="http://www.w3.org/2000/svg" width="16" height="16"><path fill="#2e3436" d="M7.023 0a5.01 5.01 0 0 0-5 5v6c0 2.754 2.247 5 5 5h1.97c2.753 0 5-2.246 5-5V5c0-2.754-2.247-5-5-5zm0 2h1.97c1.679 0 3 1.32 3 3v6c0 1.68-1.321 3-3 3h-1.97c-1.68 0-3-1.32-3-3V5c0-1.68 1.32-3 3-3zm.97 1c-.556 0-1 .445-1 1v2c0 .555.444 1 1 1 .554 0 1-.445 1-1V4c0-.555-.446-1-1-1zm0 0"/><path fill="none" stroke="#2e3436" stroke-linecap="round" stroke-width="2" d="M24.934 22.996h-1.82a2.09 2.09 0 0 0-2.09 2.09v2.809c0 1.156.933 2.09 2.09 2.09h1.82a2.09 2.09 0 0 0 2.09-2.09v-2.81a2.093 2.093 0 0 0-2.09-2.089zm0 0"/></svg>