<svg xmlns="http://www.w3.org/2000/svg" width="16" height="16"><g fill="#222"><path d="M-.02 2.027v11.93c0 1.117.903 2.02 2.02 2.02h11.93c1.117 0 2.02-.903 2.02-2.02V2.027c0-1.117-.903-2.02-2.02-2.02H2A2.02 2.02 0 0 0-.02 2.028zM2.012 3h12v11.008h-12V12H3c.562 0 1.016-.453 1.016-1.016V6.016C4.016 5.453 3.562 5 3 5h-.988zm0 0"/><path d="M9.043 4h.68a.69.69 0 0 1 .453.207l.844.844.867-.844c.175-.152.293-.203.453-.207H13v.66c0 .188-.023.363-.164.496L11.988 6l.828.824a.688.688 0 0 1 .184.477v.656h-.66a.654.654 0 0 1-.473-.184l-.847-.843-.844.843a.67.67 0 0 1-.477.184h-.656v-.656a.67.67 0 0 1 .184-.477L10.07 6l-.843-.844a.595.595 0 0 1-.184-.496zm0 0"/><path d="M6.05 5C5.47 5 5 5.469 5 6.05v4.903C5 11.531 5.469 12 6.05 12h4.9c.581 0 1.05-.469 1.05-1.047V9H9.05C8.47 9 8 8.531 8 7.953V5zm0 0"/></g></svg>