<svg xmlns="http://www.w3.org/2000/svg" width="16" height="16"><path d="M8 7c-.547 0-1 .453-1 1s.453 1 1 1 1-.453 1-1-.453-1-1-1zm0 0"/><path fill-opacity=".102" d="M8 0C3.61 0 0 3.61 0 8s3.61 8 8 8 8-3.61 8-8-3.61-8-8-8zm0 1c3.844 0 7 3.156 7 7s-3.156 7-7 7-7-3.156-7-7 3.156-7 7-7zm0 0"/><path fill-opacity=".349" d="M8 2C4.7 2 2 4.7 2 8s2.7 6 6 6 6-2.7 6-6-2.7-6-6-6zm0 2c2.223 0 4 1.777 4 4s-1.777 4-4 4-4-1.777-4-4 1.777-4 4-4zm0 0"/><path fill-opacity=".502" d="M8 5C6.348 5 5 6.348 5 8s1.348 3 3 3 3-1.348 3-3-1.348-3-3-3zm0 1c1.11 0 2 .89 2 2s-.89 2-2 2-2-.89-2-2 .89-2 2-2zm0 0"/></svg>