<svg xmlns="http://www.w3.org/2000/svg" width="16" height="16"><g fill="#222"><path d="M5.992.05v2h6c.43 0 1 .614 1 1v1h-5c-.918 0-1.734.384-2.25.97a3.034 3.034 0 0 0-.75 2.03c.008.72.27 1.454.781 2.032a2.972 2.972 0 0 0 2.22.969h7v-7c0-1.637-1.317-3-3-3zm2 6h5v2h-5c-.394 0-.566-.109-.719-.28a1.178 1.178 0 0 1-.28-.72c0-.28.105-.554.25-.718.148-.168.327-.281.75-.281zm0 0"/><path d="M2.992 9a1.03 1.03 0 0 0-.719.281l-2.28 2.281v.876l2.28 2.28c.192.188.457.282.72.282h1v-1a1 1 0 0 0-.282-.719L3.43 13h11.547v-2H3.43l.28-.281A.983.983 0 0 0 3.993 10V9zm0 0"/></g></svg>