<svg xmlns="http://www.w3.org/2000/svg" width="16" height="16"><path fill="#222" d="M.988-.012v2a1 1 0 1 1 0 2v1a1 1 0 1 1 0 2v1a1 1 0 1 1 0 2v1a1 1 0 1 1 0 2v2h2a1 1 0 1 1 2 0h1a1 1 0 1 1 2 0h1a1 1 0 1 1 2 0h1a1 1 0 1 1 2 0h2v-2a1 1 0 1 1 0-2v-1a1 1 0 1 1 0-2v-1a1 1 0 1 1 0-2v-1a1 1 0 1 1 0-2v-2h-2a1 1 0 1 1-2 0h-1a1 1 0 1 1-2 0h-1a1 1 0 1 1-2 0h-1a1 1 0 1 1-2 0zm2 2h11v11h-2v-2.062c0-1.07-.777-1.98-1.718-2.25-.493.476-1.07.687-1.782.687-.707 0-1.285-.21-1.781-.687-.773.277-1.715.976-1.719 2.219v2.093h-2zm5.5 2a2.307 2.307 0 1 0 0 4.614 2.308 2.308 0 0 0 2.309-2.309 2.305 2.305 0 0 0-2.309-2.305zm0 0"/></svg>