<svg xmlns="http://www.w3.org/2000/svg" width="16" height="16"><g fill="#222"><path d="M8 0a4.997 4.997 0 0 0-4.918 4.09l1.879 1.875C4.988 5.645 5 5.325 5 5c0-1.652 1.348-3 3-3s3 1.348 3 3c0 1.36.215 2.707.629 4H7.996l2 2h3.031a.998.998 0 0 0 .946-1.324l-.371-1.078A11.055 11.055 0 0 1 13 5c0-2.766-2.234-5-5-5zM2.945 6.07c-.082.86-.265 1.707-.547 2.528l-.37 1.078A.998.998 0 0 0 2.972 11h4.902l-2-2H4.367c.13-.39.235-.785.32-1.184zm3.188 5.914a.999.999 0 0 0-.96 1.578A3.493 3.493 0 0 0 7.948 15a3.486 3.486 0 0 0 2.703-1.219l-1.41-1.414a.679.679 0 0 0-.058.051 1.495 1.495 0 0 1-2.395-.031.993.993 0 0 0-.656-.403zm0 0"/><path d="M1.531.457.47 1.52l14 14 1.062-1.063zm0 0"/></g></svg>