<svg xmlns="http://www.w3.org/2000/svg" width="16" height="16"><path fill="#222" d="M7.008 0a3.005 3.005 0 0 0-3 3v7h-4v3c0 1.07.574 2.066 1.5 2.602.465.265.984.398 1.5.398v.008l7-.004V16h.015c.793 0 1.559-.316 2.122-.875A3.023 3.023 0 0 0 13.023 13a.891.891 0 0 0-.015-.176V6h3V3a2.998 2.998 0 0 0-3-3zm0 2c.172 0 .344.047.5.137.312.175.5.504.5.863v3h3v7h.015a1 1 0 0 1-1 1c-.023 0-.05 0-.07.004l-4.125.004c.113-.32.18-.66.18-1.008V3c0-.36.187-.687.5-.863.156-.09.328-.137.5-.137zm2.82 0h3.18a1 1 0 0 1 1 1v1h-4V3c0-.348-.067-.684-.18-1zm-7.82 10h2v1c0 .36-.188.688-.5.867a.995.995 0 0 1-1 0 .994.994 0 0 1-.5-.867zm0 0"/></svg>