<svg xmlns="http://www.w3.org/2000/svg" width="16" height="16"><g fill="#222"><path d="M4 6h1c.258 0 .527-.129.719-.313L7 4.407V11h2V4.406l1.281 1.282c.192.183.41.312.719.312h1V5c0-.309-.09-.55-.281-.75L8 .594 4.281 4.25C4.09 4.45 4 4.691 4 5zm0 0"/><path d="M1.008 11.973a3.048 3.048 0 0 0 3.031 3.035h7.918a3.048 3.048 0 0 0 3.031-3.035V10h-2v1.973a1.01 1.01 0 0 1-1.031 1.035H4.039a1.01 1.01 0 0 1-1.031-1.035V10h-2zm0 0"/><path d="M4.04 6.969A3.044 3.044 0 0 0 1.007 10v1.977h2V10c0-.59.441-1.031 1.031-1.031H5v-2zm6.96 0v2h.957c.59 0 1.031.441 1.031 1.031v1.977h2V10a3.044 3.044 0 0 0-3.031-3.031zm0 0"/></g></svg>