<svg xmlns="http://www.w3.org/2000/svg" width="16" height="16"><path fill="#222" d="M2.992 0a2.998 2.998 0 0 0-3 3v6a3.005 3.005 0 0 0 3 3h7v4h3c1.07 0 2.067-.574 2.602-1.5.265-.465.398-.984.398-1.5H16l-.008-7v-.016a3.005 3.005 0 0 0-3-3 .958.958 0 0 0-.18.016h-6.82V0zm0 2h1v4h-1c-.347 0-.683.066-1 .176V3a1 1 0 0 1 1-1zm10 2.988a1 1 0 0 1 1 1c0 .024 0 .047.004.067L14 10.18c-.32-.114-.66-.18-1.008-.18h-10a.994.994 0 0 1-1-1 .994.994 0 0 1 1-1h3V5h7zm-1 7.012h1c.36 0 .688.188.867.5s.18.688 0 1-.507.5-.867.5h-1zm0 0"/></svg>