<svg xmlns="http://www.w3.org/2000/svg" width="16" height="16"><g fill="#2e3436"><path d="M3 0C1.355 0 0 1.355 0 3v10c0 1.645 1.355 3 3 3h10c1.645 0 3-1.355 3-3V3c0-1.645-1.355-3-3-3zm0 2h10c.57 0 1 .43 1 1v10c0 .57-.43 1-1 1H3c-.57 0-1-.43-1-1V3c0-.57.43-1 1-1zm0 0"/><path d="M9.031 7.082 6.523 9.516 6 9.055a.75.75 0 1 0-.988 1.129l1.043.918a.752.752 0 0 0 1.02-.028l3-2.918A.747.747 0 1 0 9.03 7.082zm0 0"/><path d="m8 5.996-3.016.012A2.002 2.002 0 0 0 3 8.004v3.02c0 1.093.895 1.992 1.984 1.992h2.989a1.997 1.997 0 0 0 1.988-1.993v-.464h-1v.464a.983.983 0 0 1-.988.993H4.984A.98.98 0 0 1 4 11.023v-3.02c0-.554.434-.991.988-.995L8 6.996zM2.996 2.953H9.02V4.06H2.996zm6.964 0h3.005V4.06H9.96zm0 2h3.005V6H9.96zm0 0"/></g></svg>