<svg xmlns="http://www.w3.org/2000/svg" width="16" height="16"><g fill="#222"><path d="M3.938 3c-.907.383-1.204 1.219-.68 1.883l3.789 5.035-1.496 1.64L6.76 13l1.38-1.719L9.496 13l1.2-1.383-1.462-1.699 3.79-5.035c.523-.664.23-1.5-.68-1.883L8.14 8.535zm0 0"/><path d="M7 1v1h1V1zm2 0v1h1V1zm2 0v1h1V1zm2 0v1h1V1zm2 0v1h1V1zM7 3v1h1V3zm0 2v1h1V5zm5 5a3 3 0 1 0 .002 6.002A3 3 0 0 0 12 10zm0 2c.55 0 1 .45 1 1s-.45 1-1 1-1-.45-1-1 .45-1 1-1zm-8-2a3 3 0 1 0 .002 6.002A3 3 0 0 0 4 10zm0 2c.55 0 1 .45 1 1s-.45 1-1 1-1-.45-1-1 .45-1 1-1zm0 0"/></g></svg>