<svg xmlns="http://www.w3.org/2000/svg" width="16" height="16"><path fill="#222" d="M3.012 1A3.026 3.026 0 0 0 0 4.012v4.976A3.026 3.026 0 0 0 3.012 12c.55 0 1-.45 1-1s-.45-1-1-1A.988.988 0 0 1 2 8.988V4.012A.988.988 0 0 1 3.012 3h7.976A.988.988 0 0 1 12 4.012v1.953a1 1 0 1 0 2 0V4.012A3.026 3.026 0 0 0 10.988 1zM6.93 8.012c-1.07 0-1.93.863-1.93 1.93v3.14c0 1.07.86 1.93 1.93 1.93h4.14c1.07 0 1.93-.86 1.93-1.93v-.578l1.852 1.379a.708.708 0 0 0 1.129-.57V9.71a.709.709 0 0 0-1.133-.57L13 10.51v-.57c0-1.066-.86-1.93-1.93-1.93zm0 0"/></svg>