<svg xmlns="http://www.w3.org/2000/svg" width="16" height="16"><path fill="#222" d="M11.395 1.965a3.734 3.734 0 0 0-2.637.984L8 3.625l-.754-.676a3.747 3.747 0 0 0-3.68-.77 3.738 3.738 0 0 0-2.5 2.805 3.753 3.753 0 0 0 1.192 3.567L8 13.668l5.746-5.117a3.75 3.75 0 0 0-2.352-6.586zM4.883 3.918c.293.02.605.14 1.027.52v.003L8 6.305l2.098-1.871.011-.012a1.759 1.759 0 0 1 1.23-.457c.891.023 1.364.5 1.602 1.16.235.656.168 1.328-.504 1.91l-.011.012L8 10.992 3.586 7.055l-.004-.004c-.566-.496-.656-.86-.656-1.25-.004-.39.176-.856.508-1.227.328-.367.77-.601 1.156-.644.097-.012.191-.016.293-.012zm0 0"/></svg>