<svg xmlns="http://www.w3.org/2000/svg" width="16" height="16"><path fill="#222" d="m11.344.406-.688.719 2.438 2.406v2.781l.156.125.781.782L14 11.527c0 .961-.309 1.504-.992 1.504-.613 0-1.008-.48-1.008-1.48l.004-2.082c0-.903-.574-1.469-1.555-1.469H10V3c0-1.11-.89-2-2-2H3c-1.11 0-2 .89-2 2v11c-.555 0-1 .445-1 1h11c0-.555-.445-1-1-1V9h.418c.324 0 .586.254.586.469v2.082c0 1.668.992 2.465 1.996 2.465 1.29 0 2-.805 2-2.465l.063-7.27v-.218l-.157-.157zM3.992 2.973h3.016a1 1 0 0 1 1 1v2a1 1 0 0 1-1 1H3.992a1 1 0 0 1-1-1v-2a1 1 0 0 1 1-1zm0 0"/></svg>