<svg xmlns="http://www.w3.org/2000/svg" width="16" height="16"><path fill="#222" d="M8 1c-.55 0-1 .45-1 1v3c0 .55.45 1 1 1s1-.45 1-1V2c0-.55-.45-1-1-1zM1 3a1 1 0 0 0-.707 1.707l2 2a1 1 0 1 0 1.414-1.414l-2-2A1 1 0 0 0 1 3zm14 0a1 1 0 0 0-.707.293l-2 2a1 1 0 1 0 1.414 1.414l2-2A1 1 0 0 0 15 3zM8 7.992a9.798 9.798 0 0 0-6.938 2.863l-.343.348a2.454 2.454 0 0 0 0 3.469l1.039 1.039a.98.98 0 0 0 1.387 0l1.042-1.04 1.04-1.038a.985.985 0 0 0 0-1.39l-.497-.493a6.861 6.861 0 0 1 6.54 0l-.497.492a.985.985 0 0 0 0 1.39l1.04 1.04 1.042 1.039a.98.98 0 0 0 1.387 0l1.04-1.04a2.454 2.454 0 0 0 0-3.468l-.345-.348A9.798 9.798 0 0 0 8 7.992zm0 0"/></svg>