<svg xmlns="http://www.w3.org/2000/svg" width="16" height="16"><path fill="#222" d="M2 0C1.445 0 .973.445 1 1v14H0v1h16v-1h-1V1c0-1-1-1-1-1zm1.25 2h1.5c.137 0 .25.113.25.25v1.5c0 .137-.113.25-.25.25h-1.5A.252.252 0 0 1 3 3.75v-1.5c0-.137.113-.25.25-.25zm4 0h1.5c.137 0 .25.113.25.25v1.5c0 .137-.113.25-.25.25h-1.5A.252.252 0 0 1 7 3.75v-1.5c0-.137.113-.25.25-.25zm4 0h1.5c.137 0 .25.113.25.25v1.5c0 .137-.113.25-.25.25h-1.5a.252.252 0 0 1-.25-.25v-1.5c0-.137.113-.25.25-.25zm-8 3h1.5c.137 0 .25.113.25.25v1.5c0 .137-.113.25-.25.25h-1.5A.252.252 0 0 1 3 6.75v-1.5c0-.137.113-.25.25-.25zm4 0h1.5c.137 0 .25.113.25.25v1.5c0 .137-.113.25-.25.25h-1.5A.252.252 0 0 1 7 6.75v-1.5c0-.137.113-.25.25-.25zm4 0h1.5c.137 0 .25.113.25.25v1.5c0 .137-.113.25-.25.25h-1.5a.252.252 0 0 1-.25-.25v-1.5c0-.137.113-.25.25-.25zm-8 3h1.5c.137 0 .25.113.25.25v1.5c0 .137-.113.25-.25.25h-1.5A.252.252 0 0 1 3 9.75v-1.5c0-.137.113-.25.25-.25zm4 0h1.5c.137 0 .25.113.25.25v1.5c0 .137-.113.25-.25.25h-1.5A.252.252 0 0 1 7 9.75v-1.5c0-.137.113-.25.25-.25zm4 0h1.5c.137 0 .25.113.25.25v1.5c0 .137-.113.25-.25.25h-1.5a.252.252 0 0 1-.25-.25v-1.5c0-.137.113-.25.25-.25zm-8 3h1.5c.137 0 .25.113.25.25v1.5c0 .137-.113.25-.25.25h-1.5a.252.252 0 0 1-.25-.25v-1.5c0-.137.113-.25.25-.25zM7 12h2v3H7zm4.25-1h1.5c.137 0 .25.113.25.25v1.5c0 .137-.113.25-.25.25h-1.5a.252.252 0 0 1-.25-.25v-1.5c0-.137.113-.25.25-.25zm0 0"/></svg>