<svg xmlns="http://www.w3.org/2000/svg" width="16" height="16"><g fill="#222"><path fill-opacity=".349" d="M6 0v4.586L4.707 3.293A1 1 0 0 0 4 3H3v1a1 1 0 0 0 .293.707L6 7.414v1.172l-2.707 2.707A1 1 0 0 0 3 12v1h1a1 1 0 0 0 .707-.293L6 11.414V16h1a1 1 0 0 0 .707-.293l2.566-2.566a.993.993 0 0 1-.261-.672V11c0-.547.441-.988.988-.988h.426L9.414 8l2.293-2.293a1 1 0 0 0 0-1.414l-4-4A1.001 1.001 0 0 0 7.031 0H7zm2 3.414L9.586 5 8 6.586zm0 6L9.586 11 8 12.586zm0 0"/><path d="M11 11h1.375l1.125 1.094L14.594 11H16v1.469l-1.094 1.062L16 14.594V16h-1.438L13.5 14.937 12.437 16H11v-1.406l1.063-1.063L11 12.47zm0 0"/></g></svg>