<svg xmlns="http://www.w3.org/2000/svg" width="16" height="16"><g fill="#222"><path d="M6 3v1.762L4 6.25V10h5.023V6.25L7 4.738V3zm6 0v2h2v1c0 .563-.438 1-1 1h-1v2h1c1.645 0 3-1.355 3-3V3zM6.516 5.625 8.023 6.75V9H5V6.75zM.926 14a.92.92 0 0 0-.926.926v.148c0 .516.41.926.926.926h12.148c.512 0 .926-.41.926-.926v-.148a.923.923 0 0 0-.926-.926zm0 0"/><path d="M1 2v7.39A3.626 3.626 0 0 0 4.613 13h4.774A3.627 3.627 0 0 0 13 9.39V2zm2 2h8v5.39c0 .907-.703 1.61-1.613 1.61H4.613C3.703 11 3 10.297 3 9.39zm0 0"/></g></svg>