<svg xmlns="http://www.w3.org/2000/svg" width="16" height="16"><path fill="#222" d="M13.078 0c-.93 0-1.726.66-1.902 1.57L3.688 2.93A2.01 2.01 0 1 0 1.25 5.875v6.258a1.977 1.977 0 1 0 2.688 1.844c0-.188-.028-.372-.083-.551L7 10.813c.316.183.672.28 1.04.28a2.04 2.04 0 0 0 1.382-.542l2.691 1.344c-.004.039-.004.082-.004.12a1.954 1.954 0 0 0 3.907 0c0-.882-.594-1.656-1.446-1.882l-.648-6.453A1.938 1.938 0 0 0 13.078 0zm-1.594 3.04c.23.331.559.581.938.722l.656 6.566a1.95 1.95 0 0 0-.305.223l-2.699-1.352c0-.05.004-.097.004-.144 0-1.125-.914-2.04-2.039-2.04a2.04 2.04 0 0 0-1.957 2.61L2.926 12.25a3.56 3.56 0 0 0-.176-.086V5.867a2.004 2.004 0 0 0 1.207-1.46zm0 0"/></svg>