<svg xmlns="http://www.w3.org/2000/svg" width="16" height="16"><g fill="#222"><path d="M4.2 0C2.995 0 2 1 2 2.2v1.808h2V2.199C4 2.07 4.074 2 4.2 2h7.605c.125 0 .195.07.195.2v9.613c0 .128-.07.199-.195.199L2 12v1.8C2 15 2.996 16 4.2 16h7.605C13.008 16 14 15 14 13.8V2.2C14 1 13.008 0 11.805 0zM8 12.902c.55 0 1 .383 1 .934 0 .55-.45 1-1 1s-1-.45-1-1 .45-.934 1-.934zm0 0"/><path d="M2.625 4.438c-.23.046-.445.132-.656.218-.016.625.086 1.442-.157 1.657-.238.21-1.039.035-1.656-.032a3.619 3.619 0 0 0-.312.75C.32 7.426.984 7.871 1 8.188c.016.32-.625.804-1.063 1.25.102.257.25.492.407.718.61-.125 1.367-.375 1.625-.187.261.187.265 1.004.343 1.625.25.074.512.105.782.125.281-.555.566-1.32.875-1.406.316-.09.965.457 1.5.78.218-.152.414-.335.593-.53-.253-.575-.722-1.293-.593-1.594S6.445 8.5 7.03 8.28c.004-.074.032-.144.032-.219 0-.19-.036-.378-.063-.562-.605-.16-1.469-.242-1.625-.531s.242-1.063.438-1.657c-.2-.18-.418-.335-.657-.468-.5.375-1.086.996-1.406.937-.316-.054-.664-.82-1-1.343-.04.007-.086-.008-.125 0zm.625 1.875c.934 0 1.688.753 1.688 1.687S4.184 9.688 3.25 9.688 1.562 8.934 1.562 8s.754-1.688 1.688-1.688zm0 0"/></g></svg>