<svg xmlns="http://www.w3.org/2000/svg" width="16" height="16"><path fill="#222" d="M5 0c-.55 0-1 .45-1 1 0 .691.39 1.285.8 1.605C4.298 3.277 4 4.105 4 5H3V4H1v1c0 .832.563 1.523 1.05 1.77.493.246.95.23.95.23h1v1H1v2h3v1H3s-.457-.016-.95.23C1.563 11.477 1 12.168 1 13v1h2v-1h1.129c.45 1.719 2.016 3 3.871 3s3.422-1.281 3.871-3H13v1h2v-1c0-.832-.563-1.523-1.05-1.77-.493-.246-.95-.23-.95-.23h-1v-1h3V8h-3V7h1s.457.016.95-.23C14.437 6.523 15 5.832 15 5V4h-2v1h-1c0-.895-.297-1.723-.8-2.395.41-.32.8-.914.8-1.605 0-.55-.45-1-1-1s-1 .45-1 1a.995.995 0 0 0-.645.238C8.93 1.086 8.473 1 8 1s-.93.086-1.355.238A.995.995 0 0 0 6 1c0-.55-.45-1-1-1zm3 3c.758 0 1.398.398 1.738 1H6.262c.34-.602.98-1 1.738-1zM6 6h4v6c0 1.125-.875 2-2 2s-2-.875-2-2zm0 0"/></svg>