<svg xmlns="http://www.w3.org/2000/svg" width="16" height="16"><g fill="#222"><path d="M15 1v1h-1V1zm0 1h1v1h-1zm-2-1v1h-1V1zm-2 0v1h-1V1zM9 1v1H8V1zM7 1v1H6V1zM5 1v1H4V1zM3 1v1H2V1zM1 1v1H0v-.5c0-.277.223-.5.5-.5zm0 2v1H0V3zm15 1v1h-1V4zM1 5v1H0V5zm15 1v1h-1V6zM1 7v1H0V7zm15 1v1h-1V8zM1 9v1H0V9zm15 1v1h-1v-1zM1 11v1H0v-1zm15 1v1h-1v-1zM1 13v1H0v-1zm0 1h1v1H1zm15 0v.5c0 .277-.223.5-.5.5H15v-1zm-2 0v1h-1v-1zm-2 0v1h-1v-1zm-2 0v1H9v-1zm-2 0v1H7v-1zm-2 0v1H5v-1zm-2 0v1H3v-1zM3 3c-.555 0-1 .445-1 1v8c0 .555.445 1 1 1h10c.555 0 1-.445 1-1V4c0-.555-.445-1-1-1zm0 2h10v7H3zm0 0"/><path d="M4.492 5.992a.5.5 0 0 0-.46.317.501.501 0 0 0 .113.546L5.793 8.5l-1.648 1.645a.514.514 0 0 0-.137.488.506.506 0 0 0 .36.36.514.514 0 0 0 .487-.138l2-2a.512.512 0 0 0 0-.71l-2-2a.528.528 0 0 0-.363-.153zm0 0"/></g></svg>