<svg xmlns="http://www.w3.org/2000/svg" width="16" height="16"><path fill="#222" fill-opacity=".349" d="M4 1C2.355 1 1 2.355 1 4v1h1V4c0-1.11.89-2 2-2h1V1zm2 0v1h4V1zm5 0v1h1c1.11 0 2 .89 2 2v1h1V4c0-1.645-1.355-3-3-3zM7.969 3c-.051 0-.102 0-.153.004-1.644.094-2.906 1.36-2.812 3h2c-.035-.563.371-.969.937-1a.992.992 0 0 1 1.063.937v.032c.004.129-.035.324-.125.437a4.65 4.65 0 0 1-.688.656c-.23.172-.476.383-.718.688-.246.305-.47.746-.47 1.25-.007.527.47 1 1 1 .524 0 1-.469 1-.992l.028-.04c.051-.062.188-.167.375-.312C10.625 7.738 11 7.22 11 5.816 10.914 4.226 9.547 2.992 7.969 3zM1 6v4h1V6zm13 0v4h1V6zM1 11v1c0 1.645 1.355 3 3 3h1v-1H4c-1.11 0-2-.89-2-2v-1zm13 0v1c0 1.11-.89 2-2 2h-1v1h1c1.645 0 3-1.355 3-3v-1zm-5.996.004a1 1 0 1 0-.001 1.999 1 1 0 0 0 0-2zM6 14v1h4v-1zm0 0"/></svg>