<svg xmlns="http://www.w3.org/2000/svg" width="16" height="16"><g fill="#222"><path d="M6 2.043a2 2 0 1 1-4.002.002A2 2 0 0 1 6 2.043zm9 0a2 2 0 1 1-4.002.002A2 2 0 0 1 15 2.043zM8 1v8.086l1 1V1zM3.914 5 7 8.086V6.039C7 5.465 6.535 5 5.96 5zm8.094 0c-.574 0-.945.469-1.04 1.04l-.84 5.175 1.84 1.836H12v.035l1.707 1.707c.031.031.059.066.086.098a.503.503 0 0 0 .207-.403v-1.437h.96c.575 0 1.134-.469 1.04-1.04l-.969-5.972C14.938 5.47 14.566 5 13.992 5zm-10.653.27A1.02 1.02 0 0 0 1 6.04v4.42c0 .563.441 1.009 1 1.032v2.516c0 .55.441.992.992.992h2.016c.55 0 .992-.441.992-.992v-2.516c.422-.015.777-.281.926-.652zM8 11.914V15h1v-2.086zm0 0"/><path d="M2 1a1 1 0 0 0-.707 1.707l12 12a1 1 0 1 0 1.414-1.414l-12-12A1 1 0 0 0 2 1zm0 0"/></g></svg>