<svg xmlns="http://www.w3.org/2000/svg" width="16" height="16"><path fill="#222" d="M4.5 13c-2.5 0-2.5.5-2.5.5 0 .5.5.5.5.5h4c.5 0 .5-.5.5-.5s0-.5-2.5-.5zm7 0c-2.5 0-2.5.5-2.5.5 0 .5.5.5.5.5h4c.5 0 .5-.5.5-.5s0-.5-2.5-.5zm-2-11c-1.219 0-2.246.902-2.457 2.063A2.488 2.488 0 0 0 6.5 4h-4A2.518 2.518 0 0 0 0 6.5v3C0 10.867 1.133 12 2.5 12h4a2.45 2.45 0 0 0 1.5-.52c.422.325.937.52 1.5.52h4c1.367 0 2.5-1.133 2.5-2.5v-5C16 3.133 14.867 2 13.5 2zm0 2h4c.293 0 .5.207.5.5v5a.48.48 0 0 1-.5.5h-4a.48.48 0 0 1-.5-.5v-5c0-.293.207-.5.5-.5zm-7 2h4c.293 0 .5.207.5.5v3a.48.48 0 0 1-.5.5h-4a.48.48 0 0 1-.5-.5v-3c0-.293.207-.5.5-.5zm0 0"/></svg>