<svg xmlns="http://www.w3.org/2000/svg" width="16" height="16"><path fill="#222" d="M4 .047a1.999 1.999 0 1 0 0 4 1.999 1.999 0 1 0 0-4zm9 0a1.999 1.999 0 1 0 0 4 1.999 1.999 0 1 0 0-4zM8 1v14h1V1zM2.04 5C1.464 5 1 5.465 1 6.04v4.42c0 .563.441 1.017 1 1.04v2.508c0 .55.441.992.992.992h2.016c.55 0 .992-.441.992-.992V11.5c.559-.023 1-.477 1-1.04V6.04C7 5.464 6.535 5 5.96 5zm9.968 0c-.574 0-.945.469-1.04 1.04L10 12.015c-.094.566.465 1.035 1.04 1.035H12v1.437a.51.51 0 0 0 .512.512h.976a.508.508 0 0 0 .512-.512V13.05h.96c.575 0 1.134-.469 1.04-1.035l-.969-5.977C14.937 5.47 14.566 5 13.992 5zm0 0"/></svg>