<svg xmlns="http://www.w3.org/2000/svg" width="16" height="16"><path fill="#222" d="M2 0s-.457-.016-.95.23C.563.477 0 1.168 0 2v3h2V2h3V0zm9 0v2h3v3h2V2c0-.832-.563-1.523-1.05-1.77C14.456-.016 14 0 14 0zM0 11v3c0 .832.563 1.523 1.05 1.77.493.246.95.23.95.23h3v-2H2v-3zm14 0v3h-3v2h3s.457.016.95-.23c.488-.247 1.05-.938 1.05-1.77v-3zM4 5h3v1H4zm5 0h3v1H9zm0 0"/><path d="M3.7 10.84c2.179 1.652 6.495 1.625 8.605-.004a.49.49 0 0 0 .191-.461.51.51 0 0 0-.305-.398.504.504 0 0 0-.496.07c-1.742 1.34-5.574 1.375-7.394-.004a.496.496 0 0 0-.7.098.496.496 0 0 0 .098.699zm0 0"/></svg>