<svg xmlns="http://www.w3.org/2000/svg" width="16" height="16"><g fill="#222"><path fill-opacity=".349" d="M5 0a1 1 0 0 0-.707.293L.191 4.395a1 1 0 0 0-.293.707l.004 5.796a.968.968 0 0 0 .293.707l4.098 4.102A1 1 0 0 0 5 16h3.895c.55 0 1-.45 1-1s-.45-1-1-1h-3.48l-3.517-3.512.004-4.972L5.414 2h4.973l3.511 3.512L13.891 9a1.002 1.002 0 0 0 2.004 0l.003-3.898a1 1 0 0 0-.293-.707L11.504.293A.997.997 0 0 0 10.8 0zm1.895 4v3l.28 2h1.47l.25-2V4zm1 5.75A1.249 1.249 0 1 0 9.145 11c0-.691-.56-1.25-1.25-1.25zm0 0"/><path d="M10.895 11h1.375l1.125 1.094L14.488 11h1.407v1.469L14.8 13.53l1.094 1.063V16h-1.438l-1.062-1.063L12.332 16h-1.437v-1.406l1.062-1.063-1.062-1.062zm0 0"/></g></svg>