<svg xmlns="http://www.w3.org/2000/svg" width="16" height="16"><path fill="#222" d="m13.023 9.05-1 .005h-10v3.855a2.14 2.14 0 0 0 2.145 2.145h5.715a2.14 2.14 0 0 0 1.98-1.328c.356.195.754.3 1.16.308 1.383 0 2.5-1.12 2.5-2.5s-1.117-2.484-2.5-2.484zm0 1.02a1.465 1.465 0 0 1 0 2.93 1.48 1.48 0 0 1-1-.46v-2.01a1.48 1.48 0 0 1 1-.46zM5.988 1v.516c0 .82.676 1.5 1.5 1.5h3c.282 0 .5.214.5.5 0 .28-.218.5-.5.5h-7c-.824 0-1.5.675-1.5 1.5 0 .82.676 1.5 1.5 1.5h4c.282 0 .5.214.5.5V8h1v-.484c0-.825-.68-1.5-1.5-1.5h-4a.491.491 0 0 1-.5-.5c0-.286.215-.5.5-.5h7c.82 0 1.5-.68 1.5-1.5 0-.825-.68-1.5-1.5-1.5h-3a.491.491 0 0 1-.5-.5V1zm0 0"/></svg>