<svg xmlns="http://www.w3.org/2000/svg" width="16" height="16"><path d="M3 1C1.355 1 0 2.355 0 4v7c0 1.645 1.355 3 3 3h3c.563 0 1 .438 1 1 0 .55.45 1 1 1s1-.45 1-1c0-1.645-1.355-3-3-3H3c-.563 0-1-.438-1-1V4c0-.563.438-1 1-1h3c.563 0 1 .438 1 1 0 .55.45 1 1 1s1-.45 1-1c0-1.645-1.355-3-3-3zm0 0"/><path d="M7 4v10h2V4zm0 0"/><path d="M10 1C8.355 1 7 2.355 7 4c0 .55.45 1 1 1s1-.45 1-1c0-.563.438-1 1-1h3c.563 0 1 .438 1 1v7c0 .563-.438 1-1 1h-3c-1.645 0-3 1.355-3 3 0 .55.45 1 1 1s1-.45 1-1c0-.563.438-1 1-1h3c1.645 0 3-1.355 3-3V4c0-1.645-1.355-3-3-3zM3 4h3v1H3zm0 2h3v1H3zm0 2h3v1H3zm0 0"/><path d="M10 4h3v1h-3zm0 2h3v1h-3zm0 2h2v1h-2zm0 0"/></svg>