<svg xmlns="http://www.w3.org/2000/svg" width="16" height="16"><path fill="#222" d="M7-.027c-1.105 0-2 .894-2 2 .004.71.383 1.37 1 1.726v8.543a1.999 1.999 0 0 0 1 3.73c1.105 0 2-.894 2-2a2.01 2.01 0 0 0-1-1.734V12c0-.668.188-.727.445-.86.262-.128.555-.144.555-.144h.008L11 10.973c.832 0 1.55-.387 2.082-.918S14 8.805 14 7.973V5.699a2.005 2.005 0 0 0 1-1.726 2 2 0 1 0-4 0c0 .71.383 1.37 1 1.726v2.274c0 .168-.113.449-.332.668s-.5.332-.668.332h-.008l-2 .027c-.008 0-.445-.004-.992.172V3.699a2.005 2.005 0 0 0 1-1.726c0-1.106-.895-2-2-2zm0 0"/></svg>