<svg xmlns="http://www.w3.org/2000/svg" width="16" height="16"><path fill="#222" d="M3.156 10h10.688c.636 0 1.156.52 1.156 1.156v1.688A1.16 1.16 0 0 1 13.844 14H3.156A1.16 1.16 0 0 1 2 12.844v-1.688C2 10.52 2.52 10 3.156 10zm6-5C8.516 5 8 5.516 8 6.156v1.688C8 8.484 8.516 9 9.156 9h4.688C14.484 9 15 8.484 15 7.844V6.156C15 5.516 14.484 5 13.844 5zM9.11 6h4.782c.062 0 .109.047.109.11v1.78a.11.11 0 0 1-.11.11H9.11A.107.107 0 0 1 9 7.89V6.11c0-.063.047-.11.11-.11zM7.504 1.883l-3.5 3.5L2.5 3.855l-1 .977 2.496 2.535 4.5-4.5zm0 0"/></svg>