<svg xmlns="http://www.w3.org/2000/svg" width="16" height="16"><g fill="#222"><path d="M8.438 1.48c-.22.18-.41.41-.547.676l-4.657 9.125c-.543 1.07-.109 2.387.97 2.961l.944.496c1.075.57 2.372.176 2.914-.894l4.66-9.121c.544-1.07.11-2.391-.968-2.961l-.945-.496c-.805-.43-1.727-.32-2.371.214zM6.965 5.945a.776.776 0 0 1 1.062.14.73.73 0 0 1-.14 1.036.773.773 0 0 1-1.063-.14.73.73 0 0 1 .14-1.036zm-.992 1.98a.777.777 0 0 1 1.062.138.735.735 0 0 1-.144 1.039.777.777 0 0 1-1.063-.141.73.73 0 0 1 .145-1.035zm3.023-1.01a.774.774 0 0 1 1.063.14.73.73 0 0 1-.145 1.035.774.774 0 0 1-1.062-.14.73.73 0 0 1 .144-1.036zm-.992 1.98a.777.777 0 0 1 1.062.136.738.738 0 0 1-.144 1.04.78.78 0 0 1-1.063-.141.73.73 0 0 1 .145-1.035zm0 0"/><path fill-opacity=".349" d="M3.594 3c-.84-.035-1.61.438-1.969 1.281l-.438 1c-.48 1.13 0 2.469 1.094 3l.875.406 2.438-4.906-1.157-.562A2.147 2.147 0 0 0 3.595 3zm9.281 4.281-2.469 4.907 1.219.593c1.094.531 2.332.067 2.813-1.062l.437-1c.48-1.13 0-2.469-1.094-3zm0 0"/></g></svg>